<?xml version="1.0" standalone="no"?><!DOCTYPE svg PUBLIC "-//W3C//DTD SVG 1.1//EN" "http://www.w3.org/Graphics/SVG/1.1/DTD/svg11.dtd"><svg class="icon" width="200px" height="200.00px" viewBox="0 0 1024 1024" version="1.1" xmlns="http://www.w3.org/2000/svg"><path fill="#ffffff" d="M556.8 108.8v313.6c0 24.7 20.1 44.8 44.8 44.8h313.6c24.7 0 44.8-20.1 44.8-44.8V108.8c0-24.7-20.1-44.8-44.8-44.8H601.6c-24.7 0-44.8 20.1-44.8 44.8zM108.8 467.2h313.6c24.7 0 44.8-20.1 44.8-44.8V108.8c0-24.7-20.1-44.8-44.8-44.8H108.8C84.1 64 64 84.1 64 108.8v313.6c0 24.7 20.1 44.8 44.8 44.8zM108.8 960h313.6c24.7 0 44.8-20.1 44.8-44.8V601.6c0-24.7-20.1-44.8-44.8-44.8H108.8c-24.7 0-44.8 20.1-44.8 44.8v313.6c0 24.7 20.1 44.8 44.8 44.8zM886.1 691.8l16-16c16.2-16.2 16.2-42.6 0-58.8-17.5-17.5-45.9-17.5-63.4 0L825 630.7c-7.4-3.9-15.2-7.2-23.4-9.7v-19.4c0-24.7-20.1-44.8-44.8-44.8-23 0-41.6 18.6-41.6 41.6V621c-8.3 2.6-16.3 6-23.9 10l-13.6-13.6c-17.5-17.5-45.9-17.5-63.4 0-16.2 16.2-16.2 42.6 0 58.8l16.1 16.1c-3.9 7.5-7.1 15.3-9.6 23.4h-19.2c-24.7 0-44.8 20.1-44.8 44.8 0 23 18.6 41.6 41.6 41.6h22.8c2.5 7.9 5.7 15.6 9.5 22.9L617 838.7c-17.5 17.5-17.5 45.9 0 63.4 16.2 16.2 42.6 16.2 58.8 0l16-16c7.4 3.9 15.2 7.2 23.4 9.7v22.6c0 23 18.6 41.6 41.6 41.6 24.7 0 44.8-20.1 44.8-44.8v-19.4c8-2.5 15.6-5.7 22.9-9.5l13.9 13.9c17.5 17.5 45.9 17.5 63.4 0 16.2-16.2 16.2-42.6 0-58.8l-15.9-15.9c3.9-7.4 7.2-15.2 9.8-23.3h22.8c23 0 41.6-18.6 41.6-41.6 0-24.7-20.1-44.8-44.8-44.8H896c-2.6-8.4-6-16.4-9.9-24z m-66.6 127.7c-15.6 15.6-37.2 25.3-61.1 25.3-23.8 0-45.4-9.7-61.1-25.3-15.6-15.6-25.3-37.2-25.3-61.1 0-23.8 9.7-45.4 25.3-61.1 15.6-15.6 37.2-25.3 61.1-25.3 33.8 0 66.1 18.9 79 50.2 15.4 37.5 5.4 74-17.9 97.3z"  /></svg>