<?xml version="1.0" standalone="no"?><!DOCTYPE svg PUBLIC "-//W3C//DTD SVG 1.1//EN" "http://www.w3.org/Graphics/SVG/1.1/DTD/svg11.dtd"><svg class="icon" width="200px" height="200.00px" viewBox="0 0 1024 1024" version="1.1" xmlns="http://www.w3.org/2000/svg"><path fill="#ffffff" d="M506.815419 931.192268c-68.848041 0-124.866892-55.998385-124.866892-124.84131L381.948527 654.937456c-10.989285-3.2623-19.023262-13.437034-19.023262-25.446555l0-1.555425c-38.706557-6.681166-70.247924-21.243837-96.153944-44.318368-48.193629-42.842761-77.108169-113.863281-91.00569-223.456305-13.718443-108.59837-4.997827-173.797301 28.303626-211.460086 27.589358-31.185256 65.175395-37.355793 102.32755-38.427194 10.734482-11.168364 25.39539-17.46579 41.127699-17.46579 31.618115 0 57.32152 25.702382 57.32152 57.270355 0 31.593556-25.702382 57.293891-57.32152 57.293891-15.427364 0-29.883611-6.118348-40.619116-17.007349-24.555256 0.868787-36.412304 4.079922-42.888809 11.373025-9.001001 10.19827-22.13309 43.042305-8.797363 148.375306 11.118222 87.996147 32.3068 144.807037 64.767096 173.698041 11.576663 10.3006 25.753547 17.649985 43.042305 22.269189 1.172709-13.573133 12.597923-24.233937 26.467815-24.233937l64.969711 0c14.432711 0 26.238594 11.627828 26.51898 26.018583 26.594705-5.355985 40.210817-14.644535 50.819432-24.053835 32.435737-28.865421 53.624315-85.675288 64.767096-173.698041 13.334703-105.335047 0.179079-138.177036-8.823969-148.375306-6.474458-7.293103-18.304901-10.506285-42.835597-11.372002-10.709923 10.889001-25.166169 17.006326-40.645722 17.006326-31.567973 0-57.242725-25.700335-57.242725-57.293891 0-31.567973 25.675776-57.270355 57.242725-57.270355 15.681144 0 30.370705 6.297426 41.130769 17.46579 37.175691 1.071402 74.761728 7.241938 102.323457 38.427194 33.3035 37.662785 42.020022 102.886275 28.279067 211.460086-13.846356 109.542882-42.760896 180.561355-90.980107 223.456305-27.53717 24.529673-61.653175 39.473013-104.034425 45.539172l0 0.331551c0 12.036128-8.032954 22.208814-19.021216 25.475208L461.963908 806.324352c0 24.707728 20.1182 44.797275 44.853557 44.797275 24.681122 0 44.773739-20.092617 44.773739-44.797275L551.591205 686.885076c0-68.871577 56.021921-124.891452 124.892475-124.891452 68.8726 0 124.917034 56.019875 124.917034 124.891452l0 46.76407c32.079626 15.328104 53.063543 48.013527 53.063543 84.045161 0 51.357691-41.765219 93.120864-93.121887 93.120864-51.354622 0-93.119841-41.764196-93.119841-93.120864 0-36.031635 20.983917-68.74571 53.087079-84.068697l0-46.740534c0-24.707728-20.1182-44.825928-44.827975-44.825928-24.706705 0-44.799322 20.1182-44.799322 44.825928l0 119.462812C631.681288 875.193883 575.661414 931.192268 506.815419 931.192268z" /></svg>