<?xml version="1.0" standalone="no"?><!DOCTYPE svg PUBLIC "-//W3C//DTD SVG 1.1//EN" "http://www.w3.org/Graphics/SVG/1.1/DTD/svg11.dtd"><svg class="icon" width="200px" height="200.00px" viewBox="0 0 1024 1024" version="1.1" xmlns="http://www.w3.org/2000/svg"><path fill="#ffffff" d="M513.8 882c-26.1 0-51.7-14.7-75.9-43.6L178.4 563.3l-0.1-0.1c-41.9-46.4-62.8-108-58.9-173.5 3.8-62.7 30.7-121.7 73.7-162.2 32.1-34.4 74.8-52.2 123.5-51.5 65.9 1 137.4 36.5 186.7 92.8l8.9 10.2 8.9-10.2c49.2-56.2 117.2-90.8 181.8-92.7 49.4-1.4 93.7 16.3 128.2 51.2 22.8 21.4 41.7 48.5 54.7 78.4 12.8 29.5 20.1 62 21 94.1 1.8 62.4-19.9 120.6-61.1 163.8L586.9 838.1c-21.7 28.5-45.7 43.3-71.4 43.9h-1.7zM203.4 540.2l259.9 275.5 0.3 0.4c12.1 14.6 30.6 31.8 50.2 31.8h0.8c15-0.4 30.4-10.9 45.6-31.1l0.6-0.8 260.3-276c34.9-36.6 53.3-86.1 51.8-139.4-0.8-27.7-7.1-55.9-18.2-81.4-11.2-25.8-27.5-49.1-47-67.4l-0.5-0.5c-27.7-28.2-63.4-42.5-103.2-41.3-27.2 0.8-56.1 8.8-83.7 23.1-27.3 14.2-52.7 34.2-73.5 58l-34.5 39.4-34.5-39.4c-43.2-49.2-105.1-80.3-161.6-81.1-39-0.5-73.1 13.6-98.5 41l-0.9 0.9c-37 34.6-60.1 85.6-63.4 139.8-3.4 56.3 14.4 109 50 148.5z"  /><path fill="#ffffff" d="M658 538H367c-9.4 0-17-7.6-17-17s7.6-17 17-17h291c9.4 0 17 7.6 17 17s-7.6 17-17 17z"  /><path fill="#ffffff" d="M512 699c-9.4 0-17-7.6-17-17V391c0-9.4 7.6-17 17-17s17 7.6 17 17v291c0 9.4-7.6 17-17 17z"  /></svg>