<?xml version="1.0" standalone="no"?><!DOCTYPE svg PUBLIC "-//W3C//DTD SVG 1.1//EN" "http://www.w3.org/Graphics/SVG/1.1/DTD/svg11.dtd"><svg class="icon" width="200px" height="200.00px" viewBox="0 0 1024 1024" version="1.1" xmlns="http://www.w3.org/2000/svg"><path fill="#ffffff" d="M413.184 366.592h65.536v558.592H413.184zM544.768 366.592h65.536v558.592h-65.536zM117.76 366.592h65.536v558.592H117.76zM248.832 366.592h65.536v558.592H248.832zM709.12 366.592h65.536v558.592h-65.536zM840.704 366.592H906.24v558.592h-65.536zM1005.056 432.128H18.944V281.6L512 0l493.056 281.6v150.528zM84.48 366.592h854.528v-46.592L512 75.776 84.48 320v46.592zM512 333.824c-54.272 0-98.816-44.032-98.816-98.816s44.032-98.816 98.816-98.816 98.816 44.032 98.816 98.816-44.544 98.816-98.816 98.816z m0-131.584c-17.92 0-32.768 14.848-32.768 32.768s14.848 32.768 32.768 32.768 32.768-14.848 32.768-32.768-14.848-32.768-32.768-32.768zM1005.056 1024H18.944v-164.352h986.112V1024zM84.48 958.464h854.528v-32.768H84.48v32.768z" /></svg>