<?xml version="1.0" standalone="no"?><!DOCTYPE svg PUBLIC "-//W3C//DTD SVG 1.1//EN" "http://www.w3.org/Graphics/SVG/1.1/DTD/svg11.dtd"><svg class="icon" width="200px" height="200.00px" viewBox="0 0 1024 1024" version="1.1" xmlns="http://www.w3.org/2000/svg"><path fill="#ffffff" d="M904.377 347.496s-99.614 2.31-214.798 63.977c-2.432-3.406-34.786-136.712 37.34-240.462-14.352 7.663-75.288 32.719-136.833 77.478-25.907-32.11-59.72-149.36-22.136-225.501-312.953 176.485-448.205 431.664-448.327 614.716-0.122 142.55 36.489 365.984 390.796 365.984 134.28 2.432 198.986-34.665 244.476-72.613 53.76-41.719 107.277-153.618 74.802-254.328-72.127-241.556 74.68-329.251 74.68-329.251zM717.554 822.095c-22.744 38.678-132.698 86.235-225.623 84.41-103.385 8.636-185.971-38.434-211.27-87.937-70.424-137.928 31.137-227.326 25.542-217.11-5.595 10.096-6.69 126.617 106.304 172.107-69.45-84.29 33.327-260.045 123.82-297.263-46.342 170.16 82.586 250.678 82.586 250.678s26.15 18.245 63.369-162.618c70.302 86.843 73.342 218.811 35.272 257.733z m0 0"  /></svg>