<?xml version="1.0" standalone="no"?><!DOCTYPE svg PUBLIC "-//W3C//DTD SVG 1.1//EN" "http://www.w3.org/Graphics/SVG/1.1/DTD/svg11.dtd"><svg class="icon" width="200px" height="200.00px" viewBox="0 0 1024 1024" version="1.1" xmlns="http://www.w3.org/2000/svg"><path fill="#ffffff" d="M277.504 604.16c0.512-12.288-9.216-36.864-21.504-39.936-112.128-20.48-191.488-109.568-171.008-221.696C92.16 248.32 181.248 187.392 293.888 207.872c5.12 1.024 9.728 2.048 14.848 3.072 10.24 2.56 20.48-1.024 27.136-9.216 46.08-58.88 102.4-108.544 172.032-108.544 71.68 0 140.288 53.76 184.832 110.592 6.144 7.68 16.384 11.776 26.112 9.216 112.128-21.504 199.68 12.8 221.184 124.928 20.48 107.008-45.568 201.728-151.04 228.864-1.024 0-2.048 0.512-2.56 1.024-12.288 2.56-26.112 13.312-26.112 25.6l2.048 306.176v2.048c0 26.624-18.944 44.032-49.664 44.032H273.408c-28.16-0.512-45.568-18.432-45.568-46.592 0-28.672 17.92-46.592 46.592-46.592h408.064v-92.672H274.944c-93.184 0-134.144 62.464-134.144 139.264 0 78.336 62.976 123.904 133.632 123.904H747.52c57.856 0 111.104-38.912 111.104-95.744v-2.56l-2.048-302.592C962.56 588.288 1024 489.472 1024 377.856c0-142.848-115.712-258.56-258.56-258.56-10.752 0-22.016 0.512-32.768 2.048C677.888 58.88 590.336 0 507.392 0 425.984 0 345.6 57.344 290.304 121.344c-10.752-1.536-20.992-2.048-31.744-2.048C115.712 119.808 0 235.52 0 377.856c0 111.616 66.56 209.408 169.472 244.736l-1.024 73.216 108.032 0.512 1.024-92.16z" /></svg>