<?xml version="1.0" standalone="no"?><!DOCTYPE svg PUBLIC "-//W3C//DTD SVG 1.1//EN" "http://www.w3.org/Graphics/SVG/1.1/DTD/svg11.dtd"><svg class="icon" width="200px" height="200.00px" viewBox="0 0 1024 1024" version="1.1" xmlns="http://www.w3.org/2000/svg"><path fill="#ffffff" d="M925.869 990.915c-14.97-67.73-109.885-210.066-272.457-266.46 133.997-59.123 221.086-195.803 221.257-347.233C874.425 169.01 712.169 0.268 512.002 0 311.834 0.22 149.604 168.96 149.384 377.222c0.146 151.406 87.21 288.085 221.209 347.234C208.069 780.849 113.13 923.16 98.184 990.939c-1.78 7.973 0.073 16.384 4.998 22.797 4.95 6.412 12.435 10.093 20.31 10.02 12.044 0.073 22.528-8.582 25.185-20.797C164.33 932.28 295.231 754.517 512.1 754.517c216.844 0 347.672 177.762 363.276 248.515 1.463 6.973 5.607 13.044 11.434 16.848 5.803 3.827 12.85 5.046 19.554 3.413 13.897-3.462 22.577-17.847 19.505-32.378z m-724.724-613.62c0-1.414 0.195-2.73 0.195-4.145 42.57 32.452 109.105 59.002 180.882 58.198 61.343-0.878 146.92-21.748 221.062-111.64 57.54 80.578 128.659 123.391 211.627 128.511-31.939 147.383-157.672 252.1-302.885 252.319-171.593-0.146-310.662-144.774-310.857-323.243z"  /></svg>