<?xml version="1.0" standalone="no"?><!DOCTYPE svg PUBLIC "-//W3C//DTD SVG 1.1//EN" "http://www.w3.org/Graphics/SVG/1.1/DTD/svg11.dtd"><svg class="icon" width="200px" height="200.00px" viewBox="0 0 1024 1024" version="1.1" xmlns="http://www.w3.org/2000/svg"><path fill="#ffffff" d="M939.76962 532.643156L813.701366 658.71141c-5.41943 5.41943-14.228049 5.41943-19.647479 0l-19.677154-19.677155c-5.41943-5.41943-5.41943-14.232143 0-19.651572l85.099166-85.043909H537.476231v321.998645l85.072561-85.069491c5.420453-5.41943 14.228049-5.41943 19.647479 0l19.677155 19.677155c5.41943 5.420453 5.41943 14.228049 0 19.647479L535.810289 936.657746c-0.280386-0.64059-15.343453 14.562671-26.121938 14.562671-10.784624 0-24.961508-15.20326-26.098401-14.58723L357.52579 810.56391c-5.41943-5.41943-5.41943-14.228049 0-19.647479l19.677154-19.677155c5.420453-5.41943 14.228049-5.41943 19.647479 0l85.043909 85.099167V534.338774H159.894663l85.073585 85.072561c5.41943 5.420453 5.41943 14.228049 0 19.647479L225.291093 658.735969c-5.41943 5.41943-14.232143 5.41943-19.651573 0L79.57536 532.672832c0.64059-0.280386-14.562671-15.343453-14.562671-26.121938 0-10.784624 15.20326-24.961508 14.592347-26.098401l126.06416-126.06416c5.420453-5.41943 14.228049-5.41943 19.647479 0l19.677155 19.677155c5.41943 5.420453 5.41943 14.228049 0 19.647479l-85.099167 85.043908h321.998645V156.757207l-85.07256 85.073584c-5.41943 5.41943-14.228049 5.41943-19.647479 0L357.496114 222.153636c-5.41943-5.41943-5.41943-14.232143 0-19.651572L483.560274 76.437903c0.280386 0.64059 15.343453-14.562671 26.128077-14.56267 10.779507 0 24.956392 15.20326 26.093285 14.592346l126.068254 126.06416c5.41943 5.420453 5.41943 14.228049 0 19.647479l-19.677155 19.677155c-5.41943 5.41943-14.232143 5.41943-19.651572 0l-85.043909-85.099166v321.998645h321.999669l-85.069491-85.072561c-5.41943-5.41943-5.41943-14.228049 0-19.647479l19.677155-19.677155c5.420453-5.41943 14.228049-5.41943 19.647479 0l126.06416 126.06416c-0.64059 0.280386 14.562671 15.343453 14.562671 26.128077-0.001023 10.778484-15.204283 24.955368-14.589277 26.092262z m0 0" /></svg>