<?xml version="1.0" standalone="no"?><!DOCTYPE svg PUBLIC "-//W3C//DTD SVG 1.1//EN" "http://www.w3.org/Graphics/SVG/1.1/DTD/svg11.dtd"><svg class="icon" width="200px" height="186.86px" viewBox="0 0 1096 1024" version="1.1" xmlns="http://www.w3.org/2000/svg"><path d="M448.937871 24.431149c26.415405 0 51.838682 25.795325 75.897784 33.856365 25.423277 8.557103 23.811069 35.716604 45.265835 51.838682 22.446894 16.866174 64.116265 29.887853 80.610391 53.574906 13.765774 19.594526-22.322878 40.429212-13.641759 63.744217 6.696863 18.106334-71.06116 48.366235-67.96076 68.208793 2.604336 15.998062-4.588591 38.94102-4.588592 55.683178 0 15.005934 13.269711 58.907594 11.161439 73.293448-2.604336 17.982318-14.757902 32.368172-20.338622 49.11033-8.185055 24.679181 18.23035 38.692988 4.34056 59.65169-46.878043 70.813128-28.151629 82.842679-114.218724 82.842679" fill="#B1CC75" /><path d="M521.487223 326.534092c0 15.005934 14.137822 78.626135 12.773647 93.01199-0.744096 8.185055-28.647693 76.765896-85.322999 64.116265-67.712729-15.12995-139.021921-139.517985-139.021921-149.315248 0-27.903597-21.082718-54.939082-16.494126-80.362359 4.712607-26.415405 31.252029-31.872109 40.057164-54.319002 7.192927-18.478382 13.517743-70.193048 23.066973-85.322999 9.921279-15.75003 48.366235-27.655565 60.395785-39.065035 13.145695-12.401599 26.415405-50.846554 40.305196-50.846555 17.238222 0 33.856364 25.795325 49.606395 33.856365 16.618142 8.557103 15.626014 35.716604 29.515804 51.838682 14.633886 16.866174 33.608332 8.433087 44.273707 32.12014 8.929151 19.594526-2.976384 67.464697-14.261838 87.679303-8.805135 15.501998-32.244156 27.159501-39.065036 45.513867-6.572847 17.238222-5.828751 34.352428-5.828751 51.094586z" fill="#CEEA96" /><path d="M234.142182 238.23471c-5.952767 0-11.781519-3.1004-15.005934-8.557103-4.836623-8.309071-2.108272-18.85043 6.200799-23.81107 7.937023-4.588591 15.874046-9.549231 19.222478-15.253966 3.596464-6.076783 7.937023-19.346494 12.029551-32.12014 7.440959-22.942957 14.385854-44.645755 25.671309-56.427274 11.037423-11.409471 31.748093-18.85043 62.007993-28.895725 13.145695-4.34056 28.027613-9.301199 33.856365-12.897663 5.828751-3.596464 14.757902-12.649631 23.439021-21.454765C421.15829 18.974446 439.760688 0 460.223326 0c35.964636 0 55.807194 27.903597 70.193048 48.242219C536.369141 56.55129 541.949861 64.488313 546.9105 68.208793c7.192927 5.456703 22.446894 11.409471 37.08078 17.114206 26.663437 10.417343 54.319002 21.206734 67.092649 39.561099 5.456703 7.813007 3.596464 18.726414-4.34056 24.183118-7.813007 5.456703-18.726414 3.596464-24.183117-4.34056-6.696863-9.673247-31.500061-19.346494-51.218602-27.035485-17.61027-6.944895-34.352428-13.393727-45.389852-21.702797-9.177183-6.944895-16.37011-16.99019-23.935085-27.531549C487.754875 48.118203 477.0895 34.724476 460.347342 34.724476c-6.944895 0.868112-25.299261 19.594526-34.104397 28.647693-10.541359 10.789391-20.462638 20.834686-29.887852 26.663437-9.301199 5.704735-24.059101 10.665375-41.173308 16.246094-16.742158 5.580719-41.917403 13.88979-47.994187 20.09059-5.704735 5.828751-12.773647 28.151629-17.61027 42.909531-4.960639 15.377982-9.549231 29.887853-15.253966 39.313068-7.564975 12.649631-19.718542 20.462638-31.376045 27.283517-2.728352 1.612208-5.828751 2.356304-8.805135 2.356304zM460.471358 34.724476z"  /><path d="M801.51532 80.238343c25.423277 0 85.819063-4.216544 109.010052 5.952768 24.431149 10.913407 11.657503 57.419402 32.244157 77.882039 21.578782 21.454766 58.163498 25.051229 74.037544 55.187114 13.269711 25.051229 13.145695 31.624077 21.454765 61.139881 6.448831 23.066973 37.576844 51.59065 40.553228 76.765896 2.48032 20.338622-36.956764 66.100521-36.956764 87.555286 0 19.098462 28.275645 45.265835 26.291389 63.496185-2.48032 22.942957-32.864236 56.675306-38.196924 77.88204-7.937023 31.376045-0.992128 33.3603-14.385854 59.899721-45.141819 90.159622-134.433329 129.47269-217.400024 129.47269" fill="#8AA839" /><path d="M963.976263 452.162287c0 19.098462 19.594526 45.265835 18.23035 63.496185-1.736224 22.942957-22.818942 56.675306-26.415406 77.882039-5.456703 31.376045-0.744096 33.3603-9.921278 59.899722-31.252029 90.159622-93.136006 129.47269-150.679424 129.472689-53.078842 0-100.576965-50.102459-132.077026-128.728594-9.797263-24.555165 5.332687-50.474506-1.116143-79.866295-5.580719-25.547293-33.236284-54.194986-35.84062-82.718663-1.984256-21.702798 20.958702-44.273707 20.958701-67.216664 0-35.468572-21.454766-69.821-16.866174-102.189173 4.836623-33.608332 31.872109-40.553228 40.925276-69.200921 7.440959-23.563037 13.765774-89.415526 23.563037-108.638004 10.169311-19.966574 40.429212-58.287514 52.706794-72.673368 13.393727-15.874046 36.088652 15.874046 50.226475 15.874046 17.61027 0 59.527673-4.216544 75.525735 5.952768 16.99019 10.913407 8.061039 57.419402 22.322878 77.882039 14.881918 21.454766 40.305196 25.051229 51.342618 55.187114 9.177183 25.051229 9.177183 31.624077 14.881919 61.139882 4.464576 23.066973 26.043357 51.59065 28.151629 76.765895 1.364176 20.462638-25.919341 66.348553-25.919341 87.679303z" fill="#95B758" /><path d="M1015.566913 648.603609c-2.604336 0-5.208671-0.62008-7.813007-1.86024-8.557103-4.34056-12.029551-14.757902-7.813007-23.315005 2.728352-5.580719 6.324815-12.649631 11.781518-17.238222l1.86024-7.440959c2.48032-9.921279 8.433087-19.966574 15.253966-31.500061 10.541359-17.858302 22.446894-38.072908 21.702798-58.287514-0.124016-4.588591-6.200799-15.005934-10.541359-22.570909-7.688991-13.393727-15.75003-27.159501-15.75003-41.545356 0-14.385854 8.681119-28.151629 17.858302-42.661499 9.053167-14.261838 19.222478-30.383917 19.098462-44.769771 0-8.929151-9.921279-22.694926-18.726414-34.848492-8.681119-12.029551-17.61027-24.431149-21.206734-37.204796-3.72048-13.393727-4.464576-19.718542-4.960639-23.935086-0.372048-3.596464-0.62008-4.712607-6.820879-16.742158-10.665375-20.214606-27.903597-36.212668-44.769772-51.714666-5.580719-5.208671-11.409471-10.541359-16.866174-15.998062-12.773647-12.773647-16.742158-24.431149-20.462637-35.592588-3.472448-10.541359-7.068911-21.454766-19.842558-37.948892-0.372048-0.372048-4.836623-3.596464-22.074846-3.844496-13.641759-0.248032-29.515805 1.488192-43.653627 2.976384-11.285455 1.24016-20.958702 2.232288-28.523677 2.232288-9.549231 0-22.198862-3.72048-38.32094-8.433088-11.781519-3.472448-25.175245-7.316943-36.584716-9.301199-14.013806-2.48032-18.354366-0.744096-18.974446-0.496063-12.649631 10.417343-32.368172 33.236284-52.706794 61.015865-6.076783 8.433087-13.021679 36.4607-17.982318 57.047354-4.712607 19.098462-9.053167 37.204796-14.137822 48.49025-7.564975 16.866174-21.206734 27.283517-33.236285 36.4607-13.641759 10.541359-22.198862 17.486254-24.555165 29.019741-2.48032 12.277583 3.72048 27.655565 10.417343 43.901659 6.696863 16.37011 14.385854 35.096524 14.385854 54.815066 0 8.061039-2.356304 16.37011-7.192927 25.423278-4.588591 8.433087-15.12995 11.657503-23.563037 7.068911-8.433087-4.588591-11.533487-15.12995-7.068912-23.563038 1.984256-3.72048 3.1004-6.696863 3.1004-8.929151 0-12.897663-5.704735-26.911469-11.781519-41.669371-8.309071-20.338622-16.99019-41.421339-12.277582-64.116265 5.084655-24.803197 23.066973-38.568972 37.452828-49.606395 10.045295-7.688991 18.726414-14.385854 22.694925-23.190989 3.844496-8.433087 8.061039-25.671309 12.029551-42.413467 6.944895-28.399661 13.517743-55.31113 23.687053-69.324937 10.665375-14.50987 37.576844-50.102459 59.03161-67.588712 19.718542-16.122078 53.946954-6.076783 87.059222 3.596463 10.665375 3.1004 23.935085 7.068911 28.523677 7.068911 5.704735 0 15.005934-0.992128 24.803197-1.984255 37.204796-3.968512 79.494247-8.309071 96.856486 14.137822 16.37011 21.206734 21.33075 36.212668 25.423277 48.242219 3.1004 9.301199 4.960639 15.005934 12.029551 21.950829 4.960639 4.960639 10.293327 9.921279 15.998062 15.129951 17.982318 16.618142 38.444956 35.592588 51.838682 60.891849 8.185055 15.501998 9.673247 20.09059 10.665375 28.895725 0.372048 3.472448 0.992128 7.937023 3.968512 18.602398 1.984256 6.944895 9.053167 16.742158 15.998062 26.291389 11.781519 16.37011 25.175245 34.972508 25.299261 55.063098 0.124016 24.555165-13.517743 46.133947-24.555165 63.496185-4.960639 7.813007-12.525615 19.718542-12.525615 24.059101 0 5.084655 6.324815 16.122078 11.037423 24.183118 7.316943 12.525615 14.757902 25.423277 15.253966 38.817003 0.992128 30.383917-14.261838 56.303258-26.539421 77.137944-4.960639 8.557103-10.169311 17.362238-11.533487 22.322878-2.356304 9.177183-3.472448 13.269711-4.464575 15.874046-2.108272 5.704735-5.580719 9.177183-9.301199 11.037423-0.62008 1.116144-1.488192 2.604336-2.48032 4.836623-2.976384 6.076783-9.177183 9.549231-15.501998 9.549231z m19.594526-16.866174z"  /><path d="M188.132251 209.463001C212.067337 203.386218 241.583142 223.228776 265.270195 225.709095c25.175245 2.728352 30.383917 30.011869 53.822938 41.049292 24.431149 11.657503 65.480441 15.005934 86.315127 34.724476 17.362238 16.37011 8.309071 45.141819 21.950829 66.224537 10.665375 16.494126 10.417343 32.864236 18.23035 51.838682 6.324815 15.253966-4.216544 32.864236 0 49.482379 3.72048 14.881918 62.752089 23.190989 64.364297 37.948892 2.108272 18.478382-24.059101 40.057164-24.927213 57.915465-1.364176 26.291389 14.633886 44.769771 7.316943 68.580841-24.803197 80.982439-82.470631 144.230592-160.35267 163.825118" fill="#8AA839" /><path d="M407.392515 463.943805c2.604336 14.881918 8.805135 31.500061 5.208672 45.761899-38.94102 154.895967-186.272012 126.000242-192.596827 104.669493-4.836623-16.246094-94.624198-28.027613-97.724597-45.885915-4.836623-27.655565-29.763837-47.126075-29.763837-73.913528 0-27.779581 24.555165-42.537483 29.143757-67.960761 3.72048-20.834686 0.868112-74.409592 7.440959-92.763958 6.820879-19.098462 41.793387-44.397723 51.342618-59.775705 10.541359-16.99019 16.618142-59.775705 30.011869-64.612329 16.742158-6.076783 37.204796 13.765774 53.698922 16.246094 17.486254 2.728352 21.082718 30.011869 37.328812 41.049292 16.99019 11.657503 10.417343 5.332687 24.803197 25.051229 12.029551 16.37011 17.61027 61.139881 27.035485 82.222599 7.316943 16.494126 54.194986 18.106334 59.65169 36.956764 4.464576 15.253966-8.433087 36.336684-5.58072 52.954826z" fill="#95B758" /><path d="M492.343466 650.959913c-1.736224 0-3.348432-0.248032-5.084655-0.744096-9.177183-2.852368-14.261838-12.525615-11.533487-21.702798 0.868112-2.976384-7.192927-11.905535-12.029551-17.238222-9.921279-11.037423-22.198862-24.555165-22.694925-42.785515-1.736224-0.868112-4.216544-1.984256-6.076784-2.728352-9.921279-4.216544-26.663437-11.409471-28.771708-30.507933-1.24016-10.417343 2.108272-21.33075 5.332687-31.872108 1.736224-5.828751 5.084655-16.618142 4.216544-19.966574-3.1004-12.649631 0.124016-23.563037 2.480319-31.624076 1.736224-5.828751 2.728352-9.549231 1.86024-11.781519-4.960639-12.029551-4.836623-25.671309-4.712607-37.824876 0.124016-9.549231 0.248032-20.462638-2.604336-24.927213-8.309071-12.897663-10.169311-26.787453-11.781519-38.94102-1.612208-12.029551-2.852368-19.594526-7.440959-24.059101-8.805135-8.309071-37.576844-14.013806-58.535546-18.106334-18.354366-3.596464-35.84062-6.944895-47.622138-12.649631-10.789391-5.084655-22.694926-15.501998-36.336684-27.407533-9.549231-8.309071-19.346494-16.866174-28.275645-23.066973-10.293327-7.192927-14.633886-7.813007-15.626015-7.937024-0.868112 0.372048-4.712607 2.232288-12.277582 11.161439-6.448831 7.564975-13.021679 16.866174-19.47051 26.043357-6.200799 8.805135-12.153567 17.238222-17.486254 23.315006-7.192927 7.937023-19.346494 16.246094-33.608333 25.795325-13.641759 9.177183-34.228412 23.066973-37.948891 30.383917-3.72048 7.192927-4.712607 31.128013-5.332688 46.878042-0.62008 16.246094-1.24016 31.624077-3.968511 42.289452-3.472448 13.269711-9.797263 23.439021-15.501999 32.368172-6.696863 10.541359-11.409471 18.23035-11.40947 29.267773 0 11.285455 5.828751 22.322878 12.525614 35.096524 5.580719 10.665375 11.905535 22.694926 15.253966 36.4607 1.612208 5.456703 15.874046 19.47051 24.307134 27.903597 12.773647 12.649631 23.687053 23.439021 28.275645 33.980381 3.72048 8.805135-0.372048 18.974446-9.177183 22.818941-8.805135 3.72048-18.974446-0.372048-22.818942-9.177183-1.86024-4.34056-13.145695-15.501998-20.71067-22.942957-15.377982-15.253966-30.011869-29.639821-33.608332-44.149692-2.48032-9.797263-7.316943-18.974446-12.401598-28.771708-8.061039-15.501998-16.37011-31.376045-16.494127-51.218603 0-21.082718 8.929151-35.344556 16.742159-47.870171 4.960639-7.813007 9.177183-14.50987 11.285454-22.694925 1.86024-6.944895 2.356304-21.206734 2.976384-34.848492 0.992128-24.431149 1.86024-47.374107 9.177183-61.51193 7.813007-15.12995 28.027613-28.771709 49.358363-43.281579 10.665375-7.192927 22.818942-15.377982 27.159501-20.214606 4.092528-4.464576 9.301199-12.029551 15.005934-20.090589 15.874046-22.57091 32.368172-46.009931 51.838682-50.846555 23.935085-6.076783 49.854427 16.618142 75.029672 38.444956 10.789391 9.425215 22.074846 19.222478 28.523677 22.322877 7.813007 3.72048 23.811069 6.820879 39.313068 9.797263 29.267773 5.704735 59.651689 11.657503 75.773767 26.911469 13.88979 13.145695 16.122078 30.631949 18.106334 44.645756 1.24016 9.425215 2.48032 18.354366 6.572848 24.679181 8.557103 13.269711 8.309071 29.639821 8.185055 44.149691-0.124016 9.177183-0.248032 18.726414 2.108272 24.183117 5.580719 13.641759 1.984256 25.919341-0.744096 34.972509-1.86024 6.200799-2.976384 10.045295-2.108272 13.26971 3.1004 12.649631-0.992128 26.415405-4.712608 38.444956-1.612208 5.456703-3.844496 12.773647-4.092527 16.618142 1.86024 1.24016 5.580719 2.852368 8.061039 3.844496 9.797263 4.216544 28.151629 12.029551 27.159501 33.112268-0.248032 5.580719 7.192927 13.765774 13.765774 21.082718 11.037423 12.153567 26.167373 28.895725 19.47051 50.722538-2.604336 7.688991-9.425215 12.525615-16.866174 12.525615z"  /><path d="M223.476808 320.829357s21.95083 52.954826 21.206733 120.543539" fill="#FFFFFF" /><path d="M244.807557 458.611118h-0.248032c-9.549231-0.124016-17.238222-7.937023-17.114206-17.61027 0.744096-63.248153-19.718542-113.226596-19.966574-113.72266-3.72048-8.805135 0.496064-18.974446 9.425215-22.694925 8.805135-3.72048 18.974446 0.496064 22.694926 9.425215 0.992128 2.356304 23.315005 57.047354 22.570909 127.364418-0.124016 9.673247-7.937023 17.238222-17.362238 17.238222z"  /><path d="M135.301441 424.506722s47.870171 15.501998 80.486375 33.732348" fill="#FFFFFF" /><path d="M215.787816 475.477292c-2.852368 0-5.704735-0.744096-8.433087-2.232288-30.755965-17.114206-77.013928-32.244156-77.385975-32.368172-9.177183-2.976384-14.137822-12.773647-11.161439-21.826814 2.976384-9.177183 12.773647-14.137822 21.826814-11.161439 1.984256 0.62008 49.854427 16.246094 83.586774 35.096525 8.433087 4.712607 11.409471 15.253966 6.696864 23.563037-3.1004 5.704735-8.929151 8.929151-15.129951 8.929151z"  /><path d="M467.540269 123.147875s8.557103 128.23253 4.092527 342.408138" fill="#FFFFFF" /><path d="M471.632796 482.794235h-0.372048c-9.549231-0.248032-17.238222-8.185055-16.99019-17.734286 4.464576-210.703161-3.968512-339.555771-4.092527-340.795931-0.62008-9.549231 6.572847-17.858302 16.122078-18.478382s17.858302 6.572847 18.478382 16.122079c0.124016 1.24016 8.557103 131.456946 4.092528 343.89633 0 9.549231-7.813007 16.99019-17.238223 16.99019z"  /><path d="M486.886763 353.693593l65.480441-32.864236" fill="#FFFFFF" /><path d="M486.886763 371.055831c-6.324815 0-12.525615-3.472448-15.501999-9.549231-4.34056-8.557103-0.868112-18.974446 7.688992-23.315005l65.48044-32.988252c8.557103-4.34056 18.974446-0.868112 23.315006 7.688991s0.868112 18.974446-7.688991 23.315005l-65.480441 32.988253c-2.48032 1.24016-5.208671 1.86024-7.813007 1.860239z"  /><path d="M352.949497 182.675548s71.433208 65.108393 99.956885 66.968633" fill="#FFFFFF" /><path d="M452.906382 267.006419h-1.116143c-9.921279-0.62008-27.903597-5.208671-70.069033-37.70086-21.702798-16.742158-39.5611-32.988252-40.429211-33.732348-7.068911-6.448831-7.564975-17.486254-1.116144-24.555166 6.448831-7.068911 17.486254-7.564975 24.555165-1.116144 0.124016 0.124016 17.734286 16.122078 38.32094 31.996125 37.452828 28.771709 49.730411 30.383917 50.97057 30.507933 9.549231 0.62008 16.866174 8.929151 16.246095 18.478382-0.744096 9.053167-8.309071 16.122078-17.362239 16.122078z"  /><path d="M789.981834 179.947196s44.769771 32.616204 94.376165 176.970813" fill="#FFFFFF" /><path d="M884.233983 374.280247c-7.192927 0-13.88979-4.588591-16.37011-11.781519-46.257963-134.805377-87.927334-168.41371-88.299382-168.785757l0.248032 0.124016 20.462637-28.027613c5.084655 3.72048 50.722538 40.057164 100.576965 185.4039 3.1004 9.053167-1.736224 18.974446-10.78939 22.074845-1.984256 0.744096-3.968512 0.992128-5.828752 0.992128z"  /><path d="M681.839893 333.10694l166.925518 86.439142" fill="#FFFFFF" /><path d="M848.765411 436.90832c-2.728352 0-5.456703-0.62008-7.937023-1.984256L673.778854 348.484922c-8.557103-4.464576-11.781519-14.881918-7.440959-23.439022 4.464576-8.557103 14.881918-11.781519 23.439022-7.440959l166.925517 86.563159c8.557103 4.464576 11.781519 14.881918 7.440959 23.439021-3.1004 5.952767-9.177183 9.301199-15.377982 9.301199z"  /><path d="M928.135642 394.866901l66.968633-47.002059" fill="#FFFFFF" /><path d="M928.259658 412.229139c-5.456703 0-10.789391-2.604336-14.261838-7.316943-5.456703-7.813007-3.596464-18.726414 4.216544-24.183118l66.844616-47.002059c7.813007-5.456703 18.726414-3.596464 24.183118 4.216544s3.596464 18.726414-4.216544 24.183117l-66.844617 47.002059c-2.976384 2.108272-6.572847 3.1004-9.921279 3.1004z"  /><path d="M743.103791 509.705704c51.218602 0 92.887974 41.793387 92.887974 93.260022s-41.545355 93.260022-92.887974 93.260022" fill="#F7B42F" /><path d="M733.182512 521.239191c-51.218602 0-92.887974 41.793387-92.887974 93.260022s41.545355 93.260022 92.887974 93.260022" fill="#FFFFFF" /><path d="M793.082233 602.965726c0 41.173307-22.446894 74.657624-50.102458 74.657624s-50.102459-33.3603-50.102459-74.657624 22.446894-82.098583 50.102459-82.098583 50.102459 40.925276 50.102458 82.098583z" fill="#FFCE61" /><path d="M847.401235 638.68233l-32.864236-11.161439c2.728352-7.813007 3.968512-16.122078 3.968511-24.555165 0-41.793387-33.856364-75.897784-75.525735-75.897784s-75.525736 33.98038-75.525736 75.897784c0 8.309071 1.364176 16.37011 3.844496 24.059101l-32.988253 10.913407c-3.72048-11.285455-5.704735-23.066973-5.704735-35.096524 0-61.015865 49.482379-110.62226 110.250212-110.62226s110.250212 49.606395 110.250212 110.62226c0.124016 12.277583-1.86024 24.307133-5.704736 35.84062z"  /><path d="M879.149328 642.030762l41.297323 4.464575 33.980381-101.445077-32.120141-183.915707-33.236284-3.596464" fill="#678767" /><path d="M885.350127 643.146906l25.919341-102.437205-26.167373-181.807436-53.078842-7.688991 14.261838 176.970812-30.631948 106.777765z" fill="#8FAA8F" /><path d="M825.32639 649.223689c-2.108272 0-4.216544-0.372048-6.324816-1.116144-8.929151-3.472448-13.393727-13.517743-9.921278-22.446893l37.576843-97.104518-31.748092-174.118445c-0.992128-5.456703 0.62008-10.913407 4.340559-15.005934s9.177183-6.076783 14.633887-5.456704l90.283638 9.921279c7.688991 0.868112 13.88979 6.696863 15.253966 14.261839l32.120141 183.915708c0.496064 2.852368 0.248032 5.704735-0.62008 8.557103l-28.771709 86.19111c-3.1004 9.053167-12.897663 14.013806-21.95083 10.913407-9.053167-3.1004-14.013806-12.897663-10.913406-21.950829l27.407533-81.974567L907.424973 377.008599l-54.194986-5.952768L881.753664 527.067942c0.62008 3.1004 0.248032 6.448831-0.868112 9.425215l-39.313068 101.693109c-2.728352 6.820879-9.301199 11.037423-16.246094 11.037423z"  /><path d="M559.808163 433.311857c-54.939082 0-99.460821 44.769771-99.460821 99.832869s44.521739 99.832869 99.460821 99.832869" fill="#FFFFFF" /><path d="M552.243188 433.311857c54.939082 0 99.460821 44.769771 99.460821 99.832869s-44.521739 99.832869-99.460821 99.832869" fill="#FF2929" /><path d="M602.097614 531.904566c0 46.381979-22.322878 84.082839-49.854426 84.082839-27.531549 0-49.854427-37.70086-49.854427-84.082839s22.322878-80.610391 49.854427-80.610391c27.531549-0.124016 49.854427 34.104396 49.854426 80.610391z" fill="#FF6464" /><path d="M552.243188 650.463849c-64.364297 0-116.823059-52.582778-116.82306-117.195107s52.458762-117.195107 116.82306-117.195108 116.823059 52.582778 116.823059 117.195108-52.334746 117.195107-116.823059 117.195107z m0-199.789754c-45.265835 0-82.098583 36.956764-82.098583 82.470631s36.832748 82.470631 82.098583 82.470631 82.098583-36.956764 82.098583-82.470631-36.832748-82.470631-82.098583-82.470631z"  /><path d="M250.388277 662.741432c28.895725-3.844496 57.419402-13.88979 83.71079-30.507933 98.220661-62.007993 127.860482-192.100763 66.224537-290.569456l-161.716846 102.065156" fill="#FFC840" /><path d="M306.691534 592.548383c69.945016-50.102459 91.027734-142.866416 47.126075-222.360663L99.336805 540.461669c43.901659 79.494247 137.409713 102.189173 207.354729 52.086714z" fill="#FFEC64" /><path d="M334.223083 649.595737c-5.704735 0-11.409471-2.852368-14.757902-8.061039-5.084655-8.061039-2.728352-18.85043 5.456703-23.935086 84.950951-53.698922 113.970692-163.45307 69.324937-251.50442l-324.921885 205.122442c13.517743 17.982318 30.011869 33.236284 48.986315 45.389851 8.061039 5.208671 10.417343 15.998062 5.208671 24.059101-5.208671 8.061039-15.998062 10.417343-24.059101 5.208671-28.151629-18.23035-51.466634-41.917403-69.448952-70.44108-5.084655-8.061039-2.604336-18.726414 5.456703-23.935085l355.553833-224.468936c3.844496-2.48032 8.681119-3.224416 13.145695-2.232288 4.464576 0.992128 8.433087 3.844496 10.913407 7.688992 66.596585 106.405716 34.476444 247.535909-71.681241 314.504541-2.852368 1.736224-6.076783 2.604336-9.177183 2.604336z"  /><path d="M548.15066 1006.637762c293.173792 0 530.788422-167.297566 530.788422-373.536151H548.15066" fill="#D3D3D3" /><path d="M548.15066 1006.637762c238.358726 0 431.575633-167.297566 431.575633-373.536151H116.575027c0 206.238585 193.216907 373.536151 431.575633 373.536151z" fill="#E8E8E8" /><path d="M548.15066 1024c-145.346736 0-282.136369-39.933148-385.31767-112.606516-50.722538-35.716604-90.655686-77.385976-118.683299-124.015986C14.881918 738.639215 0 686.676517 0 633.101611c0-9.549231 7.813007-17.362238 17.362238-17.362238h1061.576844c9.549231 0 17.362238 7.813007 17.362238 17.362238 0 53.574906-14.881918 105.537604-44.149691 154.399903-28.027613 46.630011-67.960761 88.299382-118.683299 124.015986-103.181301 72.425336-239.970934 112.4825-385.31767 112.4825zM35.344556 650.463849c13.145695 188.380283 238.110694 338.811675 512.806104 338.811675s499.660409-150.431392 512.806104-338.811675h-1025.612208z"  /></svg>