<?xml version="1.0" standalone="no"?><!DOCTYPE svg PUBLIC "-//W3C//DTD SVG 1.1//EN" "http://www.w3.org/Graphics/SVG/1.1/DTD/svg11.dtd"><svg class="icon" width="200px" height="200.00px" viewBox="0 0 1024 1024" version="1.1" xmlns="http://www.w3.org/2000/svg"><path fill="#ffffff" d="M896.952 260.602h-12.35a61.619 61.619 0 0 0-21.638 3.906v-10.927c0-45.404-36.939-82.342-82.342-82.342h-2.059c-45.403 0-82.342 36.938-82.342 82.342V464.4H327.734V253.58c0-45.404-36.938-82.342-82.342-82.342h-2.059c-45.404 0-82.342 36.938-82.342 82.342v10.91a61.612 61.612 0 0 0-21.592-3.889h-12.351c-34.108 0-61.758 27.65-61.758 61.758v405.538c0 34.108 27.65 61.758 61.758 61.758h12.35c7.598 0 14.87-1.38 21.593-3.889v15.396c0 45.403 36.938 82.342 82.342 82.342h2.059c45.404 0 82.342-36.94 82.342-82.342v-209.13H696.22v209.13c0 45.403 36.939 82.342 82.342 82.342h2.059c45.403 0 82.342-36.94 82.342-82.342v-15.413a61.6 61.6 0 0 0 21.637 3.906h12.351c34.108 0 61.758-27.65 61.758-61.758V322.36c0.001-34.108-27.649-61.757-61.756-61.757zM159.985 727.897c0 11.37-9.217 20.586-20.586 20.586h-12.351c-11.37 0-20.586-9.217-20.586-20.586V322.36c0-11.37 9.217-20.586 20.586-20.586h12.35c11.37 0 20.587 9.217 20.587 20.586v405.538z m85.407 114.435h-2.059c-22.702 0-41.172-18.468-41.172-41.171V253.58c0-22.703 18.47-41.172 41.172-41.172h2.059c22.7 0 41.172 18.47 41.172 41.171v547.58c0 22.704-18.47 41.172-41.172 41.172z m449.82-291.472H327.735v-45.288h367.478v45.288z m126.58 250.3c0 22.703-18.469 41.172-41.172 41.172h-2.059c-22.702 0-41.172-18.468-41.172-41.171V253.58c0-22.703 18.469-41.172 41.172-41.172h2.059c22.702 0 41.172 18.47 41.172 41.171v547.58z m95.746-73.263c0 11.37-9.217 20.586-20.586 20.586h-12.35c-11.37 0-20.587-9.217-20.587-20.586V322.36c0-11.37 9.217-20.586 20.586-20.586h12.351c11.37 0 20.586 9.217 20.586 20.586v405.538z" /></svg>