<?xml version="1.0" encoding="utf-8"?>
<!-- Generator: Adobe Illustrator 17.0.0, SVG Export Plug-In . SVG Version: 6.00 Build 0)  -->
<!DOCTYPE svg PUBLIC "-//W3C//DTD SVG 1.1//EN" "http://www.w3.org/Graphics/SVG/1.1/DTD/svg11.dtd">
<svg version="1.1" id="图层_1" xmlns="http://www.w3.org/2000/svg" xmlns:xlink="http://www.w3.org/1999/xlink" x="0px" y="0px"
	 width="1280px" height="800px" viewBox="0 0 1280 800" enable-background="new 0 0 1280 800" xml:space="preserve">
<rect x="-3" width="2000" height="2000"/>
<text transform="matrix(1 0 0 1 111.5 71)" fill="#FFFFFF" font-family="'MicrosoftYaHei-Bold'" font-size="18">Welcome to Burger Tour!</text>
<text transform="matrix(1 0 0 1 782 71)" fill="#FFFFFF" font-family="'MicrosoftYaHei-Bold'" font-size="18">Burger Health Center</text>
<text transform="matrix(1 0 0 1 151 106.5)" fill="#FFFFFF" font-family="'MicrosoftYaHei-Bold'" font-size="15">Group name: Jings’</text>
<text transform="matrix(1 0 0 1 31.5 143.5)" fill="#FFFFFF" font-family="'MicrosoftYaHei-Bold'" font-size="15">Group members:</text>
<text transform="matrix(1 0 0 1 59.1963 174)"><tspan x="0" y="0" fill="#FFFFFF" font-family="'MicrosoftYaHei-Bold'" font-size="15">Jing Ouyang</tspan><tspan x="-8.463" y="18" fill="#FFFFFF" font-family="'MicrosoftYaHei-Bold'" font-size="15">jingo@usc.edu</tspan></text>
<text transform="matrix(1 0 0 1 200.1685 174)"><tspan x="0" y="0" fill="#FFFFFF" font-family="'MicrosoftYaHei-Bold'" font-size="15">Jing Zhou</tspan><tspan x="-19.925" y="18" fill="#FFFFFF" font-family="'MicrosoftYaHei-Bold'" font-size="15">jzhou@usc.edu</tspan></text>
<text transform="matrix(1 0 0 1 335.3711 174)"><tspan x="0" y="0" fill="#FFFFFF" font-family="'MicrosoftYaHei-Bold'" font-size="15">Tong Wu</tspan><tspan x="-30.11" y="18" fill="#FFFFFF" font-family="'MicrosoftYaHei-Bold'" font-size="15">twu665@usc.edu</tspan></text>
<path fill="#FFFFFF" d="M85,353.511h101.46v17.158h-3.107c-1.801,0-2.972-0.473-3.513-1.419c-0.54-0.946-0.991-2.004-1.351-3.175
	c-0.36-1.171-0.923-2.252-1.689-3.242s-2.229-1.576-4.391-1.756c-2.162-0.09-4.121,0.293-5.877,1.148
	c-1.756,0.856-3.445,1.824-5.066,2.905c-1.621,1.081-3.22,2.094-4.796,3.04s-3.265,1.419-5.066,1.419s-3.152-0.405-4.053-1.216
	c-0.901-0.811-1.734-1.689-2.499-2.634s-1.644-1.824-2.634-2.634s-2.432-1.216-4.323-1.216c-1.891,0-3.783,0.315-5.674,0.946
	s-3.738,1.328-5.539,2.094s-3.603,1.464-5.404,2.094c-1.801,0.63-3.558,0.946-5.269,0.946c-1.801,0-3.332-0.225-4.593-0.676
	c-1.261-0.45-2.544-0.968-3.85-1.554c-1.306-0.585-2.702-1.148-4.188-1.689c-1.486-0.54-3.355-0.901-5.607-1.081
	c-2.522-0.18-4.909,0.158-7.16,1.013c-2.252,0.856-4.188,1.824-5.809,2.905V353.511L85,353.511z M85,395.797h101.46v16.887H85
	V395.797z M171.464,370.669c1.531-0.09,2.702,0.225,3.513,0.946c0.811,0.721,1.599,1.576,2.364,2.567
	c0.766,0.991,1.599,1.891,2.499,2.702c0.901,0.811,2.162,1.216,3.783,1.216h2.837v9.187H85v-10.538
	c1.171-1.081,2.815-2.229,4.931-3.445c2.117-1.216,4.526-1.824,7.228-1.824c1.981,0,3.558,0.315,4.728,0.946
	s2.297,1.328,3.377,2.094s2.319,1.464,3.715,2.094c1.396,0.63,3.355,0.946,5.877,0.946s4.796-0.293,6.823-0.878
	c2.026-0.585,3.918-1.261,5.674-2.026s3.377-1.441,4.864-2.026c1.486-0.585,2.905-0.878,4.256-0.878c2.162,0,3.648,0.36,4.458,1.081
	c0.811,0.721,1.554,1.486,2.229,2.297c0.675,0.811,1.509,1.576,2.499,2.297c0.991,0.721,2.702,1.081,5.134,1.081
	c2.432,0,4.593-0.383,6.485-1.148s3.625-1.621,5.201-2.567c1.576-0.946,3.085-1.824,4.526-2.634
	C168.446,371.344,169.932,370.849,171.464,370.669L171.464,370.669z M186.46,345H85v-8.511c0.721-3.783,2.567-7.25,5.539-10.403
	s6.755-5.877,11.348-8.173c4.593-2.297,9.795-4.076,15.604-5.336c5.809-1.261,11.911-1.891,18.306-1.891
	c6.485,0,12.632,0.63,18.441,1.891c5.809,1.261,10.966,3.04,15.469,5.336c4.503,2.297,8.241,5.021,11.213,8.173
	c2.972,3.152,4.819,6.62,5.539,10.403V345z M113.911,327.977c1.171,0,2.162-0.405,2.972-1.216c0.811-0.811,1.216-1.801,1.216-2.972
	s-0.405-2.162-1.216-2.972c-0.811-0.811-1.801-1.216-2.972-1.216c-1.171,0-2.162,0.405-2.972,1.216
	c-0.811,0.811-1.216,1.801-1.216,2.972s0.405,2.162,1.216,2.972C111.75,327.572,112.74,327.977,113.911,327.977z M139.175,319.601
	c1.261,0,2.274-0.405,3.04-1.216c0.766-0.811,1.148-1.801,1.148-2.972s-0.383-2.162-1.148-2.972
	c-0.766-0.811-1.779-1.216-3.04-1.216c-1.171,0-2.139,0.405-2.905,1.216c-0.766,0.811-1.148,1.801-1.148,2.972
	s0.383,2.162,1.148,2.972C137.036,319.196,138.004,319.601,139.175,319.601z M156.197,327.977c1.171,0,2.162-0.405,2.972-1.216
	c0.811-0.811,1.216-1.801,1.216-2.972s-0.405-2.162-1.216-2.972c-0.811-0.811-1.801-1.216-2.972-1.216
	c-1.171,0-2.162,0.405-2.972,1.216c-0.811,0.811-1.216,1.801-1.216,2.972s0.405,2.162,1.216,2.972
	C154.036,327.572,155.027,327.977,156.197,327.977z"/>
<text transform="matrix(1 0 0 1 25.6748 53.5)" fill="#FFFFFF" font-family="'MicrosoftYaHei-Bold'" font-size="27">1</text>
<text transform="matrix(1 0 0 1 707.3714 36.8332)" fill="#FFFFFF" font-family="'MicrosoftYaHei-Bold'" font-size="27">Part two</text>
<text transform="matrix(1 0 0 1 25.6748 280)" fill="#FFFFFF" font-family="'MicrosoftYaHei-Bold'" font-size="27">2</text>
<text transform="matrix(1 0 0 1 23.1748 497)" fill="#FFFFFF" font-family="'MicrosoftYaHei-Bold'" font-size="27">3</text>
<text transform="matrix(1 0 0 1 23.1748 691.6667)" fill="#FFFFFF" font-family="'MicrosoftYaHei-Bold'" font-size="27">4</text>
<path fill="#FFFFFF" d="M267.831,366.647h-14.978v-14.531c0-0.671-0.671-1.565-1.565-1.565c-0.894,0-1.565,0.894-1.565,1.788v14.531
	h-14.531c-0.894-0.224-1.788,0.671-1.788,1.565s0.894,1.565,1.565,1.565H249.5v14.531c0.224,0.894,0.894,1.788,1.788,1.788
	c0.894,0,1.565-0.894,1.565-1.565V370h14.754c0.894,0,1.565-0.894,1.565-1.565S268.725,366.647,267.831,366.647L267.831,366.647z"/>
<path fill="#FFFFFF" d="M238.71,556.034h-14.978v-14.531c0-0.671-0.671-1.565-1.565-1.565s-1.565,0.894-1.565,1.788v14.531h-14.531
	c-0.894-0.224-1.788,0.671-1.788,1.565c0,0.894,0.894,1.565,1.565,1.565h14.531v14.531c0.224,0.894,0.894,1.788,1.788,1.788
	s1.565-0.894,1.565-1.565v-14.754h14.754c0.894,0,1.565-0.894,1.565-1.565S239.604,556.034,238.71,556.034L238.71,556.034z"/>
<path fill="#FFFFFF" d="M238.71,754.277h-14.978v-14.531c0-0.671-0.671-1.565-1.565-1.565s-1.565,0.894-1.565,1.788v14.531h-14.531
	c-0.894-0.224-1.788,0.671-1.788,1.565s0.894,1.565,1.565,1.565h14.531v14.531c0.224,0.894,0.894,1.788,1.788,1.788
	s1.565-0.894,1.565-1.565v-14.754h14.754c0.894,0,1.565-0.894,1.565-1.565S239.604,754.277,238.71,754.277L238.71,754.277z"/>
<path fill="#FFFFFF" d="M420.331,754.277h-14.978v-14.531c0-0.671-0.671-1.565-1.565-1.565c-0.894,0-1.565,0.894-1.565,1.788v14.531
	h-14.531c-0.894-0.224-1.788,0.671-1.788,1.565s0.894,1.565,1.565,1.565H402v14.531c0.224,0.894,0.894,1.788,1.788,1.788
	s1.565-0.894,1.565-1.565v-14.754h14.754c0.894,0,1.565-0.894,1.565-1.565S421.225,754.277,420.331,754.277L420.331,754.277z"/>
<path fill="#FFFFFF" d="M420.331,556.034h-14.978v-14.531c0-0.671-0.671-1.565-1.565-1.565c-0.894,0-1.565,0.894-1.565,1.788v14.531
	h-14.531c-0.894-0.224-1.788,0.671-1.788,1.565c0,0.894,0.894,1.565,1.565,1.565H402v14.531c0.224,0.894,0.894,1.788,1.788,1.788
	c0.894,0,1.565-0.894,1.565-1.565v-14.754h14.754c0.894,0,1.565-0.894,1.565-1.565S421.225,556.034,420.331,556.034L420.331,556.034
	z"/>
<path fill="#FFFFFF" d="M375.509,416.158c-3.528,0-6.989-1.987-10.261-5.894l-35.082-37.191l-0.014-0.014
	c-5.664-6.273-8.49-14.6-7.963-23.455c0.514-8.476,4.15-16.453,9.963-21.928c4.34-4.651,10.112-7.057,16.696-6.962
	c8.909,0.135,18.575,4.934,25.24,12.546l1.203,1.379l1.203-1.379c6.651-7.598,15.844-12.275,24.577-12.532
	c6.678-0.189,12.667,2.204,17.331,6.922c3.082,2.893,5.637,6.557,7.395,10.599c1.73,3.988,2.717,8.382,2.839,12.721
	c0.243,8.436-2.69,16.304-8.26,22.144l-34.987,37.109c-2.934,3.853-6.178,5.854-9.652,5.935H375.509z M333.546,369.951
	l35.136,37.245l0.041,0.054c1.636,1.974,4.137,4.299,6.786,4.299h0.108c2.028-0.054,4.11-1.474,6.165-4.204l0.081-0.108
	l35.19-37.312c4.718-4.948,7.206-11.64,7.003-18.845c-0.108-3.745-0.96-7.557-2.46-11.004c-1.514-3.488-3.718-6.638-6.354-9.112
	l-0.068-0.068c-3.745-3.812-8.571-5.746-13.952-5.583c-3.677,0.108-7.584,1.19-11.315,3.123c-3.691,1.92-7.124,4.623-9.936,7.841
	l-4.664,5.326l-4.664-5.326c-5.84-6.651-14.208-10.856-21.847-10.964c-5.272-0.068-9.882,1.839-13.316,5.543l-0.122,0.122
	c-5.002,4.678-8.125,11.572-8.571,18.899C326.327,357.486,328.733,364.611,333.546,369.951L333.546,369.951z"/>
<path fill="#FFFFFF" d="M395.003,369.653h-39.34c-1.271,0-2.298-1.027-2.298-2.298s1.027-2.298,2.298-2.298h39.34
	c1.271,0,2.298,1.027,2.298,2.298S396.274,369.653,395.003,369.653z"/>
<path fill="#FFFFFF" d="M375.265,391.419c-1.271,0-2.298-1.027-2.298-2.298v-39.34c0-1.271,1.027-2.298,2.298-2.298
	s2.298,1.027,2.298,2.298v39.34C377.563,390.391,376.536,391.419,375.265,391.419z"/>
<path fill="#FFFFFF" d="M171.843,608.031c-1.569-7.101-11.52-22.023-28.564-27.935c14.048-6.198,23.178-20.528,23.196-36.403
	c-0.026-21.829-17.036-39.519-38.021-39.547c-20.985,0.023-37.993,17.714-38.016,39.547c0.015,15.873,9.143,30.202,23.191,36.403
	c-17.039,5.912-26.992,20.832-28.559,27.938c-0.187,0.836,0.008,1.718,0.524,2.39c0.519,0.672,1.304,1.058,2.129,1.05
	c1.263,0.008,2.362-0.9,2.64-2.18c1.641-7.41,15.364-26.046,38.101-26.046c22.734,0,36.449,18.636,38.085,26.054
	c0.153,0.731,0.588,1.368,1.199,1.766c0.608,0.401,1.347,0.529,2.05,0.358C171.255,611.063,172.165,609.555,171.843,608.031
	L171.843,608.031z M95.864,543.701c0-0.148,0.02-0.286,0.02-0.435c4.463,3.402,11.438,6.186,18.963,6.101
	c6.431-0.092,15.403-2.28,23.176-11.704c6.032,8.448,13.488,12.936,22.187,13.473c-3.348,15.451-16.53,26.43-31.754,26.453
	c-17.99-0.015-32.569-15.178-32.59-33.888H95.864z"/>
<path fill="#FFFFFF" d="M303.986,518.081c-0.003,5.454,4.416,9.878,9.87,9.881s9.878-4.416,9.881-9.87c0-0.003,0-0.007,0-0.01
	c0-5.454-4.421-9.876-9.876-9.876C308.408,508.206,303.986,512.627,303.986,518.081z M345.048,564.081v-10.395
	c0-9.876-5.977-18.192-14.554-21.831c-2.599-1.04-5.458-1.559-8.576-1.559h-16.113c-3.379,0-6.497,0.78-9.096,2.079
	c-8.056,3.638-13.774,11.955-13.774,21.571v10.915c0,2.079,1.819,3.898,3.898,3.898c2.079,0,3.898-1.819,3.898-3.898v-10.395
	c0-2.079,0.52-4.158,1.299-5.718c0-0.26,0.26-0.52,0.52-0.78s0.52-0.26,0.78-0.26c0.52,0,1.04,0.52,1.04,1.04v0.78
	c-1.04,8.576-1.559,17.412-1.559,25.729c-0.26,16.373,3.638,25.209,7.017,33.006c0.26,0.52,0.52,1.04,0.52,1.559
	c1.04,1.559,2.599,2.859,4.418,3.119h1.819c3.119-0.26,5.458-2.859,5.718-5.977v-0.52v-0.78l-0.52-21.311
	c0-1.299,1.04-2.339,2.339-2.339s2.339,1.04,2.339,2.339l-1.04,20.011v1.559c0.26,3.119,2.599,5.718,5.977,5.977h0.52
	c0.52,0,0.78,0,1.299-0.26c2.079-0.52,3.898-1.819,4.678-3.638c0.26-0.52,0.26-1.04,0.52-1.819
	c3.379-11.435,7.277-18.452,6.757-32.226c0-7.537-0.78-16.893-2.079-26.508v-0.78c0-0.52,0.52-1.04,1.04-1.04
	c0.26,0,0.52,0,0.78,0.26s0.52,0.52,0.52,0.78c1.04,2.079,1.299,4.158,1.299,6.497l0.52,10.395v0.52
	c0.26,2.079,1.819,3.638,3.898,3.638c2.079,0,3.898-1.819,3.898-3.898V564.081L345.048,564.081z"/>
<path fill="#FFFFFF" d="M485.73,547.949c-4.892,0-8.858,3.965-8.858,8.858c0,4.89,3.966,8.858,8.858,8.858s8.858-3.968,8.858-8.858
	C494.588,551.913,490.621,547.949,485.73,547.949L485.73,547.949z M525.59,547.949c-4.892,0-8.858,3.965-8.858,8.858
	c0,4.89,3.966,8.858,8.858,8.858c4.892,0,8.858-3.968,8.858-8.858C534.448,551.913,530.482,547.949,525.59,547.949z M565.45,547.949
	c-4.892,0-8.858,3.965-8.858,8.858c0,4.89,3.966,8.858,8.858,8.858c4.892,0,8.858-3.968,8.858-8.858
	C574.308,551.913,570.342,547.949,565.45,547.949L565.45,547.949z"/>
<path fill="#FFFFFF" d="M160.085,758.436l-11.45,11.45c-0.492,0.492-1.292,0.492-1.784,0l-1.787-1.787
	c-0.492-0.492-0.492-1.293,0-1.785l7.729-7.724h-29.245v29.245l7.726-7.726c0.492-0.492,1.292-0.492,1.784,0l1.787,1.787
	c0.492,0.492,0.492,1.292,0,1.784l-11.449,11.449c-0.025-0.058-1.394,1.323-2.372,1.323c-0.979,0-2.267-1.381-2.37-1.325
	l-11.449-11.45c-0.492-0.492-0.492-1.292,0-1.784l1.787-1.787c0.492-0.492,1.292-0.492,1.784,0l7.724,7.729V758.59H89.255
	l7.727,7.726c0.492,0.492,0.492,1.292,0,1.784l-1.787,1.787c-0.492,0.492-1.293,0.492-1.785,0l-11.449-11.449
	c0.058-0.026-1.323-1.394-1.323-2.372c0-0.979,1.381-2.267,1.325-2.37l11.449-11.449c0.492-0.492,1.292-0.492,1.784,0l1.787,1.787
	c0.492,0.492,0.492,1.292,0,1.784l-7.729,7.724H118.5v-29.245l-7.726,7.727c-0.492,0.492-1.292,0.492-1.784,0l-1.787-1.787
	c-0.492-0.492-0.492-1.293,0-1.785l11.449-11.449c0.025,0.058,1.394-1.323,2.373-1.323c0.979,0,2.267,1.381,2.37,1.325l11.45,11.449
	c0.492,0.492,0.492,1.292,0,1.784l-1.787,1.787c-0.492,0.492-1.293,0.492-1.785,0l-7.724-7.729v29.245h29.245l-7.726-7.727
	c-0.492-0.492-0.492-1.292,0-1.784l1.787-1.787c0.492-0.492,1.292-0.492,1.784,0l11.449,11.449
	c-0.058,0.025,1.323,1.394,1.323,2.373C161.41,757.045,160.029,758.333,160.085,758.436z"/>
<path fill="#FFFFFF" d="M317.238,726.816v22.75c0,1.792,1.458,3.25,3.25,3.25h22.75c1.792,0,3.25-1.458,3.25-3.25v-22.75
	c0-1.792-1.458-3.25-3.25-3.25h-22.75C318.696,723.566,317.238,725.024,317.238,726.816z M284.738,752.816h22.75
	c1.792,0,3.25-1.458,3.25-3.25v-22.75c0-1.792-1.458-3.25-3.25-3.25h-22.75c-1.792,0-3.25,1.458-3.25,3.25v22.75
	C281.488,751.358,282.946,752.816,284.738,752.816z M284.738,788.566h22.75c1.792,0,3.25-1.458,3.25-3.25v-22.75
	c0-1.792-1.458-3.25-3.25-3.25h-22.75c-1.792,0-3.25,1.458-3.25,3.25v22.75C281.488,787.108,282.946,788.566,284.738,788.566
	L284.738,788.566z M341.127,769.109l1.161-1.161c1.175-1.175,1.175-3.09,0-4.266c-1.27-1.27-3.33-1.27-4.599,0l-0.994,0.994
	c-0.537-0.283-1.103-0.522-1.698-0.704v-1.407c0-1.792-1.458-3.25-3.25-3.25c-1.669,0-3.018,1.349-3.018,3.018v1.64
	c-0.602,0.189-1.182,0.435-1.734,0.725l-0.987-0.987c-1.27-1.27-3.33-1.27-4.599,0c-1.175,1.175-1.175,3.09,0,4.266l1.168,1.168
	c-0.283,0.544-0.515,1.11-0.696,1.698h-1.393c-1.792,0-3.25,1.458-3.25,3.25c0,1.669,1.349,3.018,3.018,3.018h1.654
	c0.181,0.573,0.413,1.132,0.689,1.661l-0.994,0.994c-1.27,1.27-1.27,3.33,0,4.599c1.175,1.175,3.09,1.175,4.266,0l1.161-1.161
	c0.537,0.283,1.103,0.522,1.698,0.704v1.639c0,1.669,1.349,3.018,3.018,3.018c1.792,0,3.25-1.458,3.25-3.25v-1.407
	c0.58-0.181,1.132-0.414,1.661-0.689l1.008,1.008c1.27,1.27,3.33,1.27,4.599,0c1.175-1.175,1.175-3.09,0-4.266l-1.153-1.153
	c0.283-0.537,0.522-1.103,0.711-1.69h1.654c1.669,0,3.018-1.349,3.018-3.018c0-1.792-1.458-3.25-3.25-3.25h-1.4
	C341.657,770.241,341.41,769.661,341.127,769.109L341.127,769.109z M336.296,778.373c-1.132,1.132-2.699,1.835-4.432,1.835
	c-1.727,0-3.294-0.704-4.432-1.835c-1.132-1.132-1.835-2.699-1.835-4.432c0-1.727,0.704-3.294,1.835-4.432
	c1.132-1.132,2.699-1.835,4.432-1.835c2.452,0,4.795,1.371,5.731,3.642C338.712,774.035,337.986,776.683,336.296,778.373
	L336.296,778.373z"/>
<path fill="#FFB651" d="M494.387,724.862h29.297v29.297h-29.297V724.862z"/>
<path fill="#00FF9B" d="M527.496,724.862h29.297v29.297h-29.297V724.862z"/>
<path fill="#6FCBFF" d="M527.496,757.972h29.297v29.297h-29.297V757.972z"/>
<path fill="#FF6E71" d="M494.387,757.972h29.297v29.297h-29.297V757.972z"/>
<path fill="#FFFFFF" d="M920.832,155.488c0,0-8.618,0.2-18.583,5.535c-0.21-0.295-3.009-11.827,3.23-20.803
	c-1.242,0.663-6.513,2.831-11.838,6.703c-2.241-2.778-5.167-12.921-1.915-19.509c-27.074,15.268-38.775,37.344-38.786,53.18
	c-0.011,12.332,3.157,31.662,33.809,31.662c11.617,0.21,17.215-2.999,21.15-6.282c4.651-3.609,9.281-13.29,6.471-22.002
	C908.131,163.075,920.832,155.488,920.832,155.488z M904.669,196.547c-1.968,3.346-11.48,7.46-19.519,7.302
	c-8.944,0.747-16.089-3.325-18.277-7.608c-6.093-11.932,2.694-19.666,2.21-18.783c-0.484,0.873-0.579,10.954,9.197,14.889
	c-6.008-7.292,2.883-22.497,10.712-25.717c-4.009,14.721,7.145,21.687,7.145,21.687s2.262,1.578,5.482-14.068
	C907.7,181.763,907.963,193.18,904.669,196.547z"/>
<path fill="#FFFFFF" d="M855.102,306.359h-89.264c-1.181,0-2.134-0.953-2.134-2.134c0-1.181,0.953-2.134,2.134-2.134h89.264
	c1.181,0,2.134,0.953,2.134,2.134C857.236,305.405,856.269,306.359,855.102,306.359z"/>
<path fill="#FFFFFF" d="M819.433,336.208h-17.827c-10.087,0-19.62-3.884-26.848-10.913c-7.242-7.057-11.325-16.49-11.468-26.563
	v-6.018c0-1.181,0.953-2.134,2.134-2.134h90.203c1.181,0,2.134,0.953,2.134,2.134v6.018c-0.156,10.059-4.226,19.492-11.468,26.563
	C839.053,332.324,829.521,336.208,819.433,336.208z M767.545,294.848v3.813c0.285,18.354,15.551,33.279,34.061,33.279h17.827
	c18.496,0,33.776-14.925,34.047-33.279v-3.813C853.48,294.848,767.545,294.848,767.545,294.848z"/>
<path fill="#FFFFFF" d="M771.927,294.649c-0.925,0-1.764-0.598-2.049-1.522c-1.921-6.502-0.142-13.516,4.652-18.311
	c0.839-0.839,2.191-0.839,3.016,0l15.551,15.551c0.839,0.839,0.839,2.191,0,3.016c-0.839,0.839-2.191,0.839-3.016,0l-13.929-13.929
	c-2.618,3.543-3.457,8.152-2.177,12.449c0.341,1.124-0.313,2.319-1.437,2.646C772.325,294.621,772.126,294.649,771.927,294.649z"/>
<path fill="#FFFFFF" d="M781.018,294.422c-0.64,0-1.281-0.285-1.707-0.839c-1.608-2.106-2.447-4.624-2.447-7.285
	c0-2.063,0.526-4.098,1.537-5.876c0.583-1.024,1.878-1.394,2.902-0.811c1.024,0.583,1.394,1.878,0.811,2.902
	c-0.64,1.152-0.982,2.461-0.982,3.799c0,1.707,0.541,3.344,1.579,4.695c0.711,0.939,0.526,2.276-0.413,2.988
	C781.915,294.279,781.46,294.422,781.018,294.422z M793.084,294.436c-0.142,0-0.285-0.014-0.427-0.043
	c-1.152-0.242-1.906-1.366-1.665-2.518c1.124-5.549,6.061-9.561,11.724-9.561c5.435,0,10.187,3.656,11.567,8.907
	c0.299,1.138-0.384,2.305-1.522,2.604c-1.138,0.299-2.305-0.384-2.604-1.522c-0.882-3.372-3.941-5.72-7.441-5.72
	c-3.642,0-6.815,2.589-7.541,6.146C794.962,293.739,794.079,294.436,793.084,294.436z"/>
<path fill="#FFFFFF" d="M787.449,287.92c-1.181,0-2.134-0.953-2.134-2.134c0-6.915,3.785-13.274,9.86-16.589
	c0.64-0.341,1.409-0.341,2.049,0c5.463,2.974,9.106,8.423,9.76,14.598c0.128,1.167-0.726,2.22-1.892,2.348s-2.219-0.726-2.348-1.892
	c-0.455-4.368-2.874-8.281-6.531-10.685c-4.112,2.689-6.616,7.27-6.616,12.236C789.584,286.966,788.63,287.92,787.449,287.92z
	 M825.864,294.009c-0.085,0-0.171,0-0.256-0.014c-1.167-0.142-2.006-1.209-1.864-2.376c0.484-3.955-0.654-7.896-3.159-10.984
	c-3.756,1.039-6.943,3.514-8.85,6.929c-0.583,1.024-1.878,1.394-2.902,0.811s-1.394-1.878-0.811-2.902
	c2.732-4.866,7.441-8.252,12.933-9.305c0.711-0.142,1.451,0.1,1.949,0.626c3.927,4.112,5.791,9.703,5.094,15.337
	C827.842,293.212,826.931,294.009,825.864,294.009z"/>
<path fill="#FFFFFF" d="M847.561,294.052c-0.071,0-0.142,0-0.213-0.014c-1.167-0.114-2.035-1.167-1.921-2.333
	c0.085-0.868-0.213-1.75-0.825-2.39c-0.512-0.541-0.711-1.309-0.512-2.035c0.199-0.726,0.754-1.28,1.48-1.494
	c1.039-0.285,1.821-1.081,2.106-2.12c0.213-0.783,0.114-1.594-0.285-2.305c-0.398-0.711-1.053-1.209-1.835-1.423
	c-0.583-0.156-1.181-0.142-1.75,0.043c-0.797,0.256-1.665,0.043-2.219-0.569c-0.569-0.612-0.726-1.494-0.427-2.262
	c0.071-0.185,0.128-0.356,0.171-0.512c0.683-2.476-0.783-5.037-3.244-5.705c-2.433-0.669-4.994,0.768-5.691,3.187
	c-0.199,0.683-0.711,1.224-1.38,1.437s-1.409,0.1-1.963-0.341c-0.313-0.242-0.669-0.413-1.053-0.526
	c-0.783-0.213-1.594-0.114-2.305,0.285s-1.209,1.053-1.423,1.835c-0.043,0.171-0.085,0.341-0.1,0.526
	c-0.114,1.167-1.152,2.035-2.319,1.921c-1.167-0.114-2.035-1.152-1.921-2.319c0.043-0.427,0.114-0.839,0.228-1.252
	c0.512-1.878,1.736-3.443,3.429-4.411c1.693-0.967,3.671-1.209,5.549-0.697c0.071,0.014,0.142,0.043,0.199,0.057
	c2.049-3.215,6.047-4.88,9.888-3.827c4.026,1.11,6.644,4.823,6.545,8.821c0.313,0.043,0.612,0.114,0.911,0.185
	c1.878,0.512,3.443,1.736,4.411,3.429c0.968,1.693,1.209,3.671,0.697,5.549c-0.427,1.551-1.366,2.917-2.618,3.87
	c0.441,1.081,0.612,2.262,0.498,3.443C849.582,293.226,848.643,294.052,847.561,294.052L847.561,294.052z"/>
<path fill="#FFFFFF" d="M831.157,294.208c-0.213,0-0.441-0.028-0.654-0.1c-1.124-0.356-1.736-1.565-1.38-2.689l4.738-14.697
	c0.356-1.124,1.565-1.736,2.689-1.38c1.124,0.356,1.736,1.565,1.38,2.689l-4.738,14.697
	C832.893,293.639,832.053,294.208,831.157,294.208z"/>
<path fill="#FFFFFF" d="M833.519,289.271c-1.067,0-1.992-0.797-2.12-1.892c-0.128-1.167,0.711-2.234,1.878-2.362l7.498-0.854
	c1.167-0.128,2.234,0.711,2.362,1.878c0.128,1.167-0.711,2.234-1.878,2.362l-7.498,0.854
	C833.689,289.271,833.604,289.271,833.519,289.271L833.519,289.271z"/>
<path fill="#FFFFFF" d="M833.149,288.844c-0.697,0-1.38-0.341-1.793-0.967l-3.984-6.118c-0.64-0.982-0.37-2.305,0.626-2.959
	c0.982-0.64,2.305-0.37,2.959,0.626l3.984,6.118c0.64,0.982,0.37,2.305-0.626,2.959C833.945,288.73,833.547,288.844,833.149,288.844
	z"/>
<path fill="#FFFFFF" d="M1004.262,272.622h-1.244c-0.744-0.001-1.482,0.133-2.179,0.393v-1.1c0-4.573-3.72-8.293-8.293-8.293h-0.207
	c-4.573,0-8.293,3.72-8.293,8.293v21.232h-37.11v-21.232c0-4.573-3.72-8.293-8.293-8.293h-0.207c-4.573,0-8.293,3.72-8.293,8.293
	v1.099c-0.696-0.26-1.432-0.392-2.174-0.392h-1.244c-3.435,0-6.22,2.785-6.22,6.22v40.842c0,3.435,2.785,6.22,6.22,6.22h1.244
	c0.765,0,1.498-0.139,2.175-0.392v1.551c0,4.573,3.72,8.293,8.293,8.293h0.207c4.573,0,8.293-3.72,8.293-8.293v-21.061h37.11v21.061
	c0,4.573,3.72,8.293,8.293,8.293h0.207c4.573,0,8.293-3.72,8.293-8.293v-1.552c0.697,0.261,1.435,0.394,2.179,0.393h1.244
	c3.435,0,6.22-2.785,6.22-6.22v-40.842C1010.482,275.407,1007.697,272.623,1004.262,272.622L1004.262,272.622z M930.042,319.684
	c0,1.145-0.928,2.073-2.073,2.073h-1.244c-1.145,0-2.073-0.928-2.073-2.073v-40.842c0-1.145,0.928-2.073,2.073-2.073h1.244
	c1.145,0,2.073,0.928,2.073,2.073V319.684L930.042,319.684z M938.643,331.208h-0.207c-2.286,0-4.146-1.86-4.146-4.146v-55.147
	c0-2.286,1.86-4.146,4.146-4.146h0.207c2.286,0,4.146,1.86,4.146,4.146v55.147C942.79,329.348,940.93,331.208,938.643,331.208
	L938.643,331.208z M983.945,301.854h-37.009v-4.561h37.009L983.945,301.854L983.945,301.854z M996.693,327.062
	c0,2.286-1.86,4.146-4.146,4.146h-0.207c-2.286,0-4.146-1.86-4.146-4.146v-55.147c0-2.286,1.86-4.146,4.146-4.146h0.207
	c2.286,0,4.146,1.86,4.146,4.146V327.062L996.693,327.062z M1006.335,319.684c0,1.145-0.928,2.073-2.073,2.073h-1.244
	c-1.145,0-2.073-0.928-2.073-2.073v-40.842c0-1.145,0.928-2.073,2.073-2.073h1.244c1.145,0,2.073,0.928,2.073,2.073V319.684
	L1006.335,319.684z"/>
</svg>
