<?xml version="1.0" encoding="utf-8"?>
<!-- Generator: Adobe Illustrator 17.0.0, SVG Export Plug-In . SVG Version: 6.00 Build 0)  -->
<!DOCTYPE svg PUBLIC "-//W3C//DTD SVG 1.1//EN" "http://www.w3.org/Graphics/SVG/1.1/DTD/svg11.dtd">
<svg version="1.1" id="图层_1" xmlns="http://www.w3.org/2000/svg" xmlns:xlink="http://www.w3.org/1999/xlink" x="0px" y="0px"
	 width="1280px" height="800px" viewBox="0 0 1280 800" enable-background="new 0 0 1280 800" xml:space="preserve">
<g id="Layer_2">
	<rect x="0" y="40.176" fill="#020001" width="1280" height="719.649"/>
	<text transform="matrix(1 0 0 1 953.8633 603.4462)" font-family="'MyriadPro-Regular'" font-size="11.2445">B</text>
	<text transform="matrix(1 0 0 1 959.9541 603.4462)" fill="#F9F4F5" font-family="'BradleyHandITC'" font-size="44.978">Burger Kitchen</text>
</g>
<g id="Layer_1">
	<g id="humberger">
		<rect x="487.262" y="460.72" fill="#FFFFFF" width="253.939" height="41.792"/>
		<path fill="#FFFFFF" d="M707.373,355.397c3.842-0.187,6.747,0.562,8.808,2.343c2.062,1.78,4.029,3.936,5.903,6.372
			c1.874,2.436,4.029,4.685,6.278,6.653c2.249,1.968,5.435,2.999,9.464,2.999h7.122v22.77H491.01v-26.05
			c2.905-2.717,7.028-5.529,12.369-8.527c5.341-2.999,11.338-4.498,18.085-4.498c4.966,0,8.902,0.75,11.807,2.343
			c2.905,1.593,5.716,3.28,8.433,5.154s5.81,3.654,9.277,5.154c3.467,1.593,8.433,2.343,14.712,2.343s11.994-0.75,17.054-2.155
			c5.06-1.406,9.839-3.092,14.243-5.06c4.404-1.874,8.433-3.561,12.182-5.06c3.748-1.406,7.309-2.155,10.682-2.155
			c5.435,0,9.089,0.937,11.151,2.717c2.062,1.78,3.842,3.654,5.622,5.716c1.78,2.061,3.748,3.936,6.278,5.716
			c2.436,1.78,6.747,2.717,12.838,2.717s11.526-0.937,16.211-2.811c4.779-1.874,9.089-4.029,13.025-6.372
			c3.936-2.343,7.684-4.498,11.338-6.559C699.877,357.083,703.625,355.865,707.373,355.397L707.373,355.397z"/>
		<path fill="#FFFFFF" d="M741.201,225.71H487.262v-21.083c1.78-9.37,6.466-17.898,13.868-25.769
			c7.403-7.777,16.867-14.524,28.392-20.24c11.526-5.716,24.55-10.12,39.075-13.212s29.798-4.685,45.821-4.685
			c16.211,0,31.578,1.593,46.196,4.685c14.524,3.092,27.455,7.496,38.7,13.212c11.245,5.716,20.615,12.463,28.111,20.24
			c7.403,7.777,12.088,16.398,13.868,25.769L741.201,225.71L741.201,225.71z"/>
		<path fill="#050400" d="M538.987,210.436c2.905,0,5.435-1.031,7.403-2.999c1.968-1.968,2.999-4.498,2.999-7.403
			c0-2.905-1.031-5.341-2.999-7.403c-1.968-2.061-4.498-2.999-7.403-2.999c-2.905,0-5.435,1.031-7.403,2.999
			c-2.061,1.968-2.999,4.498-2.999,7.403c0,2.905,1.031,5.341,2.999,7.403C533.552,209.406,536.082,210.436,538.987,210.436z"/>
		<path fill="#050400" d="M618.167,177.546c3.186,0,5.716-1.031,7.59-2.999c1.874-1.968,2.905-4.498,2.905-7.403
			c0-2.905-0.937-5.341-2.905-7.403c-1.874-1.968-4.498-2.999-7.59-2.999c-2.905,0-5.341,1.031-7.309,2.999
			s-2.905,4.498-2.905,7.403s0.937,5.341,2.905,7.403C612.826,176.515,615.262,177.546,618.167,177.546z"/>
		<path fill="#050400" d="M671.11,211.373c2.905,0,5.435-1.031,7.403-2.999c1.968-1.968,2.999-4.498,2.999-7.403
			c0-2.905-1.031-5.341-2.999-7.403c-1.968-2.061-4.498-2.999-7.403-2.999c-2.905,0-5.435,1.031-7.403,2.999
			c-1.968,1.968-2.999,4.498-2.999,7.403c0,2.905,1.031,5.341,2.999,7.403C665.675,210.436,668.111,211.373,671.11,211.373z"/>
		<g id="Layer_6">
			<path fill="#F9F9F9" d="M352.422,666.963c-1.593,0-2.062-1.312-2.343-2.155c-0.469-0.843,0.281-2.155-4.591-10.307
				c-2.717-4.498-2.717-4.966-4.592-9.089c-1.593-3.467-3.186-10.963-4.873-13.775c-1.124-2.155-4.404-5.622-4.404-5.622
				s3.748-3.467,8.996-2.343c3.936,0.843,6.185,3.186,7.122,4.498v-23.707c0-3.467,1.124-8.621,5.81-8.621s5.81,5.154,5.81,8.621
				v12.931c0-2.53,3.748-4.779,6.466-4.029c4.404,0.843,5.06,5.154,5.06,5.435c1.124-1.687,3.467-3.654,6.934-2.343
				c3.186,1.312,4.123,4.31,3.936,5.81c0.281-1.031,2.717-2.999,5.341-2.53c5.341,1.031,4.591,5.622,4.591,8.621v8.808
				c0,0.469,0.281,10.12-5.529,19.584c-3.936,6.466-3.748,8.621-3.936,8.808c-0.281,0.843-1.124,1.499-2.061,1.499L352.422,666.963
				L352.422,666.963L352.422,666.963L352.422,666.963z"/>
		</g>
	</g>
	<g id="lettece">
		<g>
			<path fill="#7FA500" d="M110.852,572.51c-5.529-1.499-8.246,3.561-12.275,7.59c-4.123,4.123-13.775-6.185-22.864,0
				c-9.089,6.184,3.842,23.426-7.871,23.426s-17.242,11.151-14.899,18.46c2.343,7.309,13.212,10.214,11.432,16.398
				c-1.78,6.185-8.527,6.747-8.527,13.493s6.747,18.179,19.584,19.584c1.78,0.281,3.561,0,5.529-0.281
				c11.994-2.343,26.05-13.212,31.672-3.842c6.466,10.589,24.925,13.212,26.612,7.59c1.78-5.529,9.37,4.966,15.555,2.062
				c6.184-2.905,2.905-14.899,7.871-19.022s15.836-8.246,13.493-14.337s-8.808-9.37-7.028-14.056
				c1.78-4.685,10.214-12.931,4.685-16.398c-5.247-3.842-14.618-7.309-14.618-14.337c0-7.028-7.028-14.337-16.117-17.242
				s-13.775,6.466-19.584,2.905C117.693,580.943,116.381,574.009,110.852,572.51L110.852,572.51z"/>
			<path fill="#5C8900" d="M109.728,573.165c2.343,1.218,3.842,3.186,5.529,5.529C112.914,577.195,111.133,575.133,109.728,573.165z
				 M148.334,585.441c4.966,3.561,8.527,8.527,8.527,13.493c0,1.218,0.281,2.624,0.843,3.561c-3.561-2.343-6.747-5.247-6.747-9.37
				C150.958,590.407,149.833,587.783,148.334,585.441z M167.075,610.647c1.499,0.843,2.905,1.78,4.123,2.624
				c5.247,3.842-2.905,11.713-4.685,16.398c-1.78,4.685,4.685,7.871,7.028,14.056s-8.527,10.214-13.493,14.337
				c-4.966,4.123-1.499,16.117-7.871,19.022c-6.184,2.905-13.775-7.59-15.555-2.062c-1.78,5.529-20.24,3.186-26.612-7.309
				c8.246,5.247,19.584,5.903,20.802,1.499c1.78-5.529,9.37,4.966,15.555,2.062c6.184-2.905,2.905-14.899,7.871-19.022
				c4.685-4.123,15.836-8.246,13.493-14.337s-8.808-9.37-7.028-14.056C161.827,620.299,167.075,614.676,167.075,610.647
				L167.075,610.647z M106.167,664.527c-6.747-2.343-17.898,5.247-27.549,7.028c-2.061,0.281-3.842,0.562-5.529,0.281
				c-7.59-0.843-13.212-4.966-16.398-9.652c2.905,2.062,6.184,3.561,10.214,3.842c1.78,0.281,3.561,0,5.529-0.281
				c11.994-2.343,26.05-13.212,31.672-3.842C104.761,662.747,105.324,663.59,106.167,664.527L106.167,664.527z M55.192,629.013
				c-1.499-1.218-2.905-2.624-3.842-4.123C52.849,626.389,54.348,627.889,55.192,629.013z"/>
			<path fill="#99B90F" d="M120.504,581.599c-0.281,0-0.562-0.281-0.843-0.281c-5.529-1.499-8.246,3.561-12.275,7.59
				c-4.123,4.123-13.775-6.184-22.864,0c-9.089,6.185,3.842,23.426-7.871,23.426s-17.242,11.151-14.899,18.46
				c0.281,0.843,0.562,1.78,1.124,2.343c-2.905-3.186-8.527-6.184-9.933-11.151c-2.343-7.309,3.561-18.46,14.899-18.46
				s-1.218-17.242,7.871-23.426c9.089-6.185,18.741,4.404,22.864,0c4.123-4.404,6.747-9.089,12.275-7.59
				C115.256,573.728,117.318,578.132,120.504,581.599z M124.908,585.16c5.247,2.062,9.933-6.184,18.46-3.561
				c6.466,2.062,11.994,6.466,14.618,11.432c-1.78-1.218-3.842-2.062-5.903-2.624c-9.089-2.905-13.775,6.466-19.584,2.905
				C129.312,591.25,127.25,587.783,124.908,585.16z M168.855,609.71c2.061,1.218,3.842,2.343,5.247,3.186
				c1.78,1.218,2.061,2.624,1.78,4.404C172.697,615.613,169.698,612.99,168.855,609.71L168.855,609.71z M119.941,674.179
				c-0.281-0.281-0.562-0.281-0.843-0.562C119.098,673.898,119.66,674.179,119.941,674.179z M67.186,669.212
				c-7.309-4.123-11.151-11.994-11.151-16.96c0-6.747,7.028-7.309,8.527-13.493c0.281-1.499,0-2.624-0.562-3.561
				c3.842,4.685,10.495,7.309,9.37,12.275c-1.499,6.184-8.527,6.747-8.527,13.493C64.937,663.309,65.78,666.214,67.186,669.212
				L67.186,669.212z"/>
			<path fill="#456C02" d="M141.025,601.558c1.499,0.281,2.624,1.78,2.624,3.186c-0.281,1.499-1.78,2.624-3.186,2.624
				c-1.499-0.281-2.061,0.281-2.343,1.499c-0.281,1.499-0.281,3.561,0.281,5.529c2.624,7.309-8.246,14.618-14.337,9.651
				c-1.218-1.218-1.499-2.905-0.281-4.123c1.218-1.218,2.905-1.499,4.123-0.281c1.499,1.218,5.529-1.499,4.966-3.186
				c-0.843-2.905-1.218-6.466-0.281-9.089C133.435,602.963,136.621,600.902,141.025,601.558L141.025,601.558z M79.274,632.012
				c1.499,0.562,2.343,2.343,1.78,3.842c-0.562,1.499-2.343,2.343-3.842,1.78c-7.309-2.905-7.59-12.275-0.281-14.337
				c2.343-0.562,3.842,0,6.184,1.499l0.281,0.281c2.343,1.499,2.343,1.499,3.842-0.562c0.843-1.218,2.905-1.499,4.123-0.281
				c1.218,0.843,1.499,2.905,0.281,4.123c-3.842,4.685-7.028,4.685-11.432,2.062l-0.281-0.281c-1.218-1.218-1.499-1.218-1.78-1.218
				C76.65,629.013,76.65,630.794,79.274,632.012z M133.435,647.473c0.562-1.499,2.343-2.343,3.842-1.78
				c1.499,0.562,2.343,2.343,1.78,3.842c-0.281,1.218,1.78,2.624,2.905,1.499c0.562-0.281,0.562-0.843,1.218-2.624
				c1.218-5.247,3.561-7.59,9.933-8.246c1.78,0,2.905,1.218,3.186,2.624c0,1.78-1.218,2.905-2.624,3.186
				c-3.561,0.281-4.123,0.843-4.685,3.561c-0.562,2.905-1.218,4.404-3.186,5.903C139.526,660.685,130.811,654.22,133.435,647.473z"
				/>
			<path fill="#EAF4BF" d="M110.852,725.435c13.775,0,24.925-15.836,24.925-35.139c0-12.931-8.246-24.644-24.925-35.139
				c-16.679,10.589-24.925,22.302-24.925,35.139C86.021,709.599,97.078,725.435,110.852,725.435z"/>
			<path fill="#CCDD9C" d="M99.701,721.593c1.78,0.562,3.561,0.843,5.247,0.843c13.775,0,24.925-15.836,24.925-35.139
				c0-11.432-6.747-22.302-19.959-31.672c0.281-0.281,0.562-0.281,0.843-0.562c16.679,10.589,24.925,22.302,24.925,35.139
				c0,19.303-11.151,35.139-24.925,35.139C106.729,725.435,102.981,723.936,99.701,721.593z"/>
			<path fill="#F9FFDF" d="M99.42,721.593c-8.246-5.903-13.493-17.616-13.493-31.297c0-12.931,8.246-24.644,24.925-35.139
				c6.747,4.404,11.994,8.808,16.117,13.493c-2.905-2.624-6.466-4.966-10.214-7.59c-16.679,10.495-24.925,22.208-24.925,35.045
				C91.83,706.038,94.735,715.127,99.42,721.593z"/>
		</g>
		<g>
			<path fill="#7DE184" d="M520.059,456.035c-0.469,0-0.937-0.094-1.406-0.187c-15.086-2.343-30.735,0.75-43.947,9.183
				c3.186,0.562,6.466,0.375,9.558-0.469c0.469-0.187,4.217-1.406,4.873-1.687c12.837-5.06,27.924-2.905,38.887,7.028
				c0.937,0.843,1.874,1.78,2.717,2.717c0.094,0.187,0.375,0.187,0.562,0.094c11.151-7.871,25.769-9.183,38.044-3.467
				c-1.593-2.249-3.561-4.404-5.716-6.466C551.168,451.444,534.021,449.476,520.059,456.035L520.059,456.035z"/>
			<path fill="#7DE184" d="M578.717,469.435c0.469-0.375,0.937-0.75,1.312-1.124c0.656-0.469,6.091-5.06,8.527-6.747
				c0.843-0.562,1.968-1.218,2.999-1.687c7.59-5.716,17.148-8.059,26.612-6.372c7.684,1.406,14.618,5.341,19.772,11.245
				c4.31,4.966,7.122,11.057,8.059,17.429c0.375,1.031,0.75,2.061,1.031,3.092c3.842-0.937,7.59-1.124,11.338-0.469
				c6.184,1.124,11.526,4.404,15.367,8.902c1.406-2.249,2.343-4.779,2.811-7.496c2.155-11.9-5.81-23.426-17.804-25.581l-1.687-0.281
				l-1.218-2.249l-0.094-0.562c-1.499-6.559-4.685-12.556-9.464-17.148c-4.873-4.779-10.963-7.965-17.804-9.183
				c-7.777-1.406-15.93,0-22.77,3.842s-12.182,9.933-15.086,17.054l-1.312,3.092l-3.186-1.031c-1.218-0.375-2.436-0.656-3.654-0.843
				c-6.278-1.124-12.744-0.469-18.647,1.968c-5.716,2.343-10.682,6.185-14.337,11.245c-0.656,0.937-3.186,4.029-3.373,4.31l0,0l0,0
				c-2.155,2.343-4.685,4.217-7.496,5.622c0.281,0.094,0.562,0.094,0.75,0.187C552.574,479.274,566.536,476.556,578.717,469.435
				L578.717,469.435z"/>
			<path fill="#7DE184" d="M628.755,449.007L628.755,449.007c-13.212,7.215-29.142,6.653-41.417-1.124l-0.187-0.187
				c-3.748,2.343-7.871,4.123-11.994,5.154c-8.714,2.155-17.523,1.687-25.769-1.593c-0.281,0-0.469-0.094-0.656-0.187l-0.375-0.094
				c-8.34-3.373-18.085-2.811-26.331,2.155c12.65,12.275,29.61,18.46,46.571,17.897c0.469,0,0.937,0,1.406,0
				c13.119,8.152,30.454,8.152,43.947-1.593C621.165,464.281,626.225,457.066,628.755,449.007z"/>
			<path fill="#7DE184" d="M639.906,473.277L639.906,473.277c12.463-8.527,28.392-9.464,41.324-2.999l0.281,0.094
				c3.561-2.717,7.403-4.873,11.432-6.278c8.433-2.999,17.335-3.373,25.769-0.937c0.281,0,0.469,0,0.656,0.094l0.375,0.094
				c8.621,2.53,18.272,1.031,25.956-4.779c-13.775-10.963-31.203-15.461-48.07-13.212c-0.469,0-0.937,0.094-1.406,0.187
				c-13.868-6.84-31.11-5.154-43.572,5.81C645.903,457.347,641.593,465.124,639.906,473.277z"/>
			<path fill="#7DE184" d="M783.274,432.234L783.274,432.234c-11.057,10.214-26.706,13.493-40.48,8.996l-0.281-0.094
				c-3.092,3.186-6.653,5.903-10.401,7.871c-7.965,4.217-16.586,5.903-25.394,4.685c-0.281,0-0.469,0-0.656,0h-0.375
				c-8.902-1.218-18.272,1.687-25.019,8.433c15.274,8.808,33.171,10.776,49.476,6.091c0.375-0.094,0.937-0.281,1.312-0.375
				c14.712,4.779,31.485,0.562,42.261-12.088C779.713,448.82,782.805,440.574,783.274,432.234z"/>
			<path fill="#7DE184" d="M686.852,441.511L686.852,441.511c-13.212,7.215-29.142,6.653-41.417-1.124l-0.187-0.187
				c-3.748,2.343-7.871,4.123-11.994,5.154c-8.714,2.155-17.523,1.687-25.769-1.593c-0.281,0-0.469-0.094-0.656-0.187l-0.375-0.094
				c-8.34-3.373-18.085-2.811-26.331,2.155c12.65,12.275,29.611,18.46,46.571,17.898c0.469,0,0.937,0,1.406,0
				c13.119,8.152,30.454,8.152,43.947-1.593C679.262,456.785,684.322,449.57,686.852,441.511z"/>
		</g>
		<g>
			<g>
				<path fill="#7DE184" d="M294.981,641.57c2.343-1.124,4.404-2.53,6.466-4.123c1.406-1.124-0.562-3.092-1.968-1.968
					c-1.78,1.406-3.842,2.624-5.903,3.654C291.982,639.883,293.388,642.319,294.981,641.57L294.981,641.57z"/>
			</g>
		</g>
		<g>
			<g>
				<path fill="#7DE184" d="M308.381,631.449c0.281-3.28,1.124-6.372,2.624-9.37c0.843-1.593-1.593-2.999-2.436-1.406
					c-1.78,3.373-2.717,6.934-2.999,10.776C305.476,633.23,308.287,633.23,308.381,631.449L308.381,631.449z"/>
			</g>
		</g>
		<g>
			<g>
				<path fill="#7DE184" d="M314.284,616.55c1.312-2.717,3.092-5.154,5.341-7.309c1.312-1.218-0.656-3.28-1.968-1.968
					c-2.343,2.249-4.31,4.873-5.716,7.871C311.098,616.738,313.441,618.237,314.284,616.55L314.284,616.55z"/>
			</g>
		</g>
		<g>
			<g>
				<path fill="#7DE184" d="M327.684,604.369c4.31-3.467,8.996-6.278,14.056-8.621c1.687-0.75,0.187-3.186-1.406-2.436
					c-5.247,2.343-10.12,5.435-14.618,8.996C324.31,603.526,326.372,605.493,327.684,604.369L327.684,604.369z"/>
			</g>
		</g>
		<g>
			<g>
				<path fill="#7DE184" d="M349.517,592.469c6.466-1.593,13.119-2.811,19.772-3.654c1.78-0.187,1.78-2.999,0-2.811
					c-6.934,0.843-13.775,2.062-20.521,3.748C346.987,590.22,347.736,592.937,349.517,592.469L349.517,592.469z"/>
			</g>
		</g>
		<g>
			<g>
				<path fill="#7DE184" d="M378.471,588.439c2.062,4.123,4.404,8.059,6.84,11.9c0.937,1.499,3.373,0.094,2.436-1.406
					c-2.436-3.842-4.779-7.777-6.84-11.9C380.158,585.441,377.722,586.846,378.471,588.439L378.471,588.439z"/>
			</g>
		</g>
		<g>
			<g>
				<path fill="#7DE184" d="M388.685,608.398c2.061,4.217,4.029,8.433,6.091,12.556c0.75,1.593,3.186,0.187,2.436-1.406
					c-2.062-4.217-4.029-8.433-6.091-12.556C390.278,605.306,387.936,606.712,388.685,608.398L388.685,608.398z"/>
			</g>
		</g>
		<g>
			<g>
				<path fill="#7DE184" d="M401.054,628.451c2.811-0.187,5.622,0.094,8.34,0.656c1.78,0.375,2.53-2.343,0.75-2.717
					c-2.999-0.656-5.997-0.937-9.089-0.75C399.274,625.734,399.274,628.545,401.054,628.451L401.054,628.451z"/>
			</g>
		</g>
		<g>
			<g>
				<path fill="#7DE184" d="M420.826,627.795c5.154-1.312,10.12-2.905,15.086-4.873c1.687-0.656,0.937-3.373-0.75-2.717
					c-4.966,1.874-9.933,3.561-15.086,4.873C418.296,625.546,419.045,628.264,420.826,627.795L420.826,627.795z"/>
			</g>
		</g>
		<g>
			<g>
				<path fill="#7DE184" d="M446.032,617.206c1.218-1.687,2.53-3.373,3.748-4.966c0.469-0.656,0.094-1.593-0.469-1.968
					c-0.75-0.469-1.499-0.094-1.968,0.469c-1.218,1.687-2.53,3.373-3.748,4.966c-0.469,0.656-0.094,1.593,0.469,1.968
					C444.814,618.143,445.564,617.769,446.032,617.206L446.032,617.206z"/>
			</g>
		</g>
		<g>
			<g>
				<path fill="#7DE184" d="M451.186,610.179c0-0.187,0-0.375,0-0.656c0-0.75-0.656-1.406-1.406-1.406
					c-0.75,0-1.406,0.656-1.406,1.406c0,0.187,0,0.375,0,0.656c0,0.75,0.656,1.406,1.406,1.406
					C450.53,611.584,451.186,611.022,451.186,610.179L451.186,610.179z"/>
			</g>
		</g>
		<g>
			<g>
				<path fill="#7DE184" d="M455.59,602.495c1.031-3.28,2.999-6.184,5.622-8.433c1.406-1.218-0.656-3.186-1.968-1.968
					c-2.999,2.624-5.154,5.903-6.278,9.652C452.31,603.432,455.028,604.182,455.59,602.495L455.59,602.495z"/>
			</g>
		</g>
		<g>
			<g>
				<path fill="#7DE184" d="M465.616,587.502c0.843-2.811,1.968-5.341,3.467-7.871c0.937-1.593-1.499-2.999-2.436-1.406
					c-1.593,2.717-2.905,5.529-3.748,8.527C462.337,588.439,465.054,589.189,465.616,587.502L465.616,587.502z"/>
			</g>
		</g>
		<g>
			<g>
				<path fill="#7DE184" d="M473.956,572.041c1.593-2.624,3.467-4.966,5.622-7.028c1.312-1.218-0.656-3.28-1.968-1.968
					c-2.343,2.249-4.404,4.873-6.091,7.684C470.583,572.228,473.019,573.634,473.956,572.041L473.956,572.041z"/>
			</g>
		</g>
		<g>
			<g>
				<path fill="#7DE184" d="M485.95,561.546c1.312-2.155,2.999-3.842,5.06-5.154c1.499-0.937,0.094-3.373-1.406-2.436
					c-2.53,1.499-4.592,3.654-6.091,6.184C482.577,561.734,485.013,563.139,485.95,561.546L485.95,561.546z"/>
			</g>
		</g>
		<g>
			<g>
				<path fill="#7DE184" d="M501.411,551.613c2.061-0.469,4.123-0.937,6.184-1.406c1.78-0.375,1.031-3.092-0.75-2.717
					c-2.062,0.469-4.123,0.937-6.184,1.406C498.881,549.271,499.631,551.988,501.411,551.613L501.411,551.613z"/>
			</g>
		</g>
		<g>
			<g>
				<path fill="#7DE184" d="M519.777,551.145c2.717-0.187,5.247,0.562,7.496,2.061c1.499,1.031,2.905-1.406,1.406-2.436
					c-2.624-1.78-5.716-2.624-8.902-2.436C517.997,548.428,517.903,551.239,519.777,551.145L519.777,551.145z"/>
			</g>
		</g>
		<g>
			<g>
				<path fill="#7DE184" d="M533.739,556.205c0.843,0.843,1.687,1.687,2.53,2.53c1.312,1.312,3.28-0.75,1.968-1.968
					c-0.843-0.843-1.687-1.687-2.53-2.53C534.489,552.925,532.428,554.987,533.739,556.205L533.739,556.205z"/>
			</g>
		</g>
		<g>
			<g>
				<path fill="#7DE184" d="M180.849,713.253c5.435-1.406,10.963-1.78,16.492-1.124c1.78,0.187,1.78-2.624,0-2.811
					c-5.81-0.656-11.619-0.281-17.242,1.218C178.319,711.004,179.069,713.722,180.849,713.253L180.849,713.253z"/>
			</g>
		</g>
		<g>
			<g>
				<path fill="#7DE184" d="M213.552,703.602c3.748-1.874,7.496-3.748,11.245-5.529c1.593-0.843,0.187-3.186-1.406-2.436
					c-3.748,1.874-7.496,3.748-11.245,5.529C210.553,702.009,211.959,704.351,213.552,703.602L213.552,703.602z"/>
			</g>
		</g>
		<g>
			<g>
				<path fill="#7DE184" d="M236.416,690.764c3.654-3.373,7.215-6.84,10.87-10.214c1.312-1.218-0.656-3.186-1.968-1.968
					c-3.654,3.373-7.215,6.84-10.87,10.214C233.136,690.015,235.104,691.982,236.416,690.764L236.416,690.764z"/>
			</g>
		</g>
		<g>
			<g>
				<path fill="#7DE184" d="M258.811,672.305c3.748-3.28,7.496-6.559,11.245-9.839c1.406-1.218-0.656-3.186-1.968-1.968
					c-3.748,3.28-7.496,6.559-11.245,9.839C255.438,671.555,257.406,673.523,258.811,672.305L258.811,672.305z"/>
			</g>
		</g>
		<g>
			<g>
				<path fill="#7DE184" d="M281.394,655.625c2.343-1.874,4.685-3.748,7.028-5.622c1.406-1.124-0.562-3.092-1.968-1.968
					c-2.343,1.874-4.685,3.748-7.028,5.622C278.021,654.782,279.988,656.75,281.394,655.625L281.394,655.625z"/>
			</g>
		</g>
		<g>
			<g>
				<path fill="#7DE184" d="M548.732,563.045c7.871,1.031,15.461,0.094,22.864-2.624c1.687-0.656,0.937-3.373-0.75-2.717
					c-7.215,2.717-14.524,3.467-22.114,2.53C546.952,559.953,546.952,562.764,548.732,563.045L548.732,563.045z"/>
			</g>
		</g>
		<g>
			<g>
				<path fill="#7DE184" d="M583.871,556.955c1.874-2.811,3.842-5.622,5.716-8.34c1.031-1.499-1.406-2.905-2.436-1.406
					c-1.874,2.811-3.842,5.622-5.716,8.34C580.404,557.048,582.84,558.454,583.871,556.955L583.871,556.955z"/>
			</g>
		</g>
		<g>
			<g>
				<path fill="#7DE184" d="M593.335,540.275c2.343-1.874,4.685-3.748,7.028-5.622c1.406-1.124-0.562-3.092-1.968-1.968
					c-2.343,1.874-4.685,3.748-7.028,5.622C589.962,539.432,591.93,541.4,593.335,540.275L593.335,540.275z"/>
			</g>
		</g>
		<g>
			<g>
				<path fill="#7DE184" d="M608.609,527.438c3.28-3.28,6.559-6.559,9.839-9.839c1.312-1.312-0.75-3.28-1.968-1.968
					c-3.28,3.28-6.559,6.559-9.839,9.839C605.329,526.782,607.297,528.75,608.609,527.438L608.609,527.438z"/>
			</g>
		</g>
		<g>
			<g>
				<path fill="#7DE184" d="M627.444,505.511c1.78,0,1.78-2.811,0-2.811C625.663,502.7,625.663,505.511,627.444,505.511
					L627.444,505.511z"/>
			</g>
		</g>
		<g>
			<g>
				<path fill="#7DE184" d="M626.694,510.946c4.779-2.999,8.808-6.934,11.807-11.713c0.937-1.499-1.499-2.999-2.436-1.406
					c-2.717,4.404-6.372,7.965-10.776,10.682C623.789,509.447,625.195,511.883,626.694,510.946L626.694,510.946z"/>
			</g>
		</g>
		<g>
			<g>
				<path fill="#7DE184" d="M647.122,494.266c1.78,0,1.78-2.811,0-2.811C645.341,491.455,645.341,494.266,647.122,494.266
					L647.122,494.266z"/>
			</g>
		</g>
		<g>
			<g>
				<path fill="#7DE184" d="M648.527,494.266c0.937,0,1.874,0,2.811,0c1.78,0,1.78-2.811,0-2.811c-0.937,0-1.874,0-2.811,0
					C646.747,491.455,646.747,494.266,648.527,494.266L648.527,494.266z"/>
			</g>
		</g>
	</g>
	<g id="beef">
		<path fill="#F75A2A" d="M361.792,370.671c-16.773-6.278-61.47-18.272-92.955-15.555c-23.801,2.062-26.518,11.807-27.362,14.993
			c-0.843,2.999,4.404,7.777,9.558,12.275c7.403,6.653,16.586,14.899,16.679,25.581c0,2.249,2.343,5.154,6.372,7.965
			c11.338,7.871,35.608,14.618,64.281,12.182l0,0c13.681-1.124,26.893-4.31,39.168-9.464c11.057-4.591,24.363-11.713,24.457-19.678
			C401.991,390.348,387.748,380.322,361.792,370.671L361.792,370.671z M309.13,379.854c-1.687,3.936-8.714,7.215-16.679,7.965
			c-1.406,0.094-2.905,0.187-4.217,0.094c-5.341-0.187-9.652-1.687-11.619-3.936c-1.031-1.218-1.312-2.624-0.656-4.029
			c1.687-3.936,8.714-7.215,16.679-7.965c1.406-0.094,2.905-0.187,4.217-0.094c5.341,0.187,9.652,1.687,11.619,3.936
			C309.505,377.042,309.786,378.448,309.13,379.854z"/>
		<path fill="#F9F4F4" d="M154.331,374.325c11.994-2.155,21.083-12.837,21.083-25.394c0-4.123-0.843-7.684-2.436-10.963
			c-1.687-3.28-3.842-6.278-6.84-8.714c-0.562-0.281-0.843-0.843-1.406-1.124c-4.404-2.717-9.839-4.404-15.274-4.404h-64
			c-5.716,0-10.963,1.687-15.274,4.404c-0.281,0.281-0.562,0.843-0.843,0.843c-2.999,2.155-5.435,5.435-7.122,8.996
			c-1.687,3.28-2.436,7.122-2.436,10.963c0,13.962,11.713,25.956,25.956,25.956 M162.764,316.416
			c0.281-24.644,12.837-25.956,30.36-36.076c3.842-2.155,6.84-5.435,9.558-9.277c1.406-1.874,2.155-4.123,2.999-6.278
			c-2.155-0.281-4.404-0.562-6.84-0.281c-4.685,0-9.277,1.406-12.556,2.999l-0.281,0.281c-3.561,1.874-5.716,3.842-7.403,5.716
			s-2.717,4.123-4.123,6.84c-0.843,1.687-2.155,2.999-3.842,3.842c-4.123,1.874-8.996,0.281-10.963-3.842
			c-2.436-5.154-6.278-9.277-11.245-12.275c-4.685-2.999-10.12-4.685-16.117-4.685h-30.173c-5.716,0-10.963,1.687-15.274,4.123
			l-0.562,0.562c-4.966,2.999-8.715,7.122-11.245,11.994c-0.843,1.874-2.155,3.28-4.123,4.123c-4.123,1.874-8.714,0-10.682-4.123
			c-1.124-2.436-2.155-4.966-4.123-6.84c-1.687-1.874-3.842-3.842-7.403-5.716c-3.28-1.874-7.965-3.28-12.837-3.28
			c-2.436,0-4.966,0-6.84,0.281c0.562,2.155,1.687,4.123,2.717,5.997l0.281,0.281c2.436,4.123,5.716,7.403,9.277,9.277
			c16.679,9.558,30.079,11.526,30.641,36.076c4.123-1.687,8.715-2.436,13.4-2.436h64.281
			C154.05,313.886,158.735,314.729,162.764,316.416L162.764,316.416z M149.365,391.567H85.177
			c-22.958,0-42.073-19.959-42.073-42.635c0-6.278,1.687-12.556,4.123-18.085c12.837-26.799,5.154-25.675-13.962-36.638
			c-5.997-3.561-11.245-8.714-14.993-14.805l-0.281-0.562c-3.842-5.716-5.997-12.556-6.559-19.397
			c-0.281-3.842,1.874-7.122,5.154-8.246c5.997-2.717,13.119-3.842,19.959-3.561c7.403,0.281,14.805,2.155,20.521,5.435
			c1.124,0.562,1.874,1.124,2.717,1.687c-1.124-5.997-0.843-12.837,0.281-18.835c1.874-10.963,6.84-21.083,13.962-27.362
			c1.687-1.406,3.28-2.717,5.154-3.561c4.123-1.874,8.714-0.562,10.963,3.561c1.406,2.436,1.124,5.154,0,7.403
			c-1.406,2.999-0.843,7.684,0.843,12.556c2.155,6.84,5.997,13.681,9.839,17.804h33.359c3.842-4.123,7.684-10.963,9.839-17.804
			c1.687-4.966,2.155-9.839,0.843-12.556c-1.124-2.155-1.406-4.966,0-7.403c1.874-4.123,6.84-5.716,10.963-3.561
			c1.687,0.843,3.561,1.874,5.154,3.561c7.122,5.997,11.994,16.398,13.962,27.362c1.124,6.278,1.406,12.837,0.281,18.835
			c0.843-0.562,1.874-1.124,2.717-1.687l0.562-0.281c5.435-2.999,12.556-4.966,19.959-5.154c7.122-0.281,14.243,0.843,20.521,3.842
			c3.28,1.687,4.966,4.685,4.685,7.965c-0.562,7.122-2.999,13.962-6.84,19.959c-3.842,5.997-8.996,11.244-14.993,14.805
			c-21.833,12.556-25.956,11.526-13.962,36.638c2.717,5.435,4.123,11.713,4.123,18.085
			C191.531,371.608,172.416,391.567,149.365,391.567L149.365,391.567z M83.49,250.823c-2.717-3.842-5.154-8.715-6.84-13.4
			l-0.281,1.687c-1.124,5.435-1.124,11.245,0,15.836l1.406-0.843l0.562-0.281C79.93,252.697,81.616,251.572,83.49,250.823z
			 M158.454,254.852c1.124-4.685,1.124-10.401,0-15.836v-1.687c-1.874,4.685-4.123,9.558-6.84,13.4
			c1.874,1.124,3.842,1.874,5.716,2.999L158.454,254.852z"/>
		<g>
			<g>
				<path fill="#F75A2A" d="M182.442,316.697c4.217,5.154,8.34,10.307,12.556,15.555c1.124,1.406,3.092-0.562,1.968-1.968
					c-4.217-5.154-8.34-10.307-12.556-15.555C183.286,313.324,181.224,315.291,182.442,316.697L182.442,316.697z"/>
			</g>
		</g>
		<g>
			<g>
				<path fill="#F75A2A" d="M202.495,336.281c2.249,1.312,3.842,3.28,4.685,5.716c0.562,1.687,3.28,0.937,2.717-0.75
					c-1.124-3.092-3.186-5.716-5.997-7.403C202.307,332.908,200.902,335.344,202.495,336.281L202.495,336.281z"/>
			</g>
		</g>
		<g>
			<g>
				<path fill="#F75A2A" d="M214.583,348.088c3.092,2.343,6.278,4.498,9.745,6.278c1.593,0.843,2.999-1.593,1.406-2.436
					c-3.373-1.874-6.653-3.936-9.745-6.278C214.583,344.527,213.177,346.963,214.583,348.088L214.583,348.088z"/>
			</g>
		</g>
		<g>
			<g>
				<path fill="#F75A2A" d="M231.637,360.363c2.436,1.874,4.966,3.842,7.403,5.716c1.406,1.124,2.811-1.312,1.406-2.436
					c-2.436-1.874-4.966-3.842-7.403-5.716C231.637,356.802,230.231,359.332,231.637,360.363L231.637,360.363z"/>
			</g>
		</g>
		<g>
			<g>
				<path fill="#F75A2A" d="M241.101,367.391c1.78,0,1.78-2.811,0-2.811C239.321,364.58,239.321,367.391,241.101,367.391
					L241.101,367.391z"/>
			</g>
		</g>
		<g>
			<g>
				<path fill="#F75A2A" d="M365.915,372.638c5.622-2.249,10.682-5.154,15.461-8.808c1.406-1.124-0.562-3.092-1.968-1.968
					c-4.31,3.373-9.089,6.091-14.243,8.152C363.572,370.577,364.322,373.294,365.915,372.638L365.915,372.638z"/>
			</g>
		</g>
		<g>
			<g>
				<path fill="#F75A2A" d="M387.654,362.237c4.404-1.687,8.714-3.28,13.119-4.966c1.687-0.656,0.937-3.373-0.75-2.717
					c-4.404,1.687-8.715,3.28-13.119,4.966C385.218,360.082,385.968,362.799,387.654,362.237L387.654,362.237z"/>
			</g>
		</g>
		<g>
			<g>
				<path fill="#F75A2A" d="M410.706,355.584c2.811-2.249,5.903-3.748,9.464-4.498c1.78-0.375,1.031-3.092-0.75-2.717
					c-4.029,0.843-7.59,2.624-10.682,5.247C407.332,354.835,409.394,356.802,410.706,355.584L410.706,355.584z"/>
			</g>
		</g>
		<g>
			<g>
				<path fill="#F75A2A" d="M426.635,349.212c2.717,0,5.435,0,8.152,0c1.78,0,1.78-2.811,0-2.811c-2.717,0-5.435,0-8.152,0
					C424.855,346.401,424.855,349.212,426.635,349.212L426.635,349.212z"/>
			</g>
		</g>
		<g>
			<g>
				<path fill="#F75A2A" d="M444.814,349.212c2.249,0,4.591,0,6.84,0c1.78,0,1.78-2.811,0-2.811c-2.249,0-4.592,0-6.84,0
					C442.94,346.401,442.94,349.212,444.814,349.212L444.814,349.212z"/>
			</g>
		</g>
		<g>
			<g>
				<path fill="#F75A2A" d="M459.807,349.868c2.717,0,5.435,0,8.152,0c1.78,0,1.78-2.811,0-2.811c-2.717,0-5.435,0-8.152,0
					C457.933,347.057,457.933,349.868,459.807,349.868L459.807,349.868z"/>
			</g>
		</g>
		<g>
			<g>
				<path fill="#F75A2A" d="M478.735,351.742c3.936,1.218,7.965,2.436,11.9,3.654c1.78,0.562,2.436-2.155,0.75-2.717
					c-3.936-1.218-7.965-2.436-11.9-3.654C477.798,348.463,477.048,351.18,478.735,351.742L478.735,351.742z"/>
			</g>
		</g>
		<g>
			<g>
				<path fill="#F75A2A" d="M495.883,356.146c1.312,1.968,3.373,3.092,5.716,2.999c1.78,0,1.78-2.811,0-2.811
					c-1.312,0-2.53-0.562-3.28-1.687C497.382,353.242,494.946,354.647,495.883,356.146L495.883,356.146z"/>
			</g>
		</g>
	</g>
	<g id="wheat">
		<path fill="#A05624" d="M411.924,134.067c-3.654,2.249-17.991-0.187-25.769,2.717c-4.873,1.874-19.678,16.117-18.366,19.303
			c2.155,5.247,21.552,3.842,26.893,0.656c4.404-2.717,10.963-8.527,19.209-17.335c11.619-12.463,36.17-38.512,36.17-38.512
			S415.578,131.818,411.924,134.067z M378.846,149.622c-1.031-2.061,4.498-8.902,9.839-10.12c5.341-1.218,13.025,0.187,12.931,2.811
			C401.429,148.404,381.189,154.495,378.846,149.622z"/>
		<path fill="#A05624" d="M386.343,165.739c-3.842,1.874-17.897-1.687-25.956,0.656c-5.06,1.406-19.397,15.274-18.272,18.46
			c1.78,5.341,20.24,5.529,25.769,2.717c4.685-2.343,11.057-8.433,19.865-16.492c12.65-11.526,44.135-35.889,44.135-35.889
			S390.184,163.865,386.343,165.739z M352.422,179.514c-1.031-2.061,4.498-8.902,9.839-10.12s13.025,0.187,12.931,2.811
			C375.004,178.296,354.764,184.387,352.422,179.514z"/>
		<path fill="#A05624" d="M339.303,192.632c-5.529,0.375-19.022,15.274-18.553,17.991c0.75,4.592,17.335,1.593,22.114,0
			c4.029-1.312,9.839-5.529,17.991-10.963c11.526-7.777,28.018-17.804,28.018-17.804s-25.206,12.182-28.486,13.212
			C357.013,196.287,346.05,192.164,339.303,192.632z M331.713,203.596c-0.75-1.499,3.28-6.466,7.122-7.309
			c3.936-0.937,9.558,0.187,9.464,2.061C348.205,202.753,333.493,207.157,331.713,203.596z M373.037,141.939
			c3.28,0.937,14.899-13.212,16.117-18.366c1.968-8.152-0.75-19.022,1.406-24.832c2.249-6.091,19.49-33.171,19.49-33.171
			s-13.025,16.117-23.988,29.236c-7.684,9.183-12.463,14.618-14.618,19.397C369.007,119.824,367.602,140.439,373.037,141.939z
			 M383.625,105.206c3.467,0.937,3.561,7.871,1.968,12.837c-1.593,4.966-10.682,8.621-11.619,3.28
			C373.13,116.076,380.533,104.363,383.625,105.206L383.625,105.206z"/>
		<path fill="#A05624" d="M349.517,168.738c3.28,0.656,15.274-15.274,16.117-20.428c1.312-8.246-3.936-21.833-2.53-25.862
			c1.406-4.029,19.678-39.262,19.678-39.262s-17.054,25.019-26.987,38.887c-6.934,9.745-10.401,16.398-12.182,21.271
			C341.552,149.247,343.988,167.613,349.517,168.738z M357.669,129.101c3.467,0.937,3.561,7.871,1.968,12.837
			c-1.593,4.966-10.682,8.621-11.619,3.28C347.174,139.877,354.577,128.258,357.669,129.101z"/>
		<path fill="#A05624" d="M328.246,193.757c3.092,0.281,12.837-15.367,13.119-20.146c0.469-7.684-5.529-19.772-4.498-23.613
			c1.031-3.842,12.744-33.265,12.744-33.265s-10.026,19.397-17.898,33.078c-5.529,9.558-9.839,16.492-11.057,21.177
			C319.25,176.515,322.999,193.195,328.246,193.757L328.246,193.757z M324.873,174.641c-1.687-5.154,3.936-17.804,7.122-17.429
			c3.561,0.469,4.685,7.309,3.842,12.369C334.899,174.829,326.559,179.795,324.873,174.641z M397.681,104.176
			c-3.842,4.404-6.466,17.898-3.186,20.709c3.28,2.905,16.305-1.312,20.146-5.716c4.498-5.06,4.123-14.712,6.091-18.741
			c1.78-3.842,20.24-28.018,20.24-28.018s-21.739,21.271-25.3,23.52C411.736,98.179,402.085,99.116,397.681,104.176L397.681,104.176
			z M403.772,104.082c5.341-2.436,11.245-1.499,9.089,4.404c-2.155,5.903-10.401,12.088-13.4,9.183
			C397.4,115.701,397.025,107.174,403.772,104.082z"/>
		<path fill="#A05624" d="M306.975,195.725c0.375,4.217,4.966,14.243,7.122,14.618c2.905,0.469,7.965-9.839,7.777-13.493
			c-0.281-4.873-6.653-12.744-7.215-16.679c-0.281-2.249,3.936-21.552,4.029-21.646l-9.652,24.551l0,0
			C307.256,187.385,306.694,192.445,306.975,195.725L306.975,195.725z M311.754,185.042c2.249-0.375,4.123,3.467,4.498,6.747
			s-4.029,7.122-5.903,4.31C308.381,193.382,309.786,185.417,311.754,185.042z"/>
		<path fill="#A05624" d="M287.672,250.823c1.124-0.656,2.155-1.218,2.811-2.061l1.031-1.406l0,0c0,0,108.135-29.329,118.536-30.173
			c5.716-0.469,33.171,16.679,44.884,17.898c11.713,1.218,11.713-0.375,11.713-0.375s-12.744-2.061-31.766-19.303
			c-13.4-12.182-32.141-20.896-36.451-20.802c-4.31,0.094-89.956,41.042-102.794,47.133l13.306-17.804
			c3.936,1.218,9.933-0.094,12.556-3.842c3.28-4.779-3.936-4.779-8.34-5.341c-6.653-0.843-4.404-7.871-6.84-6.091
			c-3.186,2.343-3.373,8.152-1.218,12.182c-2.436,2.811-4.966,5.622-7.403,8.433c-4.31,4.779-14.243,16.211-15.461,17.523
			c-0.937,0.937-2.155,2.155-1.874,3.561C280.738,251.76,286.36,251.479,287.672,250.823L287.672,250.823z M399.742,197.974
			c2.436,0.843,13.025,12.463,10.495,12.369c-24.363-1.312-61.001,11.807-63.344,12.369
			C346.799,222.618,397.306,197.13,399.742,197.974L399.742,197.974z"/>
		<g>
			<g>
				<path fill="#A05624" d="M463.274,107.362c3.28-0.75,6.653-1.499,9.933-2.249c1.78-0.375,1.031-3.092-0.75-2.717
					c-3.28,0.75-6.653,1.499-9.933,2.249C460.744,105.019,461.493,107.736,463.274,107.362L463.274,107.362z"/>
			</g>
		</g>
		<g>
			<g>
				<path fill="#A05624" d="M488.293,102.114c2.343,0,4.685,0,7.028,0c1.78,0,1.78-2.811,0-2.811c-2.343,0-4.685,0-7.028,0
					C486.512,99.303,486.512,102.114,488.293,102.114L488.293,102.114z"/>
			</g>
		</g>
		<g>
			<g>
				<path fill="#A05624" d="M508.252,100.334c1.874-0.469,3.748-0.937,5.622-1.406c1.78-0.469,1.031-3.186-0.75-2.717
					c-1.874,0.469-3.748,0.937-5.622,1.406C505.722,97.991,506.471,100.709,508.252,100.334L508.252,100.334z"/>
			</g>
		</g>
		<g>
			<g>
				<path fill="#A05624" d="M526.243,99.303c1.406,0,2.811,0,4.217,0c1.78,0,1.78-2.811,0-2.811c-1.406,0-2.811,0-4.217,0
					C524.463,96.492,524.463,99.303,526.243,99.303L526.243,99.303z"/>
			</g>
		</g>
		<g>
			<g>
				<path fill="#A05624" d="M544.234,99.022c3.748,1.406,7.496,2.717,11.245,4.123c1.687,0.656,2.436-2.061,0.75-2.717
					c-3.748-1.406-7.496-2.717-11.245-4.123C543.297,95.649,542.548,98.366,544.234,99.022L544.234,99.022z"/>
			</g>
		</g>
		<g>
			<g>
				<path fill="#A05624" d="M562.225,107.83c2.811,1.406,4.966,3.654,6.278,6.466c0.75,1.593,3.186,0.187,2.436-1.406
					c-1.499-3.28-4.123-5.903-7.309-7.496C561.944,104.551,560.539,106.987,562.225,107.83L562.225,107.83z"/>
			</g>
		</g>
		<g>
			<g>
				<path fill="#A05624" d="M571.409,122.542c0.937,2.061,1.874,4.123,2.717,6.091c0.75,1.687,3.186,0.187,2.436-1.406
					c-0.937-2.061-1.874-4.123-2.717-6.091C573.095,119.449,570.659,120.855,571.409,122.542L571.409,122.542z"/>
			</g>
		</g>
		<g>
			<g>
				<path fill="#A05624" d="M576,133.693c1.78,0,1.78-2.811,0-2.811C574.126,130.881,574.126,133.693,576,133.693L576,133.693z"/>
			</g>
		</g>
		<g>
			<g>
				<path fill="#A05624" d="M576,133.693c1.78,0,1.78-2.811,0-2.811C574.126,130.881,574.126,133.693,576,133.693L576,133.693z"/>
			</g>
		</g>
		<g>
			<g>
				<path fill="#A05624" d="M576,133.693c1.78,0,1.78-2.811,0-2.811C574.126,130.881,574.126,133.693,576,133.693L576,133.693z"/>
			</g>
		</g>
		<g>
			<g>
				<path fill="#A05624" d="M574.501,132.287c0.281,4.029,1.124,7.871,2.624,11.619c0.656,1.687,3.373,0.937,2.717-0.75
					c-1.406-3.467-2.249-7.122-2.53-10.87C577.125,130.507,574.313,130.507,574.501,132.287L574.501,132.287z"/>
			</g>
		</g>
	</g>
	<g id="cheese">
		<path fill="#C9B528" d="M881.382,509.353c0,2.249,1.78,4.029,3.936,4.029h50.694c2.155,0,3.936-1.78,3.936-4.029V453.13
			c0-2.249-1.78-4.029-3.936-4.029c-6.466,0-11.713-5.435-11.713-12.088c0-6.653,5.247-11.994,11.713-11.994
			c2.155,0,3.936-1.78,3.936-4.029v-16.023c0-2.249-1.78-4.029-3.936-4.029H819.162c-2.155,0-3.936,1.78-3.936,4.029l-0.094,104.387
			c0,2.249,1.78,4.029,3.936,4.029h27.268c2.155,0,3.936-1.78,3.936-4.029c0-8.808,7.028-16.023,15.555-16.023
			C874.354,493.329,881.382,500.451,881.382,509.353L881.382,509.353z M854.208,420.99c0,4.404-3.467,8.059-7.777,8.059
			c-4.31,0-7.777-3.561-7.777-8.059c0-4.404,3.467-8.059,7.777-8.059C850.741,413.025,854.208,416.586,854.208,420.99
			L854.208,420.99z M865.827,441.136c6.466,0,11.713,5.435,11.713,12.088s-5.247,11.994-11.713,11.994
			c-6.466,0-11.713-5.435-11.713-12.088C854.208,446.477,859.455,441.136,865.827,441.136L865.827,441.136z M912.586,465.218
			c4.31,0,7.777,3.561,7.777,8.059c0,4.404-3.467,8.059-7.777,8.059s-7.777-3.561-7.777-8.059
			C904.808,468.779,908.275,465.218,912.586,465.218L912.586,465.218z"/>
		<g>
			<path fill="#F6B545" d="M700.533,747.268l-0.843-3.373c-1.312-5.529-6.372-9.37-12.369-9.37c-5.997,0-11.057,3.842-12.369,9.37
				l-0.843,3.373h-29.423c-4.685,0-8.527-3.842-8.527-8.527V713.16h4.217c7.215,0,12.744-5.529,12.744-12.744
				s-5.529-12.744-12.744-12.744h-4.123v-59.596h73.277l1.312,1.312c1.687,1.687,3.842,2.999,6.372,2.999s4.685-0.843,6.372-2.999
				l1.312-1.312h90.331v20.896l-3.373,0.843c-5.529,1.312-9.37,6.372-9.37,12.369c0,5.997,3.842,11.057,9.37,12.369l3.373,0.843
				v63.438c0,4.685-3.842,8.527-8.527,8.527H700.533V747.268z"/>
			<path fill="#FFCB5B" d="M717.212,632.293c-2.999,0-5.997-1.687-7.215-4.217h-52.849l-1.687-8.059l100.076-43.01h0.843
				c30.641,0.469,55.754,20.428,58.378,46.384l0.469,4.685h-90.706C723.116,630.606,720.117,632.293,717.212,632.293z"/>
			<path fill="#F19920" d="M729.956,666.401c0,9.37,7.59,17.054,17.054,17.054c9.37,0,17.054-7.59,17.054-17.054l0,0
				c0-9.37-7.59-17.054-17.054-17.054S729.956,656.937,729.956,666.401L729.956,666.401z"/>
			<path fill="#E78825" d="M734.173,670.618c0-9.37,7.684-17.054,17.054-17.054c3.373,0,6.84,1.312,9.839,2.999
				c-2.999-4.217-8.059-7.215-14.056-7.215c-9.37,0-17.054,7.684-17.054,17.054c0,5.997,2.999,11.057,7.215,14.056
				C735.485,677.458,734.173,674.085,734.173,670.618z"/>
			<path fill="#F19920" d="M670.36,666.401c0,4.685,3.842,8.527,8.527,8.527c4.685,0,8.527-3.842,8.527-8.527
				c0-4.685-3.842-8.527-8.527-8.527C674.108,657.874,670.36,661.716,670.36,666.401L670.36,666.401z"/>
			<path fill="#F19920" d="M776.808,721.78c0,4.685,3.842,8.527,8.527,8.527c4.685,0,8.527-3.842,8.527-8.527
				c0-4.685-3.842-8.527-8.527-8.527C780.65,713.253,776.808,717.001,776.808,721.78L776.808,721.78z"/>
			<path fill="#F19920" d="M712.902,708.943c0,4.685,3.842,8.527,8.527,8.527c4.685,0,8.527-3.842,8.527-8.527l0,0
				c0-4.685-3.842-8.527-8.527-8.527C716.744,700.416,712.902,704.258,712.902,708.943L712.902,708.943z"/>
			<path fill="#F19920" d="M712.902,708.943c0,4.685,3.842,8.527,8.527,8.527c4.685,0,8.527-3.842,8.527-8.527l0,0
				c0-4.685-3.842-8.527-8.527-8.527C716.744,700.416,712.902,704.258,712.902,708.943L712.902,708.943z"/>
			<path fill="#E78825" d="M717.212,713.253c0-4.685,3.842-8.527,8.527-8.527c1.312,0,2.53,0.469,3.373,0.843
				c-1.312-2.999-4.217-5.154-7.684-5.154c-4.685,0-8.527,3.842-8.527,8.527c0,3.373,2.155,6.372,5.154,7.684
				C717.587,715.783,717.212,714.471,717.212,713.253L717.212,713.253z M781.025,725.997c0-4.685,3.842-8.527,8.527-8.527
				c1.312,0,2.53,0.469,3.373,0.843c-1.312-2.999-4.217-5.154-7.684-5.154c-4.685,0-8.527,3.842-8.527,8.527
				c0,3.373,2.155,6.372,5.154,7.684C781.493,728.527,781.025,727.309,781.025,725.997L781.025,725.997z M674.577,670.618
				c0-4.685,3.842-8.527,8.527-8.527c1.312,0,2.53,0.469,3.373,0.843c-1.312-2.999-4.217-5.154-7.684-5.154
				c-4.685,0-8.527,3.842-8.527,8.527c0,3.373,2.155,6.372,5.154,7.684C675.045,673.148,674.577,671.93,674.577,670.618z"/>
			<path fill="#F6B545" d="M712.902,611.022c0,2.343,3.842,4.217,8.527,4.217c4.685,0,8.527-1.874,8.527-4.217l0,0
				c0-2.343-3.842-4.217-8.527-4.217C716.744,606.712,712.902,608.679,712.902,611.022L712.902,611.022z"/>
			<path fill="#F19920" d="M716.369,612.709c0-2.53,3.842-4.217,8.527-4.217c1.312,0,2.999,0,3.842,0.469
				c-0.843-1.312-3.842-2.155-7.215-2.155c-4.685,0-8.527,1.687-8.527,4.217c0,1.687,1.687,2.999,4.685,3.842
				C716.744,614.021,716.369,613.552,716.369,612.709z"/>
			<path fill="#F6B545" d="M751.227,604.65c0,3.561,5.716,6.372,12.744,6.372s12.744-2.811,12.744-6.372l0,0
				c0-3.561-5.716-6.372-12.744-6.372C756.943,598.185,751.227,601.089,751.227,604.65L751.227,604.65z"/>
			<path fill="#F19920" d="M755.537,608.867c0-3.373,5.529-6.372,12.744-6.372c3.373,0,5.997,0.469,8.527,1.687
				c-0.469-3.373-5.997-5.997-12.744-5.997c-7.215,0-12.744,2.999-12.744,6.372c0,1.687,1.687,3.373,4.217,4.685
				C755.537,609.335,755.537,608.867,755.537,608.867z"/>
		</g>
		<path fill="#FFFFFF" d="M491.01,269.845h253.939v42.448h-7.777c-4.498,0-7.403-1.124-8.808-3.467
			c-1.312-2.343-2.436-4.966-3.373-7.871c-0.937-2.905-2.343-5.529-4.217-8.059c-1.874-2.436-5.622-3.936-10.963-4.31
			c-5.435-0.187-10.307,0.75-14.712,2.811c-4.404,2.155-8.621,4.498-12.65,7.215c-4.029,2.717-8.059,5.154-11.994,7.496
			c-3.936,2.343-8.152,3.467-12.65,3.467s-7.871-1.031-10.12-2.999c-2.249-1.968-4.31-4.217-6.278-6.559
			c-1.874-2.343-4.123-4.498-6.559-6.559c-2.436-1.968-6.091-2.999-10.776-2.999c-4.685,0-9.464,0.75-14.243,2.343
			c-4.779,1.593-9.37,3.28-13.868,5.154c-4.498,1.874-8.996,3.654-13.493,5.154c-4.498,1.593-8.902,2.343-13.212,2.343
			c-4.498,0-8.34-0.562-11.526-1.687c-3.186-1.124-6.372-2.436-9.652-3.842c-3.28-1.406-6.747-2.811-10.495-4.217
			c-3.748-1.312-8.433-2.249-14.056-2.717c-6.278-0.469-12.275,0.375-17.897,2.53c-5.622,2.155-10.495,4.498-14.524,7.215v-32.89
			H491.01z"/>
		<g>
			<g>
				<path fill="#C9B528" d="M829.283,596.31c-2.249,1.968-3.467,4.591-3.748,7.496c-0.187,1.78,2.624,1.78,2.811,0
					c0.187-2.155,1.312-4.029,2.999-5.529C832.656,597.06,830.688,595.092,829.283,596.31L829.283,596.31z"/>
			</g>
		</g>
		<g>
			<g>
				<path fill="#C9B528" d="M836.029,586.097c-0.937,1.124-1.874,2.249-2.811,3.373c-0.469,0.562-0.562,1.406,0,1.968
					c0.469,0.469,1.499,0.562,1.968,0c0.937-1.124,1.874-2.249,2.811-3.373c0.469-0.562,0.562-1.406,0-1.968
					C837.529,585.534,836.591,585.534,836.029,586.097L836.029,586.097z"/>
			</g>
		</g>
		<g>
			<g>
				<path fill="#C9B528" d="M845.868,572.322c-0.937,1.687-1.968,3.467-2.905,5.154c-0.843,1.593,1.499,2.999,2.436,1.406
					c0.937-1.687,1.968-3.467,2.905-5.154C849.242,572.135,846.805,570.729,845.868,572.322L845.868,572.322z"/>
			</g>
		</g>
		<g>
			<g>
				<path fill="#C9B528" d="M852.24,557.329c-1.406,1.593-2.717,3.186-4.123,4.685c-1.218,1.312,0.75,3.373,1.968,1.968
					c1.406-1.593,2.717-3.186,4.123-4.685C855.426,557.985,853.458,555.924,852.24,557.329L852.24,557.329z"/>
			</g>
		</g>
		<g>
			<g>
				<path fill="#C9B528" d="M856.269,546.179c0.094,1.031,0.094,2.061,0.187,3.092c0,0.75,0.656,1.406,1.406,1.406
					c0.75,0,1.406-0.656,1.406-1.406c-0.094-1.031-0.094-2.062-0.187-3.092c0-0.75-0.656-1.406-1.406-1.406
					C857.019,544.773,856.269,545.429,856.269,546.179L856.269,546.179z"/>
			</g>
		</g>
		<g>
			<g>
				<path fill="#C9B528" d="M864.234,530.905c-0.843,1.874-1.687,3.748-2.624,5.622c-0.75,1.593,1.687,3.092,2.436,1.406
					c0.843-1.874,1.687-3.748,2.624-5.622C867.42,530.717,864.984,529.312,864.234,530.905L864.234,530.905z"/>
			</g>
		</g>
		<g>
			<g>
				<path fill="#C9B528" d="M865.078,516.662c1.124,2.249,2.249,4.498,3.373,6.747c0.843,1.593,3.186,0.187,2.436-1.406
					c-1.125-2.249-2.249-4.498-3.373-6.747C866.671,513.663,864.234,515.069,865.078,516.662L865.078,516.662z"/>
			</g>
		</g>
		<g>
			<g>
				<path fill="#C9B528" d="M860.767,501.107c-0.375,1.874-0.094,3.748,0.656,5.435c0.281,0.656,1.312,0.843,1.968,0.469
					c0.75-0.375,0.843-1.218,0.469-1.968c-0.469-1.031-0.562-2.155-0.375-3.28c0.094-0.75-0.187-1.499-0.937-1.687
					C861.798,499.982,860.861,500.357,860.767,501.107L860.767,501.107z"/>
			</g>
		</g>
		<g>
			<g>
				<path fill="#C9B528" d="M873.511,397.751c1.499-3.936,1.874-7.965,1.218-12.088c-0.281-1.78-2.999-1.031-2.717,0.75
					c0.656,3.654,0.187,7.122-1.218,10.589C870.138,398.688,872.855,399.344,873.511,397.751L873.511,397.751z"/>
			</g>
		</g>
		<g>
			<g>
				<path fill="#C9B528" d="M871.824,377.979c1.218-6.934-0.094-13.681-4.029-19.49c-1.031-1.499-3.467-0.094-2.436,1.406
					c3.467,5.154,4.779,11.151,3.748,17.335C868.826,379.01,871.543,379.76,871.824,377.979L871.824,377.979z"/>
			</g>
		</g>
		<g>
			<g>
				<path fill="#C9B528" d="M836.873,342.466c1.874,0,3.748,0,5.622,0c1.78,0,1.78-2.811,0-2.811c-1.874,0-3.748,0-5.622,0
					S834.999,342.466,836.873,342.466L836.873,342.466z"/>
			</g>
		</g>
		<g>
			<g>
				<path fill="#C9B528" d="M852.99,345.089c0.937,0.469,1.874,0.937,2.811,1.406c0.656,0.375,1.499,0.187,1.968-0.469
					c0.375-0.656,0.187-1.593-0.469-1.968c-0.937-0.469-1.874-0.937-2.811-1.406c-0.656-0.375-1.499-0.187-1.968,0.469
					C852.146,343.777,852.334,344.715,852.99,345.089L852.99,345.089z"/>
			</g>
		</g>
		<g>
			<g>
				<path fill="#C9B528" d="M825.253,336.843c-2.53,0.469-5.06,0.094-7.403-1.124c-1.593-0.843-2.999,1.593-1.406,2.436
					c2.999,1.593,6.185,2.062,9.558,1.406C827.783,339.186,827.034,336.469,825.253,336.843L825.253,336.843z"/>
			</g>
		</g>
		<g>
			<g>
				<path fill="#C9B528" d="M783.461,335.344c5.154-0.562,10.307-1.031,15.461-1.593c1.78-0.187,1.78-2.999,0-2.811
					c-5.154,0.562-10.307,1.031-15.461,1.593C781.681,332.72,781.681,335.531,783.461,335.344L783.461,335.344z"/>
			</g>
		</g>
		<g>
			<g>
				<path fill="#C9B528" d="M772.217,332.627c-1.406,0-2.811,0-4.217,0c-1.78,0-1.78,2.811,0,2.811c1.406,0,2.811,0,4.217,0
					C773.997,335.438,773.997,332.627,772.217,332.627L772.217,332.627z"/>
			</g>
		</g>
		<g>
			<g>
				<path fill="#C9B528" d="M750.852,333.939c-2.249,0-4.591,0-6.84,0c-1.78,0-1.78,2.811,0,2.811c2.249,0,4.592,0,6.84,0
					C752.726,336.75,752.726,333.939,750.852,333.939L750.852,333.939z"/>
			</g>
		</g>
		<g>
			<g>
				<path fill="#C9B528" d="M727.988,331.315c-2.905,0.469-5.81,0.843-8.714,1.312c-1.78,0.281-1.031,2.999,0.75,2.717
					c2.905-0.469,5.81-0.843,8.714-1.312C730.518,333.751,729.769,331.034,727.988,331.315L727.988,331.315z"/>
			</g>
		</g>
		<g>
			<g>
				<path fill="#C9B528" d="M709.903,333.376c-1.874,0.562-3.748,1.218-5.622,1.78c-1.687,0.562-1.031,3.28,0.75,2.717
					c1.874-0.562,3.748-1.218,5.622-1.78C712.34,335.531,711.684,332.814,709.903,333.376L709.903,333.376z"/>
			</g>
		</g>
		<g>
			<g>
				<path fill="#C9B528" d="M687.789,346.026c1.124-2.53,2.717-4.685,4.779-6.559c1.312-1.218-0.656-3.186-1.968-1.968
					c-2.155,2.061-3.936,4.404-5.247,7.122C684.603,346.307,687.04,347.713,687.789,346.026L687.789,346.026z"/>
			</g>
		</g>
		<g>
			<g>
				<path fill="#C9B528" d="M680.668,351.555c-1.218,2.249-4.217,2.717-6.372,3.561c-2.155,0.843-3.842,2.062-4.685,4.217
					c-0.656,1.687,2.062,2.436,2.717,0.75c0.843-2.155,3.936-2.717,5.81-3.373c2.062-0.75,3.936-1.78,4.966-3.748
					C683.947,351.367,681.511,349.962,680.668,351.555L680.668,351.555z"/>
			</g>
		</g>
	</g>
	<g id="tomato">
		<g>
			<path fill="#9AD14B" d="M1179.83,245.669l-27.736-11.338l-12.556,18.179l-12.556-18.179l-27.83,11.338l14.805-22.864l1.593-2.436
				l-6.091-15.93l29.985,13.587l29.985-13.587l-6.091,15.93l1.687,2.624L1179.83,245.669z"/>
			<path fill="#F95428" d="M1187.514,229.552c16.305,13.681,26.706,34.202,26.706,57.16c0,41.23-33.452,74.682-74.682,74.682
				s-74.682-33.452-74.682-74.682c0-23.239,10.589-43.947,27.174-57.628c6.466-5.341,13.868-6.559,21.927-6.372l-14.805,22.864
				l27.83-11.338l12.556,18.179l12.556-18.179l27.83,11.338l-14.712-22.676C1173.365,222.805,1180.861,224.023,1187.514,229.552
				L1187.514,229.552z"/>
			<path fill="#E54728" d="M1103.274,286.805c0-19.772,7.684-37.669,20.24-51.069l-24.363,9.933l14.805-22.864
				c-8.059-0.187-15.461,1.031-21.927,6.372c-16.586,13.681-27.174,34.389-27.174,57.628c0,41.23,33.452,74.682,74.682,74.682
				c6.653,0,13.119-0.843,19.209-2.53C1126.794,350.43,1103.274,321.382,1103.274,286.805L1103.274,286.805z"/>
			<path fill="#FFFFFF" d="M1173.177,344.527c-1.218,0-2.343-0.562-2.998-1.687c-1.031-1.687-0.469-3.842,1.124-4.873
				c17.897-11.151,28.486-30.266,28.486-51.256c0-9.933-2.436-19.772-7.121-28.392c-0.937-1.687-0.281-3.842,1.406-4.779
				c1.687-0.937,3.842-0.281,4.779,1.406c5.154,9.745,7.965,20.709,7.965,31.766c0,11.619-2.999,23.145-8.714,33.171
				c-5.529,9.745-13.494,18.085-23.051,23.988C1174.489,344.34,1173.833,344.527,1173.177,344.527L1173.177,344.527z"/>
			<path fill="#90BC42" d="M1142.349,229.083l-2.811,23.52l-12.556-18.179l-27.83,11.338l14.805-22.864l1.593-2.436l-6.091-15.93
				l29.985,13.587l-7.965,6.934L1142.349,229.083z"/>
			<path fill="#FFFFFF" d="M1186.577,248.105c0,1.968,1.593,3.561,3.561,3.561c1.968,0,3.561-1.593,3.561-3.561l0,0
				c0-1.968-1.593-3.561-3.561-3.561C1188.17,244.545,1186.577,246.138,1186.577,248.105L1186.577,248.105z"/>
		</g>
		<g>
			<path fill="#FF8261" d="M937.792,175.766c-2.811-18.647,3.748-35.326,27.081-38.419c18.085-2.343,25.581,1.124,28.486,4.404
				c0.656,0.75,2.061,0.937,2.998,0.375c0.187-0.094,0.375-0.281,0.469-0.375c2.905-3.467,10.401-7.496,28.673-4.404
				c22.395,3.842,29.892,19.772,27.081,38.419c-3.186,21.083-16.305,46.571-56.597,46.571
				C955.69,222.337,940.978,197.037,937.792,175.766z"/>
			<path fill="#FF5C49" d="M995.982,224.773c-9.933,0-19.022-1.499-26.893-4.498c-7.122-2.717-13.306-6.653-18.366-11.619
				c-10.682-10.495-14.524-23.426-15.836-32.515c-1.593-10.401-0.187-19.49,4.029-26.425c2.343-3.936,5.716-7.122,9.745-9.558
				c4.31-2.624,9.652-4.31,15.742-5.06c18.46-2.436,26.893,1.031,30.735,4.685c1.687-1.687,4.592-3.748,9.558-4.873
				c5.622-1.312,12.837-1.218,21.458,0.281c5.81,1.031,10.963,2.811,15.274,5.435c4.123,2.53,7.403,5.716,9.745,9.464
				c4.404,6.934,5.903,15.93,4.404,26.143c-1.406,9.089-5.06,22.114-14.993,32.422
				C1029.997,219.338,1015.004,224.773,995.982,224.773L995.982,224.773z M940.697,175.485c1.218,8.433,4.779,20.428,14.524,29.985
				c9.745,9.558,23.426,14.43,40.761,14.43c17.148,0,30.548-4.873,39.918-14.43c9.089-9.37,12.463-21.458,13.774-29.985
				c1.406-9.183,0.094-17.242-3.748-23.332c-4.217-6.559-11.245-10.776-20.99-12.369c-7.684-1.312-13.962-1.406-18.647-0.375
				c-3.092,0.75-5.529,1.968-6.934,3.654c-0.937,1.124-2.436,1.78-4.029,1.78c-1.687,0-3.186-0.562-4.217-1.687
				c-1.406-1.499-3.842-2.717-7.028-3.373c-4.685-1.031-10.963-1.031-18.741,0c-9.933,1.312-17.054,5.341-21.177,12.088
				C940.51,157.868,939.291,166.02,940.697,175.485L940.697,175.485z"/>
			<path fill="#FF5C49" d="M990.454,155.526c0-3.467-3.186-6.372-7.309-6.559c-2.624-0.094-5.716,0-9.558,0.469
				c-16.586,2.155-21.271,14.056-19.303,27.362c1.78,11.994,8.808,25.769,25.769,31.016c5.06,1.593,10.307-1.687,10.307-6.184
				L990.454,155.526L990.454,155.526z M1016.691,149.435c-3.654-0.656-6.747-0.843-9.37-0.75c-4.217,0.094-7.59,2.999-7.59,6.559
				v46.665c0,4.498,5.247,7.684,10.214,6.278c17.617-4.966,24.082-19.209,25.956-31.297
				C1037.962,163.584,1032.621,152.152,1016.691,149.435L1016.691,149.435z"/>
			<path fill="#FFD902" d="M974.618,166.02c2.53,1.687,5.529,2.249,6.653,1.124c1.124-1.124,0-3.467-2.53-5.154
				c-1.874-2.061-5.341-3.28-7.403-2.999c-2.062,0.281-2.155,2.249-0.281,4.31C971.994,164.334,973.212,165.177,974.618,166.02z"/>
			<path fill="#FFD902" d="M972.088,193.944c1.031,1.218,3.936,0.843,6.466-0.843c2.53-1.687,3.842-4.029,2.811-5.247
				c-0.094-0.094-0.094-0.187-0.187-0.187c-1.031-1.218-4.029-0.75-6.559,0.937s-3.748,4.029-2.717,5.154
				C971.994,193.851,972.088,193.944,972.088,193.944z"/>
			<path fill="#FFD902" d="M965.903,177.546c0,1.499,2.624,2.717,5.903,2.717c3.28,0,5.903-1.218,5.903-2.717
				c0-1.499-2.624-2.717-5.903-2.717C968.527,174.829,965.903,176.047,965.903,177.546z"/>
			<path fill="#FFD902" d="M1009.007,167.145c1.968,1.874,3.842,3.28,8.059,0.281c4.31-2.905,6.184-6.84,4.217-8.714
				c0,0,0,0-3.186,2.155c1.218-2.061-2.343-3.28-4.873-2.999c-2.53,0.281-5.529,2.061-6.653,4.123
				c-1.218,2.061-0.187,3.467,2.343,3.28C1009.195,165.177,1009.476,165.177,1009.007,167.145z"/>
			<path fill="#FFD902" d="M1011.537,192.914c2.53,1.687,5.529,2.249,6.653,1.124c1.124-1.124,0-3.467-2.53-5.154l0,0
				c-2.624-1.78-5.622-2.343-6.84-1.218C1007.695,188.791,1008.82,191.133,1011.537,192.914
				C1011.444,193.007,1011.444,193.007,1011.537,192.914z"/>
			<path fill="#FFD902" d="M1012.662,177.546c0,1.499,2.624,2.717,5.903,2.717s5.903-1.218,5.903-2.717
				c0-1.499-2.624-2.717-5.903-2.717S1012.662,176.047,1012.662,177.546z"/>
		</g>
		<g>
			<g>
				<path fill="#F75A2A" d="M1060.264,264.785c0.843,1.218,1.687,2.436,2.53,3.748c0.469,0.656,1.218,0.937,1.968,0.469
					c0.656-0.375,0.937-1.312,0.469-1.968c-0.843-1.218-1.687-2.436-2.53-3.748c-0.469-0.656-1.218-0.937-1.968-0.469
					C1060.076,263.192,1059.795,264.129,1060.264,264.785L1060.264,264.785z"/>
			</g>
		</g>
		<g>
			<g>
				<path fill="#F75A2A" d="M1053.142,251.385c0.656,2.53,1.874,4.779,3.467,6.84c1.124,1.406,3.092-0.562,1.968-1.968
					c-1.312-1.687-2.249-3.561-2.717-5.622C1055.391,248.855,1052.674,249.605,1053.142,251.385L1053.142,251.385z"/>
			</g>
		</g>
		<g>
			<g>
				<path fill="#F75A2A" d="M1048.644,234.799c-0.094,2.53,0.656,4.966,2.155,6.934c1.124,1.406,3.561,0,2.436-1.406
					c-1.218-1.593-1.874-3.467-1.78-5.529C1051.549,232.925,1048.738,232.925,1048.644,234.799L1048.644,234.799z"/>
			</g>
		</g>
		<g>
			<g>
				<path fill="#F75A2A" d="M1045.552,217.277c-0.094,2.53,0.656,4.873,2.062,6.934c1.031,1.499,3.467,0.094,2.436-1.406
					c-1.124-1.687-1.78-3.467-1.687-5.529C1048.457,215.496,1045.646,215.496,1045.552,217.277L1045.552,217.277z"/>
			</g>
		</g>
		<g>
			<g>
				<path fill="#F75A2A" d="M931.701,180.919c-2.53,1.031-5.06,1.968-7.59,2.999c-1.687,0.656-0.937,3.373,0.75,2.717
					c2.53-1.031,5.06-1.968,7.59-2.999C934.044,182.981,933.388,180.264,931.701,180.919L931.701,180.919z"/>
			</g>
		</g>
		<g>
			<g>
				<path fill="#F75A2A" d="M912.398,189.447c-2.061,1.874-4.217,3.748-6.278,5.529c-1.312,1.218,0.656,3.186,1.968,1.968
					c2.062-1.874,4.217-3.748,6.278-5.529C915.678,190.29,913.71,188.322,912.398,189.447L912.398,189.447z"/>
			</g>
		</g>
		<g>
			<g>
				<path fill="#F75A2A" d="M900.123,203.971c-1.406,2.155-2.811,4.217-4.217,6.372c-1.031,1.499,1.406,2.905,2.436,1.406
					c1.406-2.155,2.811-4.217,4.217-6.372C903.59,203.877,901.154,202.471,900.123,203.971L900.123,203.971z"/>
			</g>
		</g>
		<g>
			<g>
				<path fill="#F75A2A" d="M889.253,224.117c-3.28,0.843-6.653,1.687-9.933,2.53c-1.78,0.469-1.031,3.186,0.75,2.717
					c3.28-0.843,6.653-1.687,9.933-2.53C891.69,226.366,890.94,223.649,889.253,224.117L889.253,224.117z"/>
			</g>
		</g>
		<g>
			<g>
				<path fill="#F75A2A" d="M868.076,230.021c-3.561,1.312-7.215,2.624-10.776,3.936c-1.687,0.656-0.937,3.373,0.75,2.717
					c3.561-1.312,7.215-2.624,10.776-3.936C870.512,232.082,869.763,229.365,868.076,230.021L868.076,230.021z"/>
			</g>
		</g>
		<g>
			<g>
				<path fill="#F75A2A" d="M849.616,237.048c-3.467,0-6.934,0.281-10.307,0.843c-1.78,0.281-1.031,2.999,0.75,2.717
					c3.186-0.469,6.372-0.656,9.558-0.75C851.397,239.859,851.397,237.048,849.616,237.048L849.616,237.048z"/>
			</g>
		</g>
		<g>
			<g>
				<path fill="#F75A2A" d="M797.329,248.574c2.155,0.562,4.404,0.843,6.653,0.656c1.78-0.094,1.78-2.905,0-2.811
					c-1.968,0.094-3.936-0.094-5.903-0.562C796.392,245.482,795.643,248.199,797.329,248.574L797.329,248.574z"/>
			</g>
		</g>
		<g>
			<g>
				<path fill="#F75A2A" d="M834.249,240.422c-2.717,0.656-5.435,1.218-8.152,1.874c-1.78,0.375-1.031,3.092,0.75,2.717
					c2.717-0.656,5.435-1.218,8.152-1.874C836.779,242.764,836.029,240.047,834.249,240.422L834.249,240.422z"/>
			</g>
		</g>
		<g>
			<g>
				<path fill="#F75A2A" d="M818.319,244.826c-0.656,0.375-1.312,0.562-2.061,0.375c-1.78-0.375-2.53,2.249-0.75,2.717
					c1.406,0.375,2.999,0.094,4.217-0.656C821.224,246.325,819.818,243.889,818.319,244.826L818.319,244.826z"/>
			</g>
		</g>
		<g>
			<g>
				<path fill="#F75A2A" d="M788.334,244.638c-2.717,0-5.435,0-8.152,0c-1.78,0-1.78,2.811,0,2.811c2.717,0,5.435,0,8.152,0
					C790.208,247.449,790.208,244.638,788.334,244.638L788.334,244.638z"/>
			</g>
		</g>
		<g>
			<g>
				<path fill="#F75A2A" d="M772.779,244.076c-3.373,0.187-6.653,0.375-10.026,0.656c-1.78,0.094-1.78,2.905,0,2.811
					c3.373-0.187,6.653-0.375,10.026-0.656C774.559,246.794,774.559,243.982,772.779,244.076L772.779,244.076z"/>
			</g>
		</g>
		<g>
			<g>
				<path fill="#F75A2A" d="M752.726,244.919c-2.343,1.218-4.591,2.436-6.934,3.654c-1.593,0.843-0.187,3.28,1.406,2.436
					c2.343-1.218,4.592-2.436,6.934-3.654C755.725,246.512,754.319,244.076,752.726,244.919L752.726,244.919z"/>
			</g>
		</g>
		<g>
			<g>
				<path fill="#F75A2A" d="M739.795,251.385c-1.874,0.656-3.748,1.312-5.622,1.968c-1.687,0.562-0.937,3.28,0.75,2.717
					c1.874-0.656,3.748-1.312,5.622-1.968C742.231,253.447,741.575,250.729,739.795,251.385L739.795,251.385z"/>
			</g>
		</g>
		<g>
			<g>
				<path fill="#F75A2A" d="M728.832,254.102c-1.874,1.312-3.748,2.53-5.529,3.842c-1.499,1.031-0.094,3.467,1.406,2.436
					c1.874-1.312,3.748-2.53,5.529-3.842C731.737,255.508,730.331,253.072,728.832,254.102L728.832,254.102z"/>
			</g>
		</g>
		<g>
			<g>
				<path fill="#F75A2A" d="M714.87,262.536c-1.406,1.406-2.905,2.624-4.685,3.561c-1.593,0.843-0.187,3.28,1.406,2.436
					c1.968-1.031,3.748-2.343,5.247-3.936C718.149,263.192,716.182,261.224,714.87,262.536L714.87,262.536z"/>
			</g>
		</g>
	</g>
</g>
</svg>
