<?xml version="1.0" encoding="utf-8"?>
<!-- Generator: Adobe Illustrator 17.0.0, SVG Export Plug-In . SVG Version: 6.00 Build 0)  -->
<!DOCTYPE svg PUBLIC "-//W3C//DTD SVG 1.1//EN" "http://www.w3.org/Graphics/SVG/1.1/DTD/svg11.dtd">
<svg version="1.1" id="Layer_1" xmlns="http://www.w3.org/2000/svg" xmlns:xlink="http://www.w3.org/1999/xlink" x="0px" y="0px"
	 width="1280px" height="800px" viewBox="0 0 1280 800" enable-background="new 0 0 1280 800" xml:space="preserve">
<rect x="21.818" y="0" fill="#050505" stroke="#000000" stroke-miterlimit="10" width="1236.364" height="800"/>
<path fill="#F9F7F7" d="M219.293,67.778H88.99c-6.465,0-13.03,5.051-13.03,12.525v225.152c0,6.263,5.253,12.525,13.03,12.525
	h130.303c6.465,0,13.03-5.051,13.03-12.525V80.303C232.323,74.04,227.071,67.778,219.293,67.778L219.293,67.778z M154.141,305.455
	c-7.778,0-13.03-5.051-13.03-12.525c0-7.475,5.253-12.525,13.03-12.525s13.03,5.051,13.03,12.525
	C167.172,300.404,161.919,305.455,154.141,305.455L154.141,305.455z M206.263,267.879H102.02V92.828h104.242V267.879
	L206.263,267.879z"/>
<path fill="#F9F7F7" d="M198.788,666.061h-31.515v-19.293c0-3.333-2.727-6.061-6.061-6.061c-3.333,0-6.061,2.727-6.061,6.061v19.293
	h-31.515l0,0c-3.333,0-6.061,2.727-6.061,6.061s2.727,6.061,6.061,6.061l0,0h75.152c3.333,0,6.061-2.727,6.061-6.061
	S202.121,666.061,198.788,666.061z"/>
<path fill="#F9F7F7" d="M249.091,547.071c-3.333,0-6.061,2.727-6.061,6.061v65.556H79.394v-88.384h169.697l0,0
	c3.333,0,6.061-2.727,6.061-6.061s-2.727-6.061-6.061-6.061l0,0H73.333l0,0l0,0c-3.333,0-6.061,2.727-6.061,6.061l0,0v100.505l0,0
	c0,3.333,2.727,6.061,6.061,6.061l0,0l0,0h175.758l0,0c3.333,0,6.061-2.727,6.061-6.061v-71.616
	C255.152,549.798,252.424,547.071,249.091,547.071z"/>
<g id="Layer_6">
	<path fill="#F9F9F9" d="M413.131,248.687c-2.626,0-3.333-2.424-3.737-4.04c-0.707-1.616,0.404-4.04-7.374-19.495
		c-4.444-8.485-4.444-9.394-7.374-17.071c-2.626-6.465-5.152-20.707-7.778-25.96c-1.818-4.04-7.071-10.606-7.071-10.606
		s5.96-6.465,14.444-4.444c6.263,1.616,10,6.061,11.515,8.485v-44.747c0-6.465,1.818-16.263,9.293-16.263
		c7.475,0,9.293,9.798,9.293,16.263v24.343c0-4.848,5.96-8.99,10.404-7.677c7.071,1.616,8.182,9.798,8.182,10.202
		c1.818-3.232,5.556-6.869,11.111-4.444c5.152,2.424,6.667,8.081,6.263,11.01c0.404-2.02,4.444-5.657,8.586-4.848
		c8.586,2.02,7.374,10.606,7.374,16.263v16.667c0,0.808,0.404,19.091-8.889,36.97c-6.263,12.222-5.96,16.263-6.263,16.667
		c-0.404,1.616-1.818,2.828-3.333,2.828L413.131,248.687L413.131,248.687L413.131,248.687L413.131,248.687z"/>
</g>
<path fill="#F9F9F9" d="M766.162,215.556c4.242,0,7.677,3.838,7.677,8.485c0,4.848-3.535,8.586-7.677,8.586H654.242
	c-4.242,0-7.677-3.838-7.677-8.586c0-4.646,3.535-8.485,7.677-8.485H766.162L766.162,215.556z M624.444,115.556
	c5.556,0,9.899,4.95,9.899,10.909c0,6.061-4.343,10.909-9.899,10.909c-5.354,0-9.899-4.848-9.899-10.909
	C614.545,120.606,619.091,115.556,624.444,115.556z M654.343,136.364c-4.242,0-7.677-3.939-7.677-8.586
	c0-4.646,3.535-8.586,7.677-8.586h111.919c4.242,0,7.677,3.939,7.677,8.586c0,4.646-3.535,8.586-7.677,8.586H654.343z
	 M654.343,187.576c-4.242,0-7.677-3.939-7.677-8.586s3.535-8.586,7.677-8.586h111.919c4.242,0,7.677,3.939,7.677,8.586
	s-3.535,8.586-7.677,8.586H654.343z M624.444,165.152c5.556,0,9.899,4.848,9.899,10.909c0,5.96-4.343,10.909-9.899,10.909
	c-5.354,0-9.899-4.949-9.899-10.909C614.545,169.899,619.091,165.152,624.444,165.152z M624.444,214.444
	c5.556,0,9.899,4.949,9.899,10.909c0,6.061-4.343,10.909-9.899,10.909c-5.354,0-9.899-4.848-9.899-10.909
	C614.545,219.394,619.091,214.444,624.444,214.444z"/>
<path fill="#FFFFFF" d="M428.081,497.879c-30.505,0-55.253,24.747-55.253,55.253v63.434c0,30.505,24.747,55.253,55.253,55.253
	c30.505,0,55.253-24.747,55.253-55.253v-63.434C483.333,522.626,458.586,497.879,428.081,497.879z M472.222,616.566
	c0,24.343-19.798,44.141-44.242,44.141c-24.444,0-44.141-19.798-44.141-44.141v-63.434c0-24.343,19.798-44.141,44.141-44.141
	c24.444,0,44.242,19.798,44.242,44.141V616.566z"/>
<path fill="#FFFFFF" d="M419.293,538.384c0-4.04,3.939-7.374,8.788-7.374s8.788,3.232,8.788,7.374v22.121
	c0,4.04-3.939,7.374-8.788,7.374c-4.848,0-8.788-3.232-8.788-7.374V538.384z"/>
<path fill="#F9F6F4" d="M656.566,629.596c-2.424,0-4.646-0.909-6.263-2.626c-1.515-1.515-2.525-3.737-2.525-6.061
	c0-2.323,0.909-4.545,2.626-6.162l55.556-55.556c3.333-3.333,8.788-3.333,12.222-0.101c3.434,3.535,3.434,8.99,0.101,12.424
	l-55.556,55.556C661.212,628.687,658.99,629.596,656.566,629.596L656.566,629.596z M658.283,622.525L658.283,622.525
	L658.283,622.525z M654.95,619.192L654.95,619.192L654.95,619.192z"/>
<path fill="#F9F6F4" d="M711.515,604.343c-1.01,0-2.02,0-3.03-0.101c-5.051-0.505-8.586-4.747-8.182-9.495
	c0.202-2.424,1.313-4.545,3.232-6.061c1.818-1.414,4.242-2.02,6.364-1.919c5.758,0.606,11.01-1.414,14.949-5.354l15.758-15.859
	c7.374-7.374,7.374-19.495,0-26.97l-1.818-1.818c-3.535-3.535-8.384-5.556-13.434-5.556c-5.051,0-9.899,2.02-13.434,5.556
	l-15.859,15.859c-3.939,3.939-5.859,9.394-5.354,15.051c0.404,4.747-3.131,8.99-7.879,9.495c-2.323,0.101-4.646-0.404-6.364-2.02
	c-1.818-1.515-2.929-3.535-3.131-5.859c-1.01-10.808,2.828-21.414,10.505-28.99l15.758-15.859c14.242-14.242,37.374-14.242,51.616,0
	l1.818,1.717c14.242,14.343,14.242,37.475,0,51.717l-15.758,15.859C730.303,600.606,721.212,604.343,711.515,604.343
	L711.515,604.343z M708.687,597.879L708.687,597.879z M645.253,670.505c-9.798,0-18.99-3.838-25.859-10.707l-1.818-1.717
	c-6.869-6.869-10.707-16.061-10.707-25.758s3.838-18.99,10.707-25.758l15.758-15.859c7.576-7.576,18.283-11.414,28.99-10.505
	c2.222,0.202,4.343,1.212,5.859,3.03c1.515,1.717,2.222,4.141,2.02,6.364c-0.505,4.747-4.242,8.283-9.394,7.98
	c-5.657-0.505-11.111,1.414-15.152,5.354l-15.758,15.859c-3.535,3.535-5.556,8.384-5.556,13.434c0,5.051,2.02,9.899,5.556,13.434
	l1.818,1.818c7.374,7.374,19.495,7.374,26.869-0.101l15.859-15.859c3.939-3.939,5.859-9.394,5.354-14.949
	c-0.404-4.747,3.131-8.99,7.879-9.495c2.02-0.101,4.646,0.505,6.364,2.02c1.818,1.515,2.929,3.636,3.131,5.96
	c1.01,10.808-2.828,21.313-10.404,28.889l-15.859,15.859C664.242,666.667,655.051,670.505,645.253,670.505z M686.263,616.061
	L686.263,616.061z M661.414,591.212L661.414,591.212L661.414,591.212z"/>
<path fill="#DD1B93" d="M187.98,380c-1.414,5.354-2.828,10.303-4.141,12.626l-4.04,4.747l-14.747,16.566l-21.111,23.636
	l-4.141,4.646l-3.333,3.838l-8.283-9.293l3.333-3.838l4.141-4.646l21.111-23.636l14.747-16.566l4.242-4.545
	c1.313-1.01,4.343-2.626,11.111-4.646c0.505-0.101,0.909-0.303,1.414-0.303C188.182,379.091,188.081,379.596,187.98,380
	 M185.253,372.525c-7.475,2.222-12.222,4.444-14.444,6.97L152.626,400l-28.586,32.121c-2.222,2.525-2.222,6.667,0,9.293l8.283,9.293
	c2.323,2.525,5.96,2.525,8.283,0l28.586-32.121l18.283-20.505c2.323-2.525,3.737-7.273,6.162-16.263c0,0,1.818-7.273,0-9.293
	C191.717,370.505,185.253,372.525,185.253,372.525 M130.101,466.97l-6.364-7.172l0,0l-1.212-1.313l0,0l-4.141,4.646l0,0
	l-9.192,10.404l-3.535-3.939l9.192-10.404l0,0l4.141-4.646l0,0l-1.212-1.313l0,0l-6.667-7.576l3.03-3.434l19.091,21.414
	L130.101,466.97L130.101,466.97z M116.97,436.162c-1.616-1.818-4.242-1.818-5.859,0l-5.354,6.061c-1.616,1.818-1.616,4.747,0,6.566
	l4.95,5.556l-10.404,11.717c-1.616,1.818-1.616,4.747,0,6.566l5.859,6.566c1.616,1.818,4.242,1.818,5.859,0l10.404-11.515
	l4.646,5.253c1.616,1.818,4.242,1.818,5.859,0l5.354-6.061c1.616-1.818,1.616-4.747,0-6.566L116.97,436.162L116.97,436.162z
	 M175.253,462.929l19.091-21.414l3.03,3.333l-6.667,7.576l0,0l-1.212,1.313l0,0l4.141,4.646l0,0l9.192,10.404l-3.535,3.939
	l-9.192-10.404l-4.141-4.646l0,0l-1.212,1.313l0,0l-6.364,7.172L175.253,462.929L175.253,462.929z M169.899,459.697
	c-1.616,1.818-1.616,4.747,0,6.566l5.354,6.061c1.616,1.818,4.242,1.818,5.859,0l4.646-5.253l10.404,11.717
	c1.616,1.818,4.242,1.818,5.859,0l5.859-6.566c1.616-1.818,1.616-4.747,0-6.566l-10.303-11.818l4.949-5.556
	c1.616-1.818,1.616-4.747,0-6.566l-5.354-6.061c-1.616-1.818-4.242-1.818-5.859,0L169.899,459.697L169.899,459.697z"/>
<path fill="#DD1B93" d="M175.859,387.172l-13.232,14.242c-0.404,0.505-0.505,1.212,0,1.717c0.404,0.505,1.111,0.505,1.515,0l0,0
	l13.232-14.242c0.404-0.505,0.505-1.212,0-1.717C176.97,386.768,176.263,386.667,175.859,387.172L175.859,387.172z M160.202,403.939
	l-0.606,0.707c-0.404,0.505-0.404,1.313,0,1.717c0.404,0.404,1.111,0.505,1.515,0l0,0l0.606-0.707c0.404-0.505,0.404-1.313,0-1.717
	C161.313,403.434,160.606,403.434,160.202,403.939L160.202,403.939z"/>
<path fill="#DD1B93" d="M170,426.465l1.616,1.818l4.141,4.646l3.333,3.838l-8.283,9.293l-3.333-3.838l-4.141-4.646l-1.616-1.818
	l-4.141,4.646l9.192,10.303c2.323,2.525,5.96,2.525,8.283,0l8.283-9.293c2.222-2.525,2.222-6.667,0-9.293l-9.192-10.303L170,426.465
	L170,426.465z M113.737,381.818c2.424,8.99,3.939,13.737,6.162,16.263l12.828,14.444l4.141-4.646l-9.394-10.505l-4.04-4.747
	c-1.313-2.222-2.727-7.273-4.141-12.626c-0.101-0.505-0.202-1.01-0.303-1.515c0.505,0.101,1.01,0.202,1.414,0.303
	c6.869,2.02,9.798,3.636,11.111,4.646l4.242,4.545l9.394,10.505l4.141-4.646l-12.828-14.444c-2.222-2.525-6.97-4.747-14.444-6.97
	c0,0-6.465-2.02-8.283,0C112.02,374.545,113.737,381.818,113.737,381.818"/>
<path fill="#FFFFFF" stroke="#000000" stroke-miterlimit="10" d="M1103.636,285.859h-93.939c-6.667,0-12.121-5.455-12.121-12.121
	V97.98c0-6.667,5.455-12.121,12.121-12.121h93.939c6.667,0,12.121,5.455,12.121,12.121v175.758
	C1115.758,280.404,1110.303,285.859,1103.636,285.859z"/>
<path fill="#FFFFFF" stroke="#000000" stroke-miterlimit="10" d="M1173.838,657.879H939.495c-6.667,0-12.121-5.455-12.121-12.121
	V536.667c0-6.667,5.455-12.121,12.121-12.121h234.343c6.667,0,12.121,5.455,12.121,12.121v109.192
	C1185.96,652.424,1180.505,657.879,1173.838,657.879z"/>
<path fill="#050505" stroke="#000000" stroke-width="1.3946" stroke-miterlimit="10" d="M1081.414,256.97h-49.495
	c-6.667,0-12.121-5.455-12.121-12.121V122.222c0-6.667,5.455-12.121,12.121-12.121h49.495c6.667,0,12.121,5.455,12.121,12.121
	v122.525C1093.535,251.414,1088.081,256.97,1081.414,256.97z"/>
<path fill="#050505" stroke="#000000" stroke-miterlimit="10" d="M1158.182,636.667h-203.03c-6.667,0-12.121-5.455-12.121-12.121
	v-66.97c0-6.667,5.455-12.121,12.121-12.121h203.03c6.667,0,12.121,5.455,12.121,12.121v67.071
	C1170.303,631.212,1164.849,636.667,1158.182,636.667z"/>
</svg>
