<?xml version="1.0" encoding="utf-8"?>
<!-- Generator: Adobe Illustrator 22.1.0, SVG Export Plug-In . SVG Version: 6.00 Build 0)  -->
<svg version="1.1" id="Layer_1" xmlns="http://www.w3.org/2000/svg" xmlns:xlink="http://www.w3.org/1999/xlink" x="0px" y="0px"
	 viewBox="0 0 612 792" style="enable-background:new 0 0 612 792;" xml:space="preserve">
<style type="text/css">
	.st0{stroke:#000000;stroke-width:1.1098;stroke-miterlimit:10;}
	.st1{fill:#F8F7F8;}
	.st2{font-family:'ArialMT';}
	.st3{font-size:36px;}
	.st4{fill:#6B7431;}
	.st5{font-family:'BlackadderITC-Regular';}
	.st6{font-family:'Broadway';}
	.st7{fill:#5496D0;}
	.st8{font-family:'GillSans-UltraBoldCondensed';}
	.st9{fill:#FEDE00;}
	.st10{fill:#FFD108;}
	.st11{fill:#F8F4F5;}
	.st12{font-size:21px;}
	.st13{font-size:22.563px;}
	.st14{font-size:35.0152px;}
	.st15{font-size:17.8522px;}
	.st16{fill:#8A2167;}
	.st17{font-size:19.319px;}
	.st18{font-size:20.9998px;}
	.st19{fill:#B95EA4;}
	.st20{font-size:21.0021px;}
	.st21{fill:#A7D7F4;}
	.st22{fill:#64BC46;}
	.st23{fill:#80BAE5;}
	.st24{fill:#BCE6FB;}
	.st25{fill:#8BD5EB;}
	.st26{fill:#DFE672;}
	.st27{fill:#F4EDEF;}
	.st28{font-family:'AgencyFB-Reg';}
	.st29{font-size:97.0576px;}
	.st30{fill:#EE2467;}
	.st31{fill:#F9F9F9;}
	.st32{font-size:36.6281px;}
	.st33{font-size:36.8219px;}
</style>
<g id="Layer_1_1_">
	<rect x="-62.3" y="-47" class="st0" width="704" height="848"/>
</g>
<text transform="matrix(1 0 0 1 82.9533 76.7754)" class="st1 st2 st3">Burger Republic</text>
<text transform="matrix(1 0 0 1 82.9533 119.9754)" class="st1 st2 st3">Your Burger</text>
<text transform="matrix(1 0 0 1 82.9533 163.1754)" class="st1 st2 st3">Burger Burp</text>
<text transform="matrix(1 0 0 1 353.7205 203.9149)" class="st4 st5 st3">Burger Republic</text>
<text transform="matrix(1 0 0 1 353.7205 247.1149)" class="st1 st6 st3">Your Burger</text>
<text transform="matrix(1 0 0 1 353.7205 290.3149)" class="st7 st8 st3">B</text>
<text transform="matrix(1 0 0 1 375.1205 290.3149)" class="st9 st8 st3">ur</text>
<text transform="matrix(1 0 0 1 411.1205 290.3149)" class="st7 st8 st3">ger B</text>
<text transform="matrix(1 0 0 1 496.5205 290.3149)" class="st10 st8 st3">ur</text>
<text transform="matrix(1 0 0 1 532.5205 290.3149)" class="st7 st8 st3">p</text>
<text transform="matrix(0.9576 -0.2881 0.2881 0.9576 67.7549 417.6045)" class="st11 st8 st12">Words</text>
<text transform="matrix(0.7782 0.2431 -0.2982 0.9545 127.4314 396.9837)" class="st11 st8 st13">Words</text>
<text transform="matrix(0.8116 0 0 1 180.4199 438.252)" class="st11 st8 st14">Words</text>
<text transform="matrix(1.2011 -0.4584 0.3566 0.9343 127.4309 475.5792)" class="st11 st8 st15">Words</text>
<text transform="matrix(1 0 0 1 65.0406 438.2521)" class="st16 st8 st12">Words</text>
<text transform="matrix(1.1274 0 0 1 121.6289 431.1592)" class="st11 st8 st17">Words</text>
<text transform="matrix(0.9133 0.4072 -0.4072 0.9133 65.3029 449.6124)" class="st11 st8 st18">Words</text>
<text transform="matrix(0.8559 -0.5171 0.5171 0.8559 300.511 517.5377)" class="st19 st8 st12">Picture</text>
<text transform="matrix(0.8448 0.5351 -0.5351 0.8448 28.7908 499.7865)" class="st19 st8 st12">Picture</text>
<text transform="matrix(0.9114 -0.4116 0.4116 0.9114 72.8717 364.0077)" class="st19 st8 st20">Picture</text>
<text transform="matrix(1 0 0 1 154.4045 325.283)" class="st19 st8 st12">Picture</text>
<text transform="matrix(0.3848 0.923 -0.923 0.3848 325.6126 412.5002)" class="st21 st8 st12">Video</text>
<text transform="matrix(1 0 0 1 166.0324 553.9652)" class="st22 st8 st12">Music</text>
<text transform="matrix(0.9069 0.4214 -0.4214 0.9069 238.8242 325.2829)" class="st23 st8 st12">Video</text>
<text transform="matrix(1 0 0 1 98.482 550.4548)" class="st24 st8 st12">Video</text>
<text transform="matrix(0.9165 -0.4001 0.4001 0.9165 235.1974 550.4547)" class="st25 st8 st12">Video</text>
<text transform="matrix(0.6631 0.7485 -0.7485 0.6631 289.6805 354.8823)" class="st22 st8 st12">Music</text>
<text transform="matrix(1 0 0 1 193.6448 503.1666)" class="st26 st8 st12">Diversity</text>
<text transform="matrix(0.8926 0 0 1 330.7205 684.9834)" class="st27 st28 st29">20</text>
<text transform="matrix(0.8926 0 0 1 407.0361 684.9834)" class="st30 st28 st29">18</text>
<text transform="matrix(1.9256 0 0 1 166.0324 654.3057)" class="st31 st28 st32">2011</text>
<text transform="matrix(1.2399 0 0 1 487.5205 746.8486)" class="st31 st28 st33">2005</text>
<text transform="matrix(1.2399 0 0 1 416.5205 553.9658)" class="st31 st28 st33">1999</text>
<text transform="matrix(1.2399 0 0 1 201.5112 746.8486)" class="st31 st28 st33">1986</text>
</svg>
