<?xml version="1.0" encoding="utf-8"?>
<!-- Generator: Adobe Illustrator 17.0.0, SVG Export Plug-In . SVG Version: 6.00 Build 0)  -->
<!DOCTYPE svg PUBLIC "-//W3C//DTD SVG 1.1//EN" "http://www.w3.org/Graphics/SVG/1.1/DTD/svg11.dtd">
<svg version="1.1" id="Layer_1" xmlns="http://www.w3.org/2000/svg" xmlns:xlink="http://www.w3.org/1999/xlink" x="0px" y="0px"
	 width="1280px" height="800px" viewBox="0 0 1280 800" enable-background="new 0 0 1280 800" xml:space="preserve">
<g id="Layer_1_1_">
	<rect x="0" stroke="#000000" stroke-width="1.1098" stroke-miterlimit="10" width="1280" height="800"/>
</g>
<rect x="102.5" y="121.187" opacity="0.8" fill="#A155FF" enable-background="new    " width="303.106" height="76.313"/>
<text transform="matrix(1 0 0 1 128.5003 169.8233)" fill="#F8F7F8" font-family="'ArialMT'" font-size="36.3636">Burger Republic</text>
<rect x="496.903" y="121.187" opacity="0.8" fill="#00E9E6" enable-background="new    " width="303.106" height="76.313"/>
<text transform="matrix(1 0 0 1 555.4553 169.8233)" fill="#F8F7F8" font-family="'ArialMT'" font-size="36.3636">Your Burger</text>
<rect x="888.962" y="121.187" opacity="0.8" fill="#FFAB00" enable-background="new    " width="303.106" height="76.313"/>
<text transform="matrix(1 0 0 1 949.9624 169.8233)" fill="#F8F7F8" font-family="'ArialMT'" font-size="36.3636">Burger Burp</text>
<text transform="matrix(0.8926 0 0 1 921.7393 731.9032)" fill="#F4EDEF" font-family="'AgencyFB-Reg'" font-size="98.038">20</text>
<text transform="matrix(0.8926 0 0 1 998.8262 731.9032)" fill="#EE2467" font-family="'AgencyFB-Reg'" font-size="98.038">18</text>
<text transform="matrix(1.2399 0 0 1 759.1456 731.9032)" fill="#F9F9F9" font-family="'AgencyFB-Reg'" font-size="46">20</text>
<text transform="matrix(1.9256 0 0 1 806.1552 731.9032)" fill="#F9F9F9" font-family="'AgencyFB-Reg'" font-size="46">11</text>
<text transform="matrix(1.2399 0 0 1 592.1055 731.9032)" fill="#F9F9F9" font-family="'AgencyFB-Reg'" font-size="46">2005</text>
<text transform="matrix(1.2399 0 0 1 438.3828 731.9032)" fill="#F9F9F9" font-family="'AgencyFB-Reg'" font-size="46">1999</text>
<text transform="matrix(1.2399 0 0 1 281.1739 731.9032)" fill="#F9F9F9" font-family="'AgencyFB-Reg'" font-size="46">1986</text>
<circle fill="#3385DD" cx="497.142" cy="329.566" r="56.245"/>
<text transform="matrix(1 0 0 1 447.3816 341.5661)" fill="#E2E7D1" font-family="'MicrosoftYaHei'" font-size="30">Picture</text>
<circle fill="#3385DD" cx="589.897" cy="427.067" r="62.745"/>
<text transform="matrix(1 0 0 1 541.3922 440.453)" fill="#E2E7D1" font-family="'MicrosoftYaHei'" font-size="33.467">Words</text>
<circle fill="#3385DD" cx="690.005" cy="492.745" r="37.363"/>
<text transform="matrix(1 0 0 1 661.1211 500.7168)" fill="#E2E7D1" font-family="'MicrosoftYaHei'" font-size="19.9287">Words</text>
<circle fill="#3385DD" cx="742.71" cy="343.753" r="76.933"/>
<text transform="matrix(1 0 0 1 690.4713 360.1669)" fill="#E2E7D1" font-family="'MicrosoftYaHei'" font-size="41.0341">Video</text>
<circle fill="#3385DD" cx="836.078" cy="500.717" r="76.933"/>
<text transform="matrix(1 0 0 1 769.9531 510.9834)" fill="#E2E7D1" font-family="'MicrosoftYaHei'" font-size="32">Diversity</text>
<circle fill="#3385DD" cx="445.705" cy="505.842" r="82.745"/>
<text transform="matrix(1 0 0 1 383.394 523.4969)" fill="#E2E7D1" font-family="'MicrosoftYaHei'" font-size="44.1345">Music</text>
</svg>
