<?xml version="1.0" encoding="UTF-8" standalone="no"?>
<!-- Generator: Adobe Illustrator 17.0.0, SVG Export Plug-In . SVG Version: 6.00 Build 0)  -->

<svg
   xmlns:dc="http://purl.org/dc/elements/1.1/"
   xmlns:cc="http://creativecommons.org/ns#"
   xmlns:rdf="http://www.w3.org/1999/02/22-rdf-syntax-ns#"
   xmlns:svg="http://www.w3.org/2000/svg"
   xmlns="http://www.w3.org/2000/svg"
   xmlns:sodipodi="http://sodipodi.sourceforge.net/DTD/sodipodi-0.dtd"
   xmlns:inkscape="http://www.inkscape.org/namespaces/inkscape"
   version="1.1"
   id="图层_1"
   x="0px"
   y="0px"
   width="1280px"
   height="800px"
   viewBox="0 0 1280 800"
   enable-background="new 0 0 1280 800"
   xml:space="preserve"
   sodipodi:docname="11.svg"
   inkscape:version="0.92.2 5c3e80d, 2017-08-06"><metadata
     id="metadata103"><rdf:RDF><cc:Work
         rdf:about=""><dc:format>image/svg+xml</dc:format><dc:type
           rdf:resource="http://purl.org/dc/dcmitype/StillImage" /><dc:title /></cc:Work></rdf:RDF></metadata><defs
     id="defs101"><marker
       inkscape:isstock="true"
       style="overflow:visible;"
       id="marker3145"
       refX="0.0"
       refY="0.0"
       orient="auto"
       inkscape:stockid="Arrow2Mend"><path
         transform="scale(0.6) rotate(180) translate(0,0)"
         d="M 8.7185878,4.0337352 L -2.2072895,0.016013256 L 8.7185884,-4.0017078 C 6.9730900,-1.6296469 6.9831476,1.6157441 8.7185878,4.0337352 z "
         style="fill-rule:evenodd;stroke-width:0.625;stroke-linejoin:round;stroke:#ffffff;stroke-opacity:1;fill:#ffffff;fill-opacity:1"
         id="path3143" /></marker><marker
       inkscape:stockid="DotS"
       orient="auto"
       refY="0.0"
       refX="0.0"
       id="marker3063"
       style="overflow:visible"
       inkscape:isstock="true"><path
         id="path3061"
         d="M -2.5,-1.0 C -2.5,1.7600000 -4.7400000,4.0 -7.5,4.0 C -10.260000,4.0 -12.5,1.7600000 -12.5,-1.0 C -12.5,-3.7600000 -10.260000,-6.0 -7.5,-6.0 C -4.7400000,-6.0 -2.5,-3.7600000 -2.5,-1.0 z "
         style="fill-rule:evenodd;stroke:#ffffff;stroke-width:1pt;stroke-opacity:1;fill:#ffffff;fill-opacity:1"
         transform="scale(0.2) translate(7.4, 1)" /></marker><marker
       inkscape:stockid="Arrow2Mend"
       orient="auto"
       refY="0.0"
       refX="0.0"
       id="Arrow2Mend"
       style="overflow:visible;"
       inkscape:isstock="true"
       inkscape:collect="always"><path
         id="path1286"
         style="fill-rule:evenodd;stroke-width:0.625;stroke-linejoin:round;stroke:#ffffff;stroke-opacity:1;fill:#ffffff;fill-opacity:1"
         d="M 8.7185878,4.0337352 L -2.2072895,0.016013256 L 8.7185884,-4.0017078 C 6.9730900,-1.6296469 6.9831476,1.6157441 8.7185878,4.0337352 z "
         transform="scale(0.6) rotate(180) translate(0,0)" /></marker><marker
       inkscape:isstock="true"
       style="overflow:visible"
       id="marker13042"
       refX="0.0"
       refY="0.0"
       orient="auto"
       inkscape:stockid="DotS"><path
         transform="scale(0.2) translate(7.4, 1)"
         style="fill-rule:evenodd;stroke:#ffffff;stroke-width:1pt;stroke-opacity:1;fill:#ffffff;fill-opacity:1"
         d="M -2.5,-1.0 C -2.5,1.7600000 -4.7400000,4.0 -7.5,4.0 C -10.260000,4.0 -12.5,1.7600000 -12.5,-1.0 C -12.5,-3.7600000 -10.260000,-6.0 -7.5,-6.0 C -4.7400000,-6.0 -2.5,-3.7600000 -2.5,-1.0 z "
         id="path13040" /></marker><marker
       inkscape:isstock="true"
       style="overflow:visible"
       id="marker12906"
       refX="0.0"
       refY="0.0"
       orient="auto"
       inkscape:stockid="DotS"
       inkscape:collect="always"><path
         transform="scale(0.2) translate(7.4, 1)"
         style="fill-rule:evenodd;stroke:#ffffff;stroke-width:1pt;stroke-opacity:1;fill:#ffffff;fill-opacity:1"
         d="M -2.5,-1.0 C -2.5,1.7600000 -4.7400000,4.0 -7.5,4.0 C -10.260000,4.0 -12.5,1.7600000 -12.5,-1.0 C -12.5,-3.7600000 -10.260000,-6.0 -7.5,-6.0 C -4.7400000,-6.0 -2.5,-3.7600000 -2.5,-1.0 z "
         id="path12904" /></marker><marker
       inkscape:isstock="true"
       style="overflow:visible"
       id="marker12776"
       refX="0.0"
       refY="0.0"
       orient="auto"
       inkscape:stockid="DotS"><path
         transform="scale(0.2) translate(7.4, 1)"
         style="fill-rule:evenodd;stroke:#ffffff;stroke-width:1pt;stroke-opacity:1;fill:#ffffff;fill-opacity:1"
         d="M -2.5,-1.0 C -2.5,1.7600000 -4.7400000,4.0 -7.5,4.0 C -10.260000,4.0 -12.5,1.7600000 -12.5,-1.0 C -12.5,-3.7600000 -10.260000,-6.0 -7.5,-6.0 C -4.7400000,-6.0 -2.5,-3.7600000 -2.5,-1.0 z "
         id="path12774" /></marker><marker
       inkscape:isstock="true"
       style="overflow:visible"
       id="marker11601"
       refX="0.0"
       refY="0.0"
       orient="auto"
       inkscape:stockid="DotS"><path
         transform="scale(0.2) translate(7.4, 1)"
         style="fill-rule:evenodd;stroke:#ffffff;stroke-width:1pt;stroke-opacity:1;fill:#ffffff;fill-opacity:1"
         d="M -2.5,-1.0 C -2.5,1.7600000 -4.7400000,4.0 -7.5,4.0 C -10.260000,4.0 -12.5,1.7600000 -12.5,-1.0 C -12.5,-3.7600000 -10.260000,-6.0 -7.5,-6.0 C -4.7400000,-6.0 -2.5,-3.7600000 -2.5,-1.0 z "
         id="path11599" /></marker><marker
       inkscape:isstock="true"
       style="overflow:visible"
       id="marker11483"
       refX="0.0"
       refY="0.0"
       orient="auto"
       inkscape:stockid="DotS"><path
         transform="scale(0.2) translate(7.4, 1)"
         style="fill-rule:evenodd;stroke:#ffffff;stroke-width:1pt;stroke-opacity:1;fill:#ffffff;fill-opacity:1"
         d="M -2.5,-1.0 C -2.5,1.7600000 -4.7400000,4.0 -7.5,4.0 C -10.260000,4.0 -12.5,1.7600000 -12.5,-1.0 C -12.5,-3.7600000 -10.260000,-6.0 -7.5,-6.0 C -4.7400000,-6.0 -2.5,-3.7600000 -2.5,-1.0 z "
         id="path11481" /></marker><marker
       inkscape:isstock="true"
       style="overflow:visible"
       id="marker11371"
       refX="0.0"
       refY="0.0"
       orient="auto"
       inkscape:stockid="DotS"><path
         transform="scale(0.2) translate(7.4, 1)"
         style="fill-rule:evenodd;stroke:#ffffff;stroke-width:1pt;stroke-opacity:1;fill:#ffffff;fill-opacity:1"
         d="M -2.5,-1.0 C -2.5,1.7600000 -4.7400000,4.0 -7.5,4.0 C -10.260000,4.0 -12.5,1.7600000 -12.5,-1.0 C -12.5,-3.7600000 -10.260000,-6.0 -7.5,-6.0 C -4.7400000,-6.0 -2.5,-3.7600000 -2.5,-1.0 z "
         id="path11369" /></marker><marker
       inkscape:isstock="true"
       style="overflow:visible"
       id="marker9400"
       refX="0.0"
       refY="0.0"
       orient="auto"
       inkscape:stockid="DotS"><path
         transform="scale(0.2) translate(7.4, 1)"
         style="fill-rule:evenodd;stroke:#ffffff;stroke-width:1pt;stroke-opacity:1;fill:#ffffff;fill-opacity:1"
         d="M -2.5,-1.0 C -2.5,1.7600000 -4.7400000,4.0 -7.5,4.0 C -10.260000,4.0 -12.5,1.7600000 -12.5,-1.0 C -12.5,-3.7600000 -10.260000,-6.0 -7.5,-6.0 C -4.7400000,-6.0 -2.5,-3.7600000 -2.5,-1.0 z "
         id="path9398" /></marker><marker
       inkscape:isstock="true"
       style="overflow:visible"
       id="marker9300"
       refX="0.0"
       refY="0.0"
       orient="auto"
       inkscape:stockid="DotS"><path
         transform="scale(0.2) translate(7.4, 1)"
         style="fill-rule:evenodd;stroke:#ffffff;stroke-width:1pt;stroke-opacity:1;fill:#ffffff;fill-opacity:1"
         d="M -2.5,-1.0 C -2.5,1.7600000 -4.7400000,4.0 -7.5,4.0 C -10.260000,4.0 -12.5,1.7600000 -12.5,-1.0 C -12.5,-3.7600000 -10.260000,-6.0 -7.5,-6.0 C -4.7400000,-6.0 -2.5,-3.7600000 -2.5,-1.0 z "
         id="path9298" /></marker><marker
       inkscape:isstock="true"
       style="overflow:visible"
       id="marker9206"
       refX="0.0"
       refY="0.0"
       orient="auto"
       inkscape:stockid="DotS"><path
         transform="scale(0.2) translate(7.4, 1)"
         style="fill-rule:evenodd;stroke:#ffffff;stroke-width:1pt;stroke-opacity:1;fill:#ffffff;fill-opacity:1"
         d="M -2.5,-1.0 C -2.5,1.7600000 -4.7400000,4.0 -7.5,4.0 C -10.260000,4.0 -12.5,1.7600000 -12.5,-1.0 C -12.5,-3.7600000 -10.260000,-6.0 -7.5,-6.0 C -4.7400000,-6.0 -2.5,-3.7600000 -2.5,-1.0 z "
         id="path9204" /></marker><marker
       inkscape:stockid="DiamondSend"
       orient="auto"
       refY="0.0"
       refX="0.0"
       id="DiamondSend"
       style="overflow:visible"
       inkscape:isstock="true"><path
         id="path1749"
         d="M 0,-7.0710768 L -7.0710894,0 L 0,7.0710589 L 7.0710462,0 L 0,-7.0710768 z "
         style="fill-rule:evenodd;stroke:#ffffff;stroke-width:1pt;stroke-opacity:1;fill:#ffffff;fill-opacity:1"
         transform="scale(0.2) translate(-6,0)" /></marker><style
       id="style164"
       type="text/css" /><style
       id="style282"
       type="text/css" /><style
       id="style746"
       type="text/css" /><style
       id="style7416"
       type="text/css" /><style
       id="style7491"
       type="text/css" /><style
       id="style8815"
       type="text/css" /><style
       id="style8921"
       type="text/css" /><style
       id="style8997"
       type="text/css" /><style
       id="style10690"
       type="text/css" /><style
       id="style11335"
       type="text/css" /><style
       id="style12415"
       type="text/css" /><style
       id="style12491"
       type="text/css" /><style
       id="style12577"
       type="text/css" /><style
       id="style12646"
       type="text/css" /><style
       id="style12740"
       type="text/css" /><style
       id="style14064"
       type="text/css" /><style
       id="style14188"
       type="text/css" /><style
       id="style15090"
       type="text/css" /><style
       id="style15159"
       type="text/css" /><style
       id="style15251"
       type="text/css" /><style
       id="style15345"
       type="text/css" /><style
       id="style15420"
       type="text/css" /><style
       id="style15501"
       type="text/css" /><style
       id="style15565"
       type="text/css" /><style
       id="style15629"
       type="text/css" /><style
       id="style15794"
       type="text/css" /></defs><sodipodi:namedview
     pagecolor="#ffffff"
     bordercolor="#666666"
     borderopacity="1"
     objecttolerance="10"
     gridtolerance="10"
     guidetolerance="10"
     inkscape:pageopacity="0"
     inkscape:pageshadow="2"
     inkscape:window-width="1097"
     inkscape:window-height="813"
     id="namedview99"
     showgrid="false"
     inkscape:zoom="0.6166629"
     inkscape:cx="703.27043"
     inkscape:cy="597.28206"
     inkscape:window-x="143"
     inkscape:window-y="0"
     inkscape:window-maximized="0"
     inkscape:current-layer="图层_1"
     inkscape:snap-global="false"
     showguides="false" /><path
     d="m -33.067557,-29.946574 c 509.191087,0 1018.382167,0 1527.573257,0 0,298.586684 0,597.173384 0,895.760084 -509.19109,0 -1018.38217,0 -1527.573257,0 0,-298.5867 0,-597.1734 0,-895.760084 z"
     id="rect2"
     inkscape:connector-curvature="0"
     style="stroke-width:0.58488017" /><flowRoot
     xml:space="preserve"
     id="flowRoot54"
     style="font-style:normal;font-weight:normal;font-size:40px;line-height:1.25;font-family:sans-serif;letter-spacing:0px;word-spacing:0px;fill:#000000;fill-opacity:1;stroke:none"
     transform="translate(2.4324473)"><flowRegion
       id="flowRegion56"><rect
         id="rect58"
         width="38"
         height="42"
         x="18"
         y="27" /></flowRegion><flowPara
       id="flowPara60">10</flowPara></flowRoot><text
     xml:space="preserve"
     style="font-style:normal;font-weight:normal;font-size:40px;line-height:1.25;font-family:sans-serif;letter-spacing:0px;word-spacing:0px;fill:#000000;fill-opacity:1;stroke:none"
     x="360.52692"
     y="158.83736"
     id="text64"><tspan
       sodipodi:role="line"
       id="tspan62"
       x="360.52692"
       y="158.83736"
       style="font-size:32px;fill:#ffffff">11</tspan></text>
<path
     id="path12650"
     p-id="7369"
     d="m 672.63492,232.18377 6.256,-14.72406 14.97507,14.04096 3.42546,-3.65784 -14.97995,-14.04096 14.29664,-7.1947 -37.35866,-11.39629 z m -9.77893,-51.49715 c 0,1.8033 -1.45469,3.26274 -3.25339,3.26274 -1.8033,0 -3.26267,-1.45944 -3.26267,-3.26274 v -8.37994 c -0.004,-1.80329 1.4547,-3.25806 3.26267,-3.25806 1.7987,0 3.25339,1.45484 3.25339,3.25806 z m -12.73483,2.69103 c 1.27349,1.26875 1.27349,3.33238 0,4.60596 -1.26875,1.26875 -3.33706,1.26875 -4.60595,0 l -5.92588,-5.92588 c -1.2689,-1.26883 -1.2689,-3.33253 0,-4.60128 1.27349,-1.2735 3.33712,-1.2735 4.60587,0 z m 17.77778,-1.23166 c -1.26889,1.27342 -1.26889,3.33705 0,4.61055 1.26869,1.2689 3.33707,1.2689 4.61063,0 l 5.91646,-5.92588 c 1.27349,-1.26882 1.27349,-3.33712 0,-4.60588 -1.26874,-1.2735 -3.33238,-1.2735 -4.60128,0 z m -24.03832,11.35905 c 1.7987,0 3.25806,1.45485 3.25806,3.25822 0,1.79862 -1.45477,3.25805 -3.25806,3.25805 l -8.37986,-0.005 c -1.80337,0 -3.25806,-1.45477 -3.25806,-3.25814 0,-1.79862 1.45469,-3.25347 3.25806,-3.25347 z m 3.91803,11.33139 c 1.26882,-1.26883 3.33246,-1.26883 4.60602,0.01 1.27336,1.2643 1.27336,3.33254 0.005,4.60135 l -5.92589,5.92113 c -1.26889,1.27357 -3.33719,1.27357 -4.60595,0 -1.27349,-1.27333 -1.27349,-3.33698 0,-4.6058 z"
     inkscape:connector-curvature="0"
     style="fill:#ffffff;stroke-width:0.07248068" /><path
     id="path12744"
     p-id="6622"
     d="m 858.62928,206.8251 -8.5815,8.58151 c -0.36889,0.36891 -0.96864,0.36891 -1.33753,0 l -1.33945,-1.33945 c -0.36893,-0.36891 -0.36893,-0.96863 0,-1.33754 l 5.7929,-5.78911 h -21.91916 v 9.45932 0 11.3512 1.10863 l 5.791,-5.791 c 0.36891,-0.36891 0.96864,-0.36891 1.33755,0 l 1.33944,1.33944 c 0.36892,0.36892 0.36892,0.96864 0,1.33755 l -8.5815,8.5815 c -0.0189,-0.0435 -1.04432,0.99134 -1.77836,0.99134 -0.73404,0 -1.69889,-1.03485 -1.77646,-0.99323 l -8.5815,-8.5815 c -0.36892,-0.36891 -0.36892,-0.96863 0,-1.33755 l 1.33944,-1.33944 c 0.36892,-0.36891 0.96864,-0.36891 1.33755,0 l 5.78911,5.79289 v -1.10863 -7.56746 -3.78374 -9.45932 h -21.91916 l 5.791,5.791 c 0.36892,0.36891 0.36892,0.96863 0,1.33754 l -1.33944,1.33945 c -0.36891,0.36891 -0.96864,0.36891 -1.33755,0 l -8.5815,-8.58151 c 0.0435,-0.0189 -0.99134,-1.04431 -0.99134,-1.77835 0,-0.73404 1.03485,-1.69889 0.99323,-1.77646 l 8.5815,-8.58151 c 0.36891,-0.36891 0.96864,-0.36891 1.33755,0 l 1.33945,1.33945 c 0.36891,0.36891 0.36891,0.96863 0,1.33755 l -5.7929,5.7891 h 21.91916 v -21.91915 l -5.791,5.791 c -0.36892,0.36891 -0.96864,0.36891 -1.33755,0 l -1.33944,-1.33944 c -0.36892,-0.36892 -0.36892,-0.96864 0,-1.33755 l 8.5815,-8.5815 c 0.0189,0.0435 1.04431,-0.99134 1.77835,-0.99134 0.73404,0 1.6989,1.03485 1.77646,0.99323 l 8.58151,8.5815 c 0.36892,0.36892 0.36892,0.96864 0,1.33755 l -1.33944,1.33945 c -0.36892,0.36891 -0.96864,0.36891 -1.33755,0 l -5.78911,-5.7929 v 21.91915 h 21.91916 l -5.79102,-5.79099 c -0.3689,-0.36892 -0.3689,-0.96864 0,-1.33755 l 1.33944,-1.33945 c 0.36893,-0.36891 0.96863,-0.36891 1.33757,0 l 8.5815,8.58151 c -0.0435,0.0189 0.99134,1.04431 0.99134,1.77835 0,0.73404 -1.03487,1.6989 -0.99325,1.77646 z"
     inkscape:connector-curvature="0"
     style="fill:#ffffff;stroke-width:0.05912079" /><path
     inkscape:connector-curvature="0"
     id="path12772"
     d="m 720.1198,206.61416 56.26866,0.59791"
     style="opacity:1;fill:#ffffff;fill-opacity:1;stroke:#ffffff;stroke-width:2;stroke-linecap:butt;stroke-linejoin:miter;stroke-miterlimit:4;stroke-dasharray:none;stroke-opacity:1;marker-mid:url(#marker12906);marker-end:url(#Arrow2Mend)" /><path
     id="path14068"
     p-id="10129"
     d="m 548.17105,383.69778 h -20.76153 c -2.29415,0 -4.15232,-1.85815 -4.15232,-4.15229 v -20.76153 c 0,-2.29415 1.85817,-4.15232 4.15232,-4.15232 h 6.22847 v -14.53305 h -53.97998 v 14.53305 h 6.22847 c 2.29415,0 4.15232,1.85817 4.15232,4.15232 v 20.76153 c 0,2.29414 -1.85817,4.15229 -4.15232,4.15229 h -20.76152 c -2.29414,0 -4.1523,-1.85815 -4.1523,-4.15229 v -20.76153 c 0,-2.29415 1.85816,-4.15232 4.1523,-4.15232 h 6.22846 v -14.53305 -2.07615 -2.07615 c 0,-2.29414 1.85815,-4.15231 4.15231,-4.15231 h 26.98996 v -10.38074 h -6.22844 c -2.29415,0 -4.15232,-1.85817 -4.15232,-4.15232 v -20.76153 c 0,-2.29414 1.85817,-4.15229 4.15232,-4.15229 h 20.76151 c 2.29414,0 4.1523,1.85815 4.1523,4.15229 v 20.76153 c 0,2.29415 -1.85816,4.15232 -4.1523,4.15232 h -6.22845 v 10.38074 h 26.98996 c 2.29416,0 4.15231,1.85817 4.15231,4.15231 v 2.07615 2.07615 14.53305 h 6.22847 c 2.29414,0 4.15229,1.85817 4.15229,4.15232 v 20.76153 c 0,2.29414 -1.85815,4.15229 -4.15229,4.15229 z m -78.89379,-16.62997 v 4.17306 c 0,2.29414 1.85817,4.15231 4.1523,4.15231 h 4.1523 c 2.29415,0 4.15231,-1.85817 4.15231,-4.15231 v -4.17306 c 0,-2.29415 -1.85816,-4.1523 -4.15231,-4.1523 h -4.1523 c -2.29413,0 -4.1523,1.85815 -4.1523,4.1523 z m 43.59919,-58.1115 v -4.17307 c 0,-2.29416 -1.85816,-4.1523 -4.1523,-4.1523 h -4.1523 c -2.29414,0 -4.15231,1.85814 -4.15231,4.1523 v 4.17307 c 0,2.29415 1.85817,4.1523 4.15231,4.1523 h 4.1523 c 2.29414,0 4.1523,-1.85815 4.1523,-4.1523 z m 31.14229,58.1115 c 0,-2.29415 -1.85817,-4.1523 -4.15231,-4.1523 h -4.1523 c -2.29415,0 -4.15231,1.85815 -4.15231,4.1523 v 4.17306 c 0,2.29414 1.85816,4.15231 4.15231,4.15231 h 4.1523 c 2.29414,0 4.15231,-1.85817 4.15231,-4.15231 z"
     inkscape:connector-curvature="0"
     style="fill:#ffffff;stroke-width:0.08920967" /><g
     id="g14208"
     transform="matrix(0.12524597,0,0,0.12524597,442.82958,140.33944)"><path
       id="path14192"
       p-id="10917"
       d="m 509.54478,968.66161 a 22.36873,22.36873 0 0 1 -11.18916,-2.9987 L 123.67219,749.34128 A 22.381518,22.381518 0 0 1 112.48303,729.95845 V 297.31198 a 22.381518,22.381518 0 0 1 11.18916,-19.38282 L 498.35562,61.607518 a 22.384715,22.384715 0 0 1 22.37832,0 L 895.41736,277.92916 a 22.381518,22.381518 0 0 1 11.18916,19.38282 v 432.64967 a 22.381518,22.381518 0 0 1 -11.18916,19.38282 L 520.73394,965.66611 a 22.365533,22.365533 0 0 1 -11.18916,2.9955 z M 157.23967,717.04296 509.54478,920.44272 861.84988,717.04296 V 310.23066 L 509.54478,106.83091 157.23967,310.23066 Z"
       inkscape:connector-curvature="0"
       style="fill:#ffffff" /><path
       id="path14194"
       p-id="10918"
       d="m 402.81617,736.88614 c -99.80092,0 -180.99266,-81.19174 -180.99266,-180.99266 V 334.61025 a 22.378321,22.378321 0 1 1 44.75664,0 v 221.28323 c 0,75.12082 61.11519,136.23602 136.23602,136.23602 75.12083,0 136.23602,-61.11519 136.23602,-136.23602 V 334.61025 a 22.378325,22.378325 0 1 1 44.75665,0 v 221.28323 c 0,99.80092 -81.19175,180.99266 -180.99267,180.99266 z m 298.54279,0 A 22.378321,22.378321 0 0 1 678.98064,714.50782 V 334.61025 a 22.378321,22.378321 0 1 1 44.75664,0 v 379.89757 a 22.378321,22.378321 0 0 1 -22.37832,22.37832 z"
       inkscape:connector-curvature="0"
       style="fill:#ffffff" /><path
       id="path14196"
       p-id="10919"
       d="m 402.81617,658.15921 c -63.55123,0 -115.25475,-51.70351 -115.25475,-115.25475 V 336.61151 a 22.378325,22.378325 0 1 1 44.75665,0 v 206.29295 c 0,38.87115 31.62696,70.49811 70.4981,70.49811 38.87115,0 70.49811,-31.62696 70.49811,-70.49811 V 336.61151 a 22.378321,22.378321 0 1 1 44.75664,0 v 206.29295 c 0,63.55124 -51.70351,115.25475 -115.25475,115.25475 z m 368.87466,78.72693 A 22.378321,22.378321 0 0 1 749.3125,714.50782 V 334.61025 a 22.378325,22.378325 0 1 1 44.75665,0 v 379.89757 a 22.378321,22.378321 0 0 1 -22.37832,22.37832 z"
       inkscape:connector-curvature="0"
       style="fill:#ffffff" /></g><g
     id="g15107"
     transform="matrix(0.05872061,0,0,0.05872061,642.80029,301.92984)"><path
       id="path15094"
       p-id="11119"
       d="M 981,0 H 43 C 20.1,0 1.5,18.6 1.5,41.5 v 940.1 c 0,22.9 18.6,41.5 41.5,41.5 h 938 c 22.9,0 41.5,-18.6 41.5,-41.5 V 41.5 C 1022.5,18.6 1003.9,0 981,0 Z m -66.4,40.2 h 34.8 V 75 h -34.8 z m -60.4,0 H 889 V 75 h -34.8 z m -60.4,0 h 34.8 V 75 h -34.8 z m 172.6,908.2 c 0,10.2 -8.2,18.4 -18.4,18.4 H 75.9 c -10.2,0 -18.4,-8.2 -18.4,-18.4 V 118 c 0,-10.2 8.2,-18.4 18.4,-18.4 H 948 c 10.2,0 18.4,8.2 18.4,18.4 z"
       inkscape:connector-curvature="0"
       style="fill:#ffffff" /><path
       id="path15096"
       p-id="11120"
       d="M 282.3,339.6 H 153.6 c -0.2,0 -0.3,-0.1 -0.3,-0.3 V 210.7 c 0,-0.2 0.1,-0.3 0.3,-0.3 h 128.7 c 0.2,0 0.3,0.1 0.3,0.3 v 128.7 c 0,0.1 -0.2,0.2 -0.3,0.2 z m 586.7,0 H 331 c -0.2,0 -0.5,-0.2 -0.5,-0.5 v -45.9 c 0,-0.2 0.2,-0.5 0.5,-0.5 h 538 c 0.2,0 0.5,0.2 0.5,0.5 v 45.9 c 0,0.3 -0.2,0.5 -0.5,0.5 z m 0,135.2 H 155 c -0.2,0 -0.5,-0.2 -0.5,-0.5 v -45.9 c 0,-0.2 0.2,-0.5 0.5,-0.5 h 714 c 0.2,0 0.5,0.2 0.5,0.5 v 45.9 c 0,0.3 -0.2,0.5 -0.5,0.5 z M 869,610 H 155 c -0.2,0 -0.5,-0.2 -0.5,-0.5 v -45.9 c 0,-0.2 0.2,-0.5 0.5,-0.5 h 714 c 0.2,0 0.5,0.2 0.5,0.5 v 45.9 c 0,0.3 -0.2,0.5 -0.5,0.5 z m 0,135.2 H 155 c -0.2,0 -0.5,-0.2 -0.5,-0.5 v -45.9 c 0,-0.2 0.2,-0.5 0.5,-0.5 h 714 c 0.2,0 0.5,0.2 0.5,0.5 v 45.9 c 0,0.3 -0.2,0.5 -0.5,0.5 z m 0,135.2 H 155 c -0.2,0 -0.5,-0.2 -0.5,-0.5 V 834 c 0,-0.2 0.2,-0.5 0.5,-0.5 h 714 c 0.2,0 0.5,0.2 0.5,0.5 v 45.9 c 0,0.3 -0.2,0.5 -0.5,0.5 z"
       inkscape:connector-curvature="0"
       style="fill:#ffffff" /></g><path
     id="path15163"
     p-id="11303"
     d="m 869.08241,341.25892 v -20.60805 h -24.72965 v -20.60804 h -49.4593 v 32.97287 h 24.72965 v 19.78372 h 24.72965 v 21.43236 h 49.45931 v -32.97286 z m -70.06734,-12.36483 v -24.72965 h 41.21608 v 15.66211 4.94593 4.94593 h -16.48643 -4.12161 -20.60804 z m 24.72965,4.12161 h 20.60804 v -8.24322 h 20.60805 v 24.72965 h -41.21609 z m 65.94574,37.09448 h -41.21609 v -16.48644 h 20.60804 v -8.24322 h 20.60805 z"
     inkscape:connector-curvature="0"
     style="fill:#ffffff;stroke-width:0.12880027" /><path
     style="opacity:1;fill:#ffffff;fill-opacity:1;stroke:#ffffff;stroke-width:2;stroke-linecap:butt;stroke-linejoin:miter;stroke-miterlimit:4;stroke-dasharray:none;stroke-opacity:1;marker-mid:url(#marker3063);marker-end:url(#marker3145)"
     d="m 720.1198,334.72305 56.26866,0.59791"
     id="path3059"
     inkscape:connector-curvature="0" /></svg>