<?xml version="1.0" encoding="UTF-8" standalone="no"?>
<!-- Generator: Adobe Illustrator 17.0.0, SVG Export Plug-In . SVG Version: 6.00 Build 0)  -->

<svg
   xmlns:dc="http://purl.org/dc/elements/1.1/"
   xmlns:cc="http://creativecommons.org/ns#"
   xmlns:rdf="http://www.w3.org/1999/02/22-rdf-syntax-ns#"
   xmlns:svg="http://www.w3.org/2000/svg"
   xmlns="http://www.w3.org/2000/svg"
   xmlns:sodipodi="http://sodipodi.sourceforge.net/DTD/sodipodi-0.dtd"
   xmlns:inkscape="http://www.inkscape.org/namespaces/inkscape"
   version="1.1"
   id="图层_1"
   x="0px"
   y="0px"
   width="1280px"
   height="800px"
   viewBox="0 0 1280 800"
   enable-background="new 0 0 1280 800"
   xml:space="preserve"
   sodipodi:docname="timeline.svg"
   inkscape:version="0.92.2 5c3e80d, 2017-08-06"><metadata
     id="metadata103"><rdf:RDF><cc:Work
         rdf:about=""><dc:format>image/svg+xml</dc:format><dc:type
           rdf:resource="http://purl.org/dc/dcmitype/StillImage" /><dc:title /></cc:Work></rdf:RDF></metadata><defs
     id="defs101"><marker
       inkscape:isstock="true"
       style="overflow:visible"
       id="marker13042"
       refX="0.0"
       refY="0.0"
       orient="auto"
       inkscape:stockid="DotS"><path
         transform="scale(0.2) translate(7.4, 1)"
         style="fill-rule:evenodd;stroke:#ffffff;stroke-width:1pt;stroke-opacity:1;fill:#ffffff;fill-opacity:1"
         d="M -2.5,-1.0 C -2.5,1.7600000 -4.7400000,4.0 -7.5,4.0 C -10.260000,4.0 -12.5,1.7600000 -12.5,-1.0 C -12.5,-3.7600000 -10.260000,-6.0 -7.5,-6.0 C -4.7400000,-6.0 -2.5,-3.7600000 -2.5,-1.0 z "
         id="path13040" /></marker><marker
       inkscape:isstock="true"
       style="overflow:visible"
       id="marker12906"
       refX="0.0"
       refY="0.0"
       orient="auto"
       inkscape:stockid="DotS"><path
         transform="scale(0.2) translate(7.4, 1)"
         style="fill-rule:evenodd;stroke:#ffffff;stroke-width:1pt;stroke-opacity:1;fill:#ffffff;fill-opacity:1"
         d="M -2.5,-1.0 C -2.5,1.7600000 -4.7400000,4.0 -7.5,4.0 C -10.260000,4.0 -12.5,1.7600000 -12.5,-1.0 C -12.5,-3.7600000 -10.260000,-6.0 -7.5,-6.0 C -4.7400000,-6.0 -2.5,-3.7600000 -2.5,-1.0 z "
         id="path12904" /></marker><marker
       inkscape:isstock="true"
       style="overflow:visible"
       id="marker12776"
       refX="0.0"
       refY="0.0"
       orient="auto"
       inkscape:stockid="DotS"><path
         transform="scale(0.2) translate(7.4, 1)"
         style="fill-rule:evenodd;stroke:#ffffff;stroke-width:1pt;stroke-opacity:1;fill:#ffffff;fill-opacity:1"
         d="M -2.5,-1.0 C -2.5,1.7600000 -4.7400000,4.0 -7.5,4.0 C -10.260000,4.0 -12.5,1.7600000 -12.5,-1.0 C -12.5,-3.7600000 -10.260000,-6.0 -7.5,-6.0 C -4.7400000,-6.0 -2.5,-3.7600000 -2.5,-1.0 z "
         id="path12774" /></marker><marker
       inkscape:isstock="true"
       style="overflow:visible"
       id="marker11601"
       refX="0.0"
       refY="0.0"
       orient="auto"
       inkscape:stockid="DotS"><path
         transform="scale(0.2) translate(7.4, 1)"
         style="fill-rule:evenodd;stroke:#ffffff;stroke-width:1pt;stroke-opacity:1;fill:#ffffff;fill-opacity:1"
         d="M -2.5,-1.0 C -2.5,1.7600000 -4.7400000,4.0 -7.5,4.0 C -10.260000,4.0 -12.5,1.7600000 -12.5,-1.0 C -12.5,-3.7600000 -10.260000,-6.0 -7.5,-6.0 C -4.7400000,-6.0 -2.5,-3.7600000 -2.5,-1.0 z "
         id="path11599" /></marker><marker
       inkscape:isstock="true"
       style="overflow:visible"
       id="marker11483"
       refX="0.0"
       refY="0.0"
       orient="auto"
       inkscape:stockid="DotS"><path
         transform="scale(0.2) translate(7.4, 1)"
         style="fill-rule:evenodd;stroke:#ffffff;stroke-width:1pt;stroke-opacity:1;fill:#ffffff;fill-opacity:1"
         d="M -2.5,-1.0 C -2.5,1.7600000 -4.7400000,4.0 -7.5,4.0 C -10.260000,4.0 -12.5,1.7600000 -12.5,-1.0 C -12.5,-3.7600000 -10.260000,-6.0 -7.5,-6.0 C -4.7400000,-6.0 -2.5,-3.7600000 -2.5,-1.0 z "
         id="path11481" /></marker><marker
       inkscape:isstock="true"
       style="overflow:visible"
       id="marker11371"
       refX="0.0"
       refY="0.0"
       orient="auto"
       inkscape:stockid="DotS"><path
         transform="scale(0.2) translate(7.4, 1)"
         style="fill-rule:evenodd;stroke:#ffffff;stroke-width:1pt;stroke-opacity:1;fill:#ffffff;fill-opacity:1"
         d="M -2.5,-1.0 C -2.5,1.7600000 -4.7400000,4.0 -7.5,4.0 C -10.260000,4.0 -12.5,1.7600000 -12.5,-1.0 C -12.5,-3.7600000 -10.260000,-6.0 -7.5,-6.0 C -4.7400000,-6.0 -2.5,-3.7600000 -2.5,-1.0 z "
         id="path11369" /></marker><marker
       inkscape:isstock="true"
       style="overflow:visible"
       id="marker9400"
       refX="0.0"
       refY="0.0"
       orient="auto"
       inkscape:stockid="DotS"><path
         transform="scale(0.2) translate(7.4, 1)"
         style="fill-rule:evenodd;stroke:#ffffff;stroke-width:1pt;stroke-opacity:1;fill:#ffffff;fill-opacity:1"
         d="M -2.5,-1.0 C -2.5,1.7600000 -4.7400000,4.0 -7.5,4.0 C -10.260000,4.0 -12.5,1.7600000 -12.5,-1.0 C -12.5,-3.7600000 -10.260000,-6.0 -7.5,-6.0 C -4.7400000,-6.0 -2.5,-3.7600000 -2.5,-1.0 z "
         id="path9398" /></marker><marker
       inkscape:isstock="true"
       style="overflow:visible"
       id="marker9300"
       refX="0.0"
       refY="0.0"
       orient="auto"
       inkscape:stockid="DotS"><path
         transform="scale(0.2) translate(7.4, 1)"
         style="fill-rule:evenodd;stroke:#ffffff;stroke-width:1pt;stroke-opacity:1;fill:#ffffff;fill-opacity:1"
         d="M -2.5,-1.0 C -2.5,1.7600000 -4.7400000,4.0 -7.5,4.0 C -10.260000,4.0 -12.5,1.7600000 -12.5,-1.0 C -12.5,-3.7600000 -10.260000,-6.0 -7.5,-6.0 C -4.7400000,-6.0 -2.5,-3.7600000 -2.5,-1.0 z "
         id="path9298" /></marker><marker
       inkscape:isstock="true"
       style="overflow:visible"
       id="marker9206"
       refX="0.0"
       refY="0.0"
       orient="auto"
       inkscape:stockid="DotS"><path
         transform="scale(0.2) translate(7.4, 1)"
         style="fill-rule:evenodd;stroke:#ffffff;stroke-width:1pt;stroke-opacity:1;fill:#ffffff;fill-opacity:1"
         d="M -2.5,-1.0 C -2.5,1.7600000 -4.7400000,4.0 -7.5,4.0 C -10.260000,4.0 -12.5,1.7600000 -12.5,-1.0 C -12.5,-3.7600000 -10.260000,-6.0 -7.5,-6.0 C -4.7400000,-6.0 -2.5,-3.7600000 -2.5,-1.0 z "
         id="path9204" /></marker><marker
       inkscape:stockid="DotS"
       orient="auto"
       refY="0.0"
       refX="0.0"
       id="marker7705"
       style="overflow:visible"
       inkscape:isstock="true"
       inkscape:collect="always"><path
         id="path7703"
         d="M -2.5,-1.0 C -2.5,1.7600000 -4.7400000,4.0 -7.5,4.0 C -10.260000,4.0 -12.5,1.7600000 -12.5,-1.0 C -12.5,-3.7600000 -10.260000,-6.0 -7.5,-6.0 C -4.7400000,-6.0 -2.5,-3.7600000 -2.5,-1.0 z "
         style="fill-rule:evenodd;stroke:#ffffff;stroke-width:1pt;stroke-opacity:1;fill:#ffffff;fill-opacity:1"
         transform="scale(0.2) translate(7.4, 1)" /></marker><marker
       inkscape:stockid="DotS"
       orient="auto"
       refY="0.0"
       refX="0.0"
       id="marker7623"
       style="overflow:visible"
       inkscape:isstock="true"
       inkscape:collect="always"><path
         id="path7621"
         d="M -2.5,-1.0 C -2.5,1.7600000 -4.7400000,4.0 -7.5,4.0 C -10.260000,4.0 -12.5,1.7600000 -12.5,-1.0 C -12.5,-3.7600000 -10.260000,-6.0 -7.5,-6.0 C -4.7400000,-6.0 -2.5,-3.7600000 -2.5,-1.0 z "
         style="fill-rule:evenodd;stroke:#ffffff;stroke-width:1pt;stroke-opacity:1;fill:#ffffff;fill-opacity:1"
         transform="scale(0.2) translate(7.4, 1)" /></marker><marker
       inkscape:stockid="DotS"
       orient="auto"
       refY="0.0"
       refX="0.0"
       id="marker7547"
       style="overflow:visible"
       inkscape:isstock="true"
       inkscape:collect="always"><path
         id="path7545"
         d="M -2.5,-1.0 C -2.5,1.7600000 -4.7400000,4.0 -7.5,4.0 C -10.260000,4.0 -12.5,1.7600000 -12.5,-1.0 C -12.5,-3.7600000 -10.260000,-6.0 -7.5,-6.0 C -4.7400000,-6.0 -2.5,-3.7600000 -2.5,-1.0 z "
         style="fill-rule:evenodd;stroke:#ffffff;stroke-width:1pt;stroke-opacity:1;fill:#ffffff;fill-opacity:1"
         transform="scale(0.2) translate(7.4, 1)" /></marker><marker
       inkscape:stockid="DotS"
       orient="auto"
       refY="0.0"
       refX="0.0"
       id="marker5952"
       style="overflow:visible"
       inkscape:isstock="true"
       inkscape:collect="always"><path
         id="path5950"
         d="M -2.5,-1.0 C -2.5,1.7600000 -4.7400000,4.0 -7.5,4.0 C -10.260000,4.0 -12.5,1.7600000 -12.5,-1.0 C -12.5,-3.7600000 -10.260000,-6.0 -7.5,-6.0 C -4.7400000,-6.0 -2.5,-3.7600000 -2.5,-1.0 z "
         style="fill-rule:evenodd;stroke:#ffffff;stroke-width:1pt;stroke-opacity:1;fill:#ffffff;fill-opacity:1"
         transform="scale(0.2) translate(7.4, 1)" /></marker><marker
       inkscape:stockid="DotS"
       orient="auto"
       refY="0.0"
       refX="0.0"
       id="marker5888"
       style="overflow:visible"
       inkscape:isstock="true"
       inkscape:collect="always"><path
         id="path5886"
         d="M -2.5,-1.0 C -2.5,1.7600000 -4.7400000,4.0 -7.5,4.0 C -10.260000,4.0 -12.5,1.7600000 -12.5,-1.0 C -12.5,-3.7600000 -10.260000,-6.0 -7.5,-6.0 C -4.7400000,-6.0 -2.5,-3.7600000 -2.5,-1.0 z "
         style="fill-rule:evenodd;stroke:#ffffff;stroke-width:1pt;stroke-opacity:1;fill:#ffffff;fill-opacity:1"
         transform="scale(0.2) translate(7.4, 1)" /></marker><marker
       inkscape:stockid="DotS"
       orient="auto"
       refY="0.0"
       refX="0.0"
       id="marker5830"
       style="overflow:visible"
       inkscape:isstock="true"
       inkscape:collect="always"><path
         id="path5828"
         d="M -2.5,-1.0 C -2.5,1.7600000 -4.7400000,4.0 -7.5,4.0 C -10.260000,4.0 -12.5,1.7600000 -12.5,-1.0 C -12.5,-3.7600000 -10.260000,-6.0 -7.5,-6.0 C -4.7400000,-6.0 -2.5,-3.7600000 -2.5,-1.0 z "
         style="fill-rule:evenodd;stroke:#ffffff;stroke-width:1pt;stroke-opacity:1;fill:#ffffff;fill-opacity:1"
         transform="scale(0.2) translate(7.4, 1)" /></marker><marker
       inkscape:isstock="true"
       style="overflow:visible"
       id="marker2212"
       refX="0.0"
       refY="0.0"
       orient="auto"
       inkscape:stockid="DotS"
       inkscape:collect="always"><path
         transform="scale(0.2) translate(7.4, 1)"
         style="fill-rule:evenodd;stroke:#ffffff;stroke-width:1pt;stroke-opacity:1;fill:#ffffff;fill-opacity:1"
         d="M -2.5,-1.0 C -2.5,1.7600000 -4.7400000,4.0 -7.5,4.0 C -10.260000,4.0 -12.5,1.7600000 -12.5,-1.0 C -12.5,-3.7600000 -10.260000,-6.0 -7.5,-6.0 C -4.7400000,-6.0 -2.5,-3.7600000 -2.5,-1.0 z "
         id="path2210" /></marker><marker
       inkscape:isstock="true"
       style="overflow:visible"
       id="marker2166"
       refX="0.0"
       refY="0.0"
       orient="auto"
       inkscape:stockid="DotS"
       inkscape:collect="always"><path
         transform="scale(0.2) translate(7.4, 1)"
         style="fill-rule:evenodd;stroke:#ffffff;stroke-width:1pt;stroke-opacity:1;fill:#ffffff;fill-opacity:1"
         d="M -2.5,-1.0 C -2.5,1.7600000 -4.7400000,4.0 -7.5,4.0 C -10.260000,4.0 -12.5,1.7600000 -12.5,-1.0 C -12.5,-3.7600000 -10.260000,-6.0 -7.5,-6.0 C -4.7400000,-6.0 -2.5,-3.7600000 -2.5,-1.0 z "
         id="path2164" /></marker><marker
       inkscape:isstock="true"
       style="overflow:visible"
       id="marker2126"
       refX="0.0"
       refY="0.0"
       orient="auto"
       inkscape:stockid="DotS"
       inkscape:collect="always"><path
         transform="scale(0.2) translate(7.4, 1)"
         style="fill-rule:evenodd;stroke:#ffffff;stroke-width:1pt;stroke-opacity:1;fill:#ffffff;fill-opacity:1"
         d="M -2.5,-1.0 C -2.5,1.7600000 -4.7400000,4.0 -7.5,4.0 C -10.260000,4.0 -12.5,1.7600000 -12.5,-1.0 C -12.5,-3.7600000 -10.260000,-6.0 -7.5,-6.0 C -4.7400000,-6.0 -2.5,-3.7600000 -2.5,-1.0 z "
         id="path2124" /></marker><marker
       inkscape:stockid="DotS"
       orient="auto"
       refY="0.0"
       refX="0.0"
       id="marker2008"
       style="overflow:visible"
       inkscape:isstock="true"
       inkscape:collect="always"><path
         id="path2006"
         d="M -2.5,-1.0 C -2.5,1.7600000 -4.7400000,4.0 -7.5,4.0 C -10.260000,4.0 -12.5,1.7600000 -12.5,-1.0 C -12.5,-3.7600000 -10.260000,-6.0 -7.5,-6.0 C -4.7400000,-6.0 -2.5,-3.7600000 -2.5,-1.0 z "
         style="fill-rule:evenodd;stroke:#ffffff;stroke-width:1pt;stroke-opacity:1;fill:#ffffff;fill-opacity:1"
         transform="scale(0.2) translate(7.4, 1)" /></marker><marker
       inkscape:stockid="DiamondSend"
       orient="auto"
       refY="0.0"
       refX="0.0"
       id="DiamondSend"
       style="overflow:visible"
       inkscape:isstock="true"><path
         id="path1749"
         d="M 0,-7.0710768 L -7.0710894,0 L 0,7.0710589 L 7.0710462,0 L 0,-7.0710768 z "
         style="fill-rule:evenodd;stroke:#ffffff;stroke-width:1pt;stroke-opacity:1;fill:#ffffff;fill-opacity:1"
         transform="scale(0.2) translate(-6,0)" /></marker><marker
       inkscape:stockid="DotS"
       orient="auto"
       refY="0.0"
       refX="0.0"
       id="marker1930"
       style="overflow:visible"
       inkscape:isstock="true"
       inkscape:collect="always"><path
         id="path1928"
         d="M -2.5,-1.0 C -2.5,1.7600000 -4.7400000,4.0 -7.5,4.0 C -10.260000,4.0 -12.5,1.7600000 -12.5,-1.0 C -12.5,-3.7600000 -10.260000,-6.0 -7.5,-6.0 C -4.7400000,-6.0 -2.5,-3.7600000 -2.5,-1.0 z "
         style="fill-rule:evenodd;stroke:#ffffff;stroke-width:1pt;stroke-opacity:1;fill:#ffffff;fill-opacity:1"
         transform="scale(0.2) translate(7.4, 1)" /></marker><marker
       inkscape:stockid="DotS"
       orient="auto"
       refY="0.0"
       refX="0.0"
       id="DotS"
       style="overflow:visible"
       inkscape:isstock="true"
       inkscape:collect="always"><path
         id="path1713"
         d="M -2.5,-1.0 C -2.5,1.7600000 -4.7400000,4.0 -7.5,4.0 C -10.260000,4.0 -12.5,1.7600000 -12.5,-1.0 C -12.5,-3.7600000 -10.260000,-6.0 -7.5,-6.0 C -4.7400000,-6.0 -2.5,-3.7600000 -2.5,-1.0 z "
         style="fill-rule:evenodd;stroke:#ffffff;stroke-width:1pt;stroke-opacity:1;fill:#ffffff;fill-opacity:1"
         transform="scale(0.2) translate(7.4, 1)" /></marker><style
       id="style164"
       type="text/css" /><style
       id="style282"
       type="text/css" /><style
       id="style746"
       type="text/css" /><style
       id="style7416"
       type="text/css" /><style
       id="style7491"
       type="text/css" /><style
       id="style8815"
       type="text/css" /><style
       id="style8921"
       type="text/css" /><style
       id="style8997"
       type="text/css" /><style
       id="style10690"
       type="text/css" /><style
       id="style11335"
       type="text/css" /><style
       id="style12415"
       type="text/css" /><style
       id="style12491"
       type="text/css" /><style
       id="style12577"
       type="text/css" /><style
       id="style12646"
       type="text/css" /><style
       id="style12740"
       type="text/css" /><style
       id="style14064"
       type="text/css" /><style
       id="style14188"
       type="text/css" /><style
       id="style15090"
       type="text/css" /><style
       id="style15159"
       type="text/css" /><style
       id="style15251"
       type="text/css" /><style
       id="style15345"
       type="text/css" /><style
       id="style15420"
       type="text/css" /><style
       id="style15501"
       type="text/css" /><style
       id="style15565"
       type="text/css" /><style
       id="style15629"
       type="text/css" /><style
       id="style15794"
       type="text/css" /></defs><sodipodi:namedview
     pagecolor="#ffffff"
     bordercolor="#666666"
     borderopacity="1"
     objecttolerance="10"
     gridtolerance="10"
     guidetolerance="10"
     inkscape:pageopacity="0"
     inkscape:pageshadow="2"
     inkscape:window-width="1097"
     inkscape:window-height="813"
     id="namedview99"
     showgrid="false"
     inkscape:zoom="0.21802326"
     inkscape:cx="302.7832"
     inkscape:cy="203.48066"
     inkscape:window-x="143"
     inkscape:window-y="0"
     inkscape:window-maximized="0"
     inkscape:current-layer="图层_1"
     inkscape:snap-global="false"
     showguides="false" /><path
     d="m -19.307527,-134.29325 c 487.786617,0 975.573247,0 1463.359827,0 0,356.30226 0,712.60454 0,1068.90685 -487.78658,0 -975.57321,0 -1463.359827,0 0,-356.30231 0,-712.60459 0,-1068.90685 z"
     id="rect2"
     inkscape:connector-curvature="0"
     style="stroke-width:0.62533903" /><flowRoot
     xml:space="preserve"
     id="flowRoot54"
     style="font-style:normal;font-weight:normal;font-size:40px;line-height:1.25;font-family:sans-serif;letter-spacing:0px;word-spacing:0px;fill:#000000;fill-opacity:1;stroke:none"
     transform="translate(2.4324473)"><flowRegion
       id="flowRegion56"><rect
         id="rect58"
         width="38"
         height="42"
         x="18"
         y="27" /></flowRegion><flowPara
       id="flowPara60">10</flowPara></flowRoot><text
     id="text825"
     y="246.32562"
     x="490.50943"
     style="font-style:normal;font-weight:normal;font-size:40px;line-height:1.25;font-family:sans-serif;letter-spacing:0px;word-spacing:0px;fill:#000000;fill-opacity:1;stroke:none"
     xml:space="preserve"><tspan
       style="font-size:32px;fill:#ffffff"
       y="246.32562"
       x="490.50943"
       id="tspan823"
       sodipodi:role="line">14</tspan></text>
<path
     style="opacity:1;fill:#ffffff;fill-opacity:1;stroke:#ffffff;stroke-width:3;stroke-linecap:butt;stroke-linejoin:miter;stroke-miterlimit:4;stroke-dasharray:none;stroke-opacity:1;marker-start:url(#DotS);marker-mid:url(#marker1930);marker-end:url(#marker2008)"
     d="m 560.22708,397.82864 444.32702,1.6216"
     id="path831"
     inkscape:connector-curvature="0" /><path
     style="opacity:1;fill:#ffffff;fill-opacity:1;stroke:#ffffff;stroke-width:2.2512486;stroke-linecap:butt;stroke-linejoin:miter;stroke-miterlimit:4;stroke-dasharray:none;stroke-opacity:1;marker-start:url(#marker7547);marker-mid:url(#marker7623);marker-end:url(#marker7705)"
     d="m 779.40157,370.75394 0.78414,87.7063"
     id="path7543"
     inkscape:connector-curvature="0" /><ellipse
     style="opacity:1;fill:#040101;fill-opacity:1;stroke:#ffffff;stroke-width:0.82961875;stroke-miterlimit:4;stroke-dasharray:none;stroke-opacity:1"
     id="ellipse12341"
     cx="779.04999"
     cy="398.63397"
     rx="5.507215"
     ry="5.6368256" /><ellipse
     style="opacity:1;fill:#009a97;fill-opacity:1;stroke:#ffffff;stroke-width:0;stroke-miterlimit:4;stroke-dasharray:none;stroke-opacity:1"
     id="ellipse2062"
     cx="779.16254"
     cy="398.81378"
     rx="3.9999995"
     ry="3.9287982" /><path
     inkscape:connector-curvature="0"
     id="path9202"
     d="m 856.29244,325.75714 0.65561,110.2498"
     style="opacity:1;fill:#ffffff;fill-opacity:1;stroke:#ffffff;stroke-width:2.30794787;stroke-linecap:butt;stroke-linejoin:miter;stroke-miterlimit:4;stroke-dasharray:none;stroke-opacity:1;marker-start:url(#marker9206);marker-mid:url(#marker9300);marker-end:url(#marker9400)" /><ellipse
     ry="11.339672"
     rx="11.078933"
     cy="398.63385"
     cx="855.87476"
     id="ellipse12361"
     style="opacity:1;fill:#040101;fill-opacity:1;stroke:#ffffff;stroke-width:2.03131795;stroke-miterlimit:4;stroke-dasharray:none;stroke-opacity:1" /><ellipse
     ry="8.3486967"
     rx="8.499999"
     cy="398.40729"
     cx="855.95026"
     id="ellipse2064"
     style="opacity:1;fill:#00799a;fill-opacity:1;stroke:#ffffff;stroke-width:0;stroke-miterlimit:4;stroke-dasharray:none;stroke-opacity:1" /><path
     inkscape:connector-curvature="0"
     id="path11367"
     d="m 935.34824,344.95394 0.78414,87.7063"
     style="opacity:1;fill:#ffffff;fill-opacity:1;stroke:#ffffff;stroke-width:2.2512486;stroke-linecap:butt;stroke-linejoin:miter;stroke-miterlimit:4;stroke-dasharray:none;stroke-opacity:1;marker-start:url(#marker11371);marker-mid:url(#marker11483);marker-end:url(#marker11601)" /><ellipse
     ry="6.9584942"
     rx="6.7984939"
     cy="406.32928"
     cx="932.07831"
     id="ellipse12363"
     style="opacity:1;fill:#040101;fill-opacity:1;stroke:#ffffff;stroke-width:1.02413976;stroke-miterlimit:4;stroke-dasharray:none;stroke-opacity:1"
     transform="rotate(-0.50019512)" /><ellipse
     style="opacity:1;fill:#004c9a;fill-opacity:1;stroke:#ffffff;stroke-width:0;stroke-miterlimit:4;stroke-dasharray:none;stroke-opacity:1"
     id="ellipse2066"
     cx="942.73834"
     cy="380.88278"
     rx="5.0119643"
     ry="4.92275"
     transform="rotate(1.0490372)" /><path
     inkscape:connector-curvature="0"
     id="path2122"
     d="m 704.95338,315.80454 0.61384,119.6428"
     style="opacity:1;fill:#ffffff;fill-opacity:1;stroke:#ffffff;stroke-width:2.3263824;stroke-linecap:butt;stroke-linejoin:miter;stroke-miterlimit:4;stroke-dasharray:none;stroke-opacity:1;marker-start:url(#marker2126);marker-mid:url(#marker2166);marker-end:url(#marker2212)" /><ellipse
     ry="6.794477"
     rx="6.638248"
     cy="397.62042"
     cx="704.86029"
     id="ellipse12337"
     style="opacity:1;fill:#040101;fill-opacity:1;stroke:#ffffff;stroke-width:1;stroke-miterlimit:4;stroke-dasharray:none;stroke-opacity:1" /><ellipse
     ry="4.92275"
     rx="4.9106126"
     cy="397.53339"
     cx="705.00867"
     id="ellipse2060"
     style="opacity:1;fill:#009a50;fill-opacity:1;stroke:#ffffff;stroke-width:0;stroke-miterlimit:4;stroke-dasharray:none;stroke-opacity:1" /><path
     style="opacity:1;fill:#ffffff;fill-opacity:1;stroke:#ffffff;stroke-width:1.87792647;stroke-linecap:butt;stroke-linejoin:miter;stroke-miterlimit:4;stroke-dasharray:none;stroke-opacity:1;marker-start:url(#marker5830);marker-mid:url(#marker5888);marker-end:url(#marker5952)"
     d="m 631.33325,365.74064 0.49551,96.5793"
     id="path5826"
     inkscape:connector-curvature="0" /><ellipse
     style="opacity:1;fill:#040101;fill-opacity:1;stroke:#ffffff;stroke-width:1.89513946;stroke-miterlimit:4;stroke-dasharray:none;stroke-opacity:1"
     id="path12335"
     cx="631.07605"
     cy="398.22845"
     rx="10.336206"
     ry="10.579466" /><ellipse
     style="opacity:1;fill:#2fb154;fill-opacity:1;stroke:#ffffff;stroke-width:0;stroke-miterlimit:4;stroke-dasharray:none;stroke-opacity:1"
     id="path2058"
     cx="631.18695"
     cy="398.22125"
     rx="7.635921"
     ry="7.4999995" /><g
     id="g7439"
     transform="matrix(0.04686012,0,0,0.04686012,605.28465,297.36124)"><path
       id="path7420"
       p-id="2031"
       d="M 512,0 C 296.192,0 64,65.056 64,208 v 608 c 0,142.88 232.192,208 448,208 215.776,0 448,-65.12 448,-208 V 208 C 960,65.056 727.744,0 512,0 Z M 896,816 C 896,895.488 724.064,960 512,960 299.904,960 128,895.488 128,816 V 696.448 C 194.112,764.576 353.6,800 512,800 670.4,800 829.888,764.576 896,696.448 Z m 0,-192 h -0.128 c 0,0.32 0.128,0.672 0.128,0.992 C 896,704 724.064,768 512,768 299.936,768 128,704 128,624.992 c 0,-0.32 0.128,-0.672 0.128,-0.992 H 128 V 504.448 C 194.112,572.576 353.6,608 512,608 670.4,608 829.888,572.576 896,504.448 Z m 0,-192 h -0.128 c 0,0.32 0.128,0.672 0.128,0.992 C 896,512 724.064,576 512,576 299.936,576 128,512 128,432.992 c 0,-0.32 0.128,-0.672 0.128,-0.992 H 128 V 322.048 C 211.872,385.952 365.6,416 512,416 658.4,416 812.128,385.952 896,322.048 Z M 512,352 C 299.904,352 128,287.488 128,208 128,128.448 299.904,64 512,64 c 212.064,0 384,64.448 384,144 0,79.488 -171.936,144 -384,144 z"
       inkscape:connector-curvature="0"
       style="fill:#ffffff" /><path
       id="path7422"
       p-id="2032"
       d="m 800,832 m -32,0 a 32,32 0 1 0 64,0 32,32 0 1 0 -64,0 z"
       inkscape:connector-curvature="0"
       style="fill:#ffffff" /><path
       id="path7424"
       p-id="2033"
       d="m 800,640 m -32,0 a 32,32 0 1 0 64,0 32,32 0 1 0 -64,0 z"
       inkscape:connector-curvature="0"
       style="fill:#ffffff" /><path
       id="path7426"
       p-id="2034"
       d="m 800,448 m -32,0 a 32,32 0 1 0 64,0 32,32 0 1 0 -64,0 z"
       inkscape:connector-curvature="0"
       style="fill:#ffffff" /></g><path
     id="path7495"
     p-id="2630"
     d="m 713.51243,458.69884 h -19.0823 c -1.96787,0 -3.57793,1.61 -3.57793,3.578 v 0.5963 c 0,0.3577 0.23853,0.5963 0.59632,0.5963 h 17.29333 c 1.96787,0 3.57794,1.61 3.57794,3.5779 v 18.486 c 0,0.3578 0.23852,0.5963 0.59632,0.5963 h 0.59632 c 1.96786,0 3.57793,-1.61 3.57793,-3.5779 v -20.2749 c 0,-1.968 -1.61007,-3.578 -3.57793,-3.578 z m -8.34851,8.3485 h -19.0823 c -1.96786,0 -3.57793,1.6101 -3.57793,3.578 v 20.2749 c 0,1.9679 1.61007,3.5779 3.57793,3.5779 h 19.0823 c 1.96787,0 3.57793,-1.61 3.57793,-3.5779 v -20.2749 c 0,-1.9679 -1.61006,-3.578 -3.57793,-3.578 z m -17.88966,5.9632 c 0,-0.6559 0.5367,-1.1926 1.19265,-1.1926 h 11.92644 c 0.65596,0 1.19264,0.5367 1.19264,1.1926 v 1.1926 c 0,0.656 -0.53668,1.1927 -1.19264,1.1927 h -11.92644 c -0.65595,0 -1.19265,-0.5367 -1.19265,-1.1927 z m 14.31173,15.5044 c 0,0.6559 -0.53668,1.1927 -1.19264,1.1927 h -11.92644 c -0.65595,0 -1.19265,-0.5368 -1.19265,-1.1927 v -1.1927 c 0,-0.6559 0.5367,-1.1926 1.19265,-1.1926 h 11.92644 c 0.65596,0 1.19264,0.5367 1.19264,1.1926 z m 2.38529,-7.1559 c 0,0.656 -0.53669,1.1927 -1.19265,1.1927 h -14.31172 c -0.65595,0 -1.19265,-0.5367 -1.19265,-1.1927 v -1.1926 c 0,-0.6559 0.5367,-1.1926 1.19265,-1.1926 h 14.31172 c 0.65596,0 1.19265,0.5367 1.19265,1.1926 z"
     inkscape:connector-curvature="0"
     style="fill:#ffffff;stroke-width:0.05823455" /><g
     id="g8937"
     transform="matrix(0.04190105,0,0,0.04190105,757.49634,317.71304)"><path
       id="path8925"
       class=""
       data-spm-anchor-id="a313x.7781069.0.i11"
       p-id="4623"
       d="m 108.544,149.504 h 808.96 v 542.72 h -808.96 z"
       inkscape:connector-curvature="0"
       style="fill:#1296db" /><path
       id="path8927"
       class="selected"
       data-spm-anchor-id="a313x.7781069.0.i12"
       p-id="4624"
       d="M 788.48,921.6 H 235.52 c -16.384,0 -30.72,14.336 -30.72,30.72 0,16.384 14.336,30.72 30.72,30.72 h 552.96 c 16.384,0 30.72,-14.336 30.72,-30.72 0,-16.384 -14.336,-30.72 -30.72,-30.72 z M 471.04,430.08 H 839.68 V 225.28 H 471.04 Z m 61.44,-143.36 h 245.76 v 81.92 H 532.48 Z M 942.08,40.96 H 81.92 C 36.864,40.96 0,77.824 0,122.88 V 716.8 c 0,45.056 36.864,81.92 81.92,81.92 h 860.16 c 45.056,0 81.92,-36.864 81.92,-81.92 V 122.88 c 0,-45.056 -36.864,-81.92 -81.92,-81.92 z m 20.48,655.36 c 0,22.528 -18.432,40.96 -40.96,40.96 H 102.4 c -22.528,0 -40.96,-18.432 -40.96,-40.96 V 143.36 c 0,-22.528 18.432,-40.96 40.96,-40.96 h 819.2 c 22.528,0 40.96,18.432 40.96,40.96 z M 307.2,430.08 c 57.344,0 102.4,-45.056 102.4,-102.4 0,-57.344 -45.056,-102.4 -102.4,-102.4 -57.344,0 -102.4,45.056 -102.4,102.4 0,57.344 45.056,102.4 102.4,102.4 z m 0,-143.36 c 22.528,0 40.96,18.432 40.96,40.96 0,22.528 -18.432,40.96 -40.96,40.96 -22.528,0 -40.96,-18.432 -40.96,-40.96 0,-22.528 18.432,-40.96 40.96,-40.96 z M 204.8,634.88 H 839.68 V 573.44 H 471.04 V 552.96 H 839.68 V 491.52 H 204.8 Z"
       inkscape:connector-curvature="0"
       style="fill:#ffffff" /></g><g
     id="g9020"
     transform="matrix(0.03918081,0,0,0.03918081,836.78908,444.90964)"><path
       id="path9001"
       class="selected"
       data-spm-anchor-id="a313x.7781069.0.i14"
       p-id="4791"
       d="M 512,832 C 246.656,832 74.026667,535.21067 66.816,522.58133 a 21.354667,21.354667 0 0 1 -0.04267,-21.12 C 73.941333,488.87467 245.312,192 512,192 c 265.32267,0 437.97333,296.78933 445.184,309.41867 a 21.290667,21.290667 0 0 1 -0.0427,21.22666 C 949.888,535.27467 775.95733,832 512,832 Z"
       inkscape:connector-curvature="0"
       style="fill:#e6e6e6" /><path
       id="path9003"
       p-id="4792"
       d="m 512,512 m -234.66667,0 a 234.66667,234.66667 0 1 0 469.33334,0 234.66667,234.66667 0 1 0 -469.33334,0 z"
       inkscape:connector-curvature="0"
       style="fill:#43a6dd" /><path
       id="path9005"
       p-id="4793"
       d="m 512,512 m -128,0 a 128,128 0 1 0 256,0 128,128 0 1 0 -256,0 z"
       inkscape:connector-curvature="0"
       style="fill:#444444" /><path
       id="path9007"
       p-id="4794"
       d="m 416,437.33333 m -53.33333,0 a 53.333333,53.333333 0 1 0 106.66666,0 53.333333,53.333333 0 1 0 -106.66666,0 z"
       inkscape:connector-curvature="0"
       style="fill:#ffffff" /></g><g
     id="g10707"
     transform="matrix(0.0475,0,0,0.0475,755.24896,465.34634)"><path
       id="path10694"
       p-id="5501"
       d="M 888,792 H 200 V 168 c 0,-4.4 -3.6,-8 -8,-8 h -56 c -4.4,0 -8,3.6 -8,8 v 688 c 0,4.4 3.6,8 8,8 h 752 c 4.4,0 8,-3.6 8,-8 v -56 c 0,-4.4 -3.6,-8 -8,-8 z"
       inkscape:connector-curvature="0"
       style="fill:#ffffff" /><path
       id="path10696"
       p-id="5502"
       d="m 288,712 h 56 c 4.4,0 8,-3.6 8,-8 V 560 c 0,-4.4 -3.6,-8 -8,-8 h -56 c -4.4,0 -8,3.6 -8,8 v 144 c 0,4.4 3.6,8 8,8 z m 152,0 h 56 c 4.4,0 8,-3.6 8,-8 V 384 c 0,-4.4 -3.6,-8 -8,-8 h -56 c -4.4,0 -8,3.6 -8,8 v 320 c 0,4.4 3.6,8 8,8 z m 152,0 h 56 c 4.4,0 8,-3.6 8,-8 V 462 c 0,-4.4 -3.6,-8 -8,-8 h -56 c -4.4,0 -8,3.6 -8,8 v 242 c 0,4.4 3.6,8 8,8 z m 152,0 h 56 c 4.4,0 8,-3.6 8,-8 V 304 c 0,-4.4 -3.6,-8 -8,-8 h -56 c -4.4,0 -8,3.6 -8,8 v 400 c 0,4.4 3.6,8 8,8 z"
       inkscape:connector-curvature="0"
       style="fill:#ffffff" /></g><path
     id="path11339"
     p-id="5807"
     d="m 947.05268,315.71764 -2.02487,-2.025 -10.3665,13.5848 -0.65841,0.4938 -15.09256,5.818 -1.95223,-1.9573 5.85755,-15.0579 0.49132,-0.6536 13.57534,-10.3732 -2.01696,-2.0169 7.01516,-7.0152 12.18734,12.1874 z m -21.57377,2.3472 -3.1192,8.018 8.21107,-8.2111 a 2.1859628,2.1859628 0 1 1 2.14023,2.1403 l -8.16542,8.1654 7.97179,-3.073 10.3491,-13.5615 -3.82813,-3.8396 z m 13.66689,-14.5345 7.90688,7.9069 2.73473,-2.7347 -7.90689,-7.9069 z"
     inkscape:connector-curvature="0"
     style="fill:#ffffff;stroke-width:0.04203774" /><ellipse
     style="opacity:1;fill:#009a50;fill-opacity:1;stroke:#ffffff;stroke-width:0;stroke-miterlimit:4;stroke-dasharray:none;stroke-opacity:1"
     id="ellipse12339"
     cx="705.00867"
     cy="397.53339"
     rx="4.9106126"
     ry="4.92275" /></svg>